<svg width="187" height="184" viewBox="0 0 187 184" fill="none" xmlns="http://www.w3.org/2000/svg">
<path d="M94.1172 2.12012C104.994 8.78078 119.821 11.7693 133.841 12.8525C147.112 13.8778 159.89 13.2086 168.384 12.1875V91.2832C168.384 91.8672 168.335 92.4549 168.237 93.0186C158.579 148.688 115.695 175.4 94.9238 182.019C41.1173 164.104 22.6726 114.741 20.1787 92.2002V12.584C32.2341 15.8803 46.6978 14.9252 59.9531 12.4014C73.6305 9.79712 86.2695 5.47139 94.1172 2.12012Z" fill="url(#paint0_linear_1_15037)" stroke="#A785EB" stroke-width="3.76792"/>
<path d="M94.1221 26.6057C102.377 31.5334 113.518 33.7343 123.998 34.5354C133.743 35.2802 143.135 34.8269 149.544 34.0989V92.134C149.544 92.7254 149.495 93.3165 149.395 93.8811C142.102 134.764 110.299 154.461 94.7686 159.413C54.6546 146.127 40.8882 109.696 39.0186 93.0588V34.4719C48.0634 36.7667 58.7683 36.0348 68.5479 34.1926C78.7459 32.2716 88.1788 29.0976 94.1221 26.6057Z" fill="url(#paint1_linear_1_15037)" stroke="#A785EB" stroke-width="3.76792"/>
<rect x="55.9746" y="58.4026" width="75.3584" height="50.2389" rx="5.02389" fill="#A785EB"/>
<path d="M58.4863 79.7544H128.821V101.106C128.821 103.187 127.134 104.874 125.053 104.874H62.2542C60.1733 104.874 58.4863 103.187 58.4863 101.106V79.7544Z" fill="#F2EDFC"/>
<path d="M81.7207 79.7544H128.82V101.106C128.82 103.187 127.133 104.874 125.052 104.874H121.766C121.041 104.874 120.332 104.665 119.723 104.272L81.7207 79.7544Z" fill="#D6C7F6"/>
<circle cx="15.7826" cy="79.7543" r="15.0717" fill="#A785EB"/>
<circle cx="15.7824" cy="79.7541" r="12.5597" fill="#F2EDFC"/>
<circle cx="15.7826" cy="79.7543" r="15.0717" fill="#F2EDFC"/>
<path d="M15.7822 64.6826C24.106 64.6826 30.8543 71.4302 30.8545 79.7539C30.8545 88.0778 24.1061 94.8262 15.7822 94.8262C7.45855 94.826 0.710938 88.0776 0.710938 79.7539C0.711144 71.4304 7.45868 64.6828 15.7822 64.6826Z" fill="#A785EB"/>
<path d="M171.522 64.6826C179.846 64.6826 186.595 71.4302 186.595 79.7539C186.595 88.0778 179.846 94.8262 171.522 94.8262C163.199 94.826 156.451 88.0776 156.451 79.7539C156.451 71.4304 163.199 64.6828 171.522 64.6826Z" fill="#A785EB"/>
<circle cx="15.7824" cy="79.7541" r="12.5597" fill="#F2EDFC"/>
<circle cx="171.523" cy="79.7541" r="12.5597" fill="#F2EDFC"/>
<path fill-rule="evenodd" clip-rule="evenodd" d="M16.6172 83.4643V80.8301C17.3381 80.8377 17.9217 81.4229 17.9217 82.143C17.9217 82.8673 17.3381 83.4568 16.6172 83.4643ZM13.6414 77.7471C13.6414 77.0111 14.2166 76.4133 14.9426 76.3589V79.1438C14.2175 79.0893 13.6414 78.4873 13.6414 77.7471ZM19.5964 82.143C19.5964 80.4994 18.2609 79.163 16.6172 79.1555V76.3488H16.9019C17.4637 76.3488 17.9209 76.8035 17.9209 77.362V77.47C17.9209 77.933 18.296 78.3073 18.7582 78.3073C19.2204 78.3073 19.5955 77.933 19.5955 77.47V77.362C19.5955 75.8799 18.3873 74.6742 16.9019 74.6742H16.6172V73.9457C16.6172 73.4827 16.2421 73.1084 15.7799 73.1084C15.3177 73.1084 14.9426 73.4827 14.9426 73.9457V74.6842C13.2931 74.7403 11.9668 76.0876 11.9668 77.748C11.9676 79.4109 13.2948 80.7623 14.9426 80.8184V83.466H14.6612C14.0994 83.466 13.6431 83.008 13.6431 82.4445C13.6431 81.9814 13.268 81.6071 12.8058 81.6071C12.3436 81.6071 11.9685 81.9814 11.9685 82.4445C11.9685 83.9307 13.1767 85.1406 14.6612 85.1406H14.9426V85.6681C14.9426 86.1303 15.3177 86.5054 15.7799 86.5054C16.2421 86.5054 16.6172 86.1303 16.6172 85.6681V85.1389C18.2609 85.1314 19.5964 83.7909 19.5964 82.143Z" fill="#0A0A0A"/>
<path fill-rule="evenodd" clip-rule="evenodd" d="M172.359 82.2082V79.574C173.08 79.5816 173.664 80.1668 173.664 80.8869C173.664 81.6112 173.08 82.2007 172.359 82.2082ZM169.384 76.491C169.384 75.755 169.959 75.1572 170.685 75.1028V77.8877C169.96 77.8332 169.384 77.2312 169.384 76.491ZM175.339 80.8869C175.339 79.2433 174.003 77.9069 172.359 77.8994V75.0927H172.644C173.206 75.0927 173.663 75.5474 173.663 76.1059V76.2139C173.663 76.6769 174.038 77.0512 174.5 77.0512C174.963 77.0512 175.338 76.6769 175.338 76.2139V76.1059C175.338 74.6238 174.129 73.4181 172.644 73.4181H172.359V72.6896C172.359 72.2266 171.984 71.8523 171.522 71.8523C171.06 71.8523 170.685 72.2266 170.685 72.6896V73.4281C169.035 73.4842 167.709 74.8315 167.709 76.4919C167.71 78.1548 169.037 79.5062 170.685 79.5623V82.2099H170.403C169.842 82.2099 169.385 81.7519 169.385 81.1884C169.385 80.7253 169.01 80.351 168.548 80.351C168.086 80.351 167.711 80.7253 167.711 81.1884C167.711 82.6746 168.919 83.8845 170.403 83.8845H170.685V84.412C170.685 84.8742 171.06 85.2493 171.522 85.2493C171.984 85.2493 172.359 84.8742 172.359 84.412V83.8828C174.003 83.8753 175.339 82.5348 175.339 80.8869Z" fill="#0A0A0A"/>
<path d="M128.82 67.1943L58.4858 67.1943L58.4858 63.4264C58.4858 61.3455 60.1728 59.6585 62.2538 59.6585L125.052 59.6585C127.133 59.6585 128.82 61.3455 128.82 63.4264L128.82 67.1943Z" fill="#F2EDFC"/>
<rect x="64.7656" y="84.7783" width="13.8157" height="2.51195" rx="1.25597" fill="#A785EB"/>
<rect x="64.7656" y="89.802" width="13.8157" height="2.51195" rx="1.25597" fill="#A785EB"/>
<rect x="64.7656" y="94.8259" width="8.79181" height="2.51195" rx="1.25597" fill="#A785EB"/>
<circle cx="120.027" cy="86.0343" r="1.25597" fill="#A785EB"/>
<line x1="84.8613" y1="120.573" x2="102.445" y2="120.573" stroke="#C2ABF1" stroke-width="1.25597"/>
<line x1="84.8613" y1="125.597" x2="97.4211" y2="125.597" stroke="#C2ABF1" stroke-width="1.25597"/>
<line x1="84.8613" y1="135.645" x2="97.4211" y2="135.645" stroke="#C2ABF1" stroke-width="1.25597"/>
<line x1="84.8613" y1="130.621" x2="102.445" y2="130.621" stroke="#C2ABF1" stroke-width="1.25597"/>
<defs>
<linearGradient id="paint0_linear_1_15037" x1="18.2949" y1="92" x2="170.268" y2="92" gradientUnits="userSpaceOnUse">
<stop offset="0.503842" stop-color="#D6C7F6"/>
<stop offset="0.504584" stop-color="#C2ABF1"/>
</linearGradient>
<linearGradient id="paint1_linear_1_15037" x1="37.1348" y1="92.942" x2="151.428" y2="92.942" gradientUnits="userSpaceOnUse">
<stop offset="0.503842" stop-color="#FEFDFE"/>
<stop offset="0.504584" stop-color="#FAEDFF"/>
</linearGradient>
</defs>
</svg>
