<svg width="274" height="262" viewBox="0 0 274 262" fill="none" xmlns="http://www.w3.org/2000/svg">
<path opacity="0.8" d="M0 57.0953C0 48.0636 7.32163 40.7419 16.3533 40.7419H257.369C266.401 40.7419 273.723 48.0636 273.723 57.0953V261.265H0V57.0953Z" fill="url(#paint0_linear_1_14939)"/>
<path d="M6.86523 58.7267C6.86523 52.5852 11.8439 47.6064 17.9855 47.6064H255.739C261.88 47.6064 266.859 52.5852 266.859 58.7267V257.832H6.86523V58.7267Z" fill="url(#paint1_linear_1_14939)"/>
<rect x="11.1543" y="142.867" width="7.85347" height="48.6915" rx="1.57069" fill="#D6C7F6"/>
<rect x="14.2949" y="135.404" width="1.57069" height="56.1523" rx="0.785347" fill="#D6C7F6"/>
<rect x="60.3906" y="131.874" width="7.85347" height="48.6915" rx="1.57069" fill="#D6C7F6"/>
<rect x="63.5312" y="124.411" width="1.57069" height="56.1523" rx="0.785347" fill="#D6C7F6"/>
<rect x="23.2617" y="127.16" width="7.85347" height="48.6915" rx="1.57069" fill="#D6C7F6"/>
<rect x="26.4023" y="119.698" width="1.57069" height="64.3985" rx="0.785347" fill="#D6C7F6"/>
<rect x="72.498" y="111.059" width="7.85347" height="48.6915" rx="1.57069" fill="#D6C7F6"/>
<rect x="75.6387" y="103.596" width="1.57069" height="64.3985" rx="0.785347" fill="#D6C7F6"/>
<rect x="72.498" y="111.059" width="7.85347" height="48.6915" rx="1.57069" fill="#D6C7F6"/>
<rect x="75.6387" y="103.596" width="1.57069" height="64.3985" rx="0.785347" fill="#D6C7F6"/>
<rect x="205.498" y="111.059" width="7.85347" height="48.6915" rx="1.57069" fill="#D6C7F6"/>
<rect x="208.639" y="103.596" width="1.57069" height="64.3985" rx="0.785347" fill="#D6C7F6"/>
<rect x="133.035" y="118.521" width="7.85347" height="48.6915" rx="1.57069" fill="#D6C7F6"/>
<rect x="136.176" y="111.058" width="1.57069" height="64.3985" rx="0.785347" fill="#D6C7F6"/>
<rect x="169.357" y="106.348" width="7.85347" height="48.6915" rx="1.57069" fill="#D6C7F6"/>
<rect x="172.5" y="98.8855" width="1.57069" height="64.3985" rx="0.785347" fill="#D6C7F6"/>
<rect x="35.3691" y="111.059" width="7.85347" height="48.6915" rx="1.57069" fill="#D6C7F6"/>
<rect x="38.5098" y="103.596" width="1.57069" height="64.3985" rx="0.785347" fill="#D6C7F6"/>
<rect x="108.82" y="92.2114" width="7.85347" height="48.6915" rx="1.57069" fill="#A785EB"/>
<rect x="111.963" y="84.7488" width="1.57069" height="64.3985" rx="0.785347" fill="#A785EB"/>
<rect x="108.82" y="92.2114" width="7.85347" height="48.6915" rx="1.57069" fill="#A785EB"/>
<rect x="111.961" y="84.7488" width="1.57069" height="64.3985" rx="0.785347" fill="#A785EB"/>
<rect x="241.82" y="92.2114" width="7.85347" height="48.6915" rx="1.57069" fill="#A785EB"/>
<rect x="244.961" y="84.7488" width="1.57069" height="64.3985" rx="0.785347" fill="#A785EB"/>
<rect x="84.6055" y="94.96" width="7.85347" height="48.6915" rx="1.57069" fill="#D6C7F6"/>
<rect x="87.7461" y="87.4978" width="1.57069" height="64.3985" rx="0.785347" fill="#D6C7F6"/>
<rect x="84.6055" y="94.96" width="7.85347" height="48.6915" rx="1.57069" fill="#D6C7F6"/>
<rect x="87.7461" y="87.4978" width="1.57069" height="64.3985" rx="0.785347" fill="#D6C7F6"/>
<rect x="217.605" y="94.96" width="7.85347" height="48.6915" rx="1.57069" fill="#D6C7F6"/>
<rect x="220.746" y="87.4978" width="1.57069" height="64.3985" rx="0.785347" fill="#D6C7F6"/>
<rect x="120.928" y="120.485" width="7.85347" height="48.6915" rx="1.57069" fill="#A785EB"/>
<rect x="124.068" y="116.557" width="1.57069" height="64.3985" rx="0.785347" fill="#A785EB"/>
<rect x="120.928" y="120.485" width="7.85347" height="48.6915" rx="1.57069" fill="#A785EB"/>
<rect x="124.068" y="116.557" width="1.57069" height="64.3985" rx="0.785347" fill="#A785EB"/>
<rect x="253.928" y="120.485" width="7.85347" height="48.6915" rx="1.57069" fill="#A785EB"/>
<rect x="257.07" y="116.557" width="1.57069" height="64.3985" rx="0.785347" fill="#A785EB"/>
<rect x="145.143" y="102.422" width="7.85347" height="48.6915" rx="1.57069" fill="#D6C7F6"/>
<rect x="148.443" y="94.8" width="1.57069" height="64.3985" rx="0.785347" fill="#D6C7F6"/>
<rect x="157.25" y="113.023" width="7.85347" height="48.6915" rx="1.57069" fill="#A785EB"/>
<rect x="160.391" y="109.094" width="1.57069" height="64.3985" rx="0.785347" fill="#A785EB"/>
<rect x="193.572" y="131.086" width="7.85347" height="48.6915" rx="1.57069" fill="#A785EB"/>
<rect x="196.715" y="127.157" width="1.57069" height="64.3985" rx="0.785347" fill="#A785EB"/>
<rect x="181.465" y="92.2114" width="7.85347" height="48.6915" rx="1.57069" fill="#D6C7F6"/>
<rect x="184.605" y="84.7488" width="1.57069" height="64.3985" rx="0.785347" fill="#D6C7F6"/>
<rect x="96.7129" y="82.395" width="7.85347" height="48.6915" rx="1.57069" fill="#D6C7F6"/>
<rect x="99.8535" y="74.9326" width="1.57069" height="64.3985" rx="0.785347" fill="#D6C7F6"/>
<rect x="96.7129" y="82.395" width="7.85347" height="48.6915" rx="1.57069" fill="#D6C7F6"/>
<rect x="99.8535" y="74.9326" width="1.57069" height="64.3985" rx="0.785347" fill="#D6C7F6"/>
<rect x="229.713" y="82.395" width="7.85347" height="48.6915" rx="1.57069" fill="#D6C7F6"/>
<rect x="232.855" y="74.9326" width="1.57069" height="64.3985" rx="0.785347" fill="#D6C7F6"/>
<rect x="48.2832" y="131.871" width="7.85347" height="48.6915" rx="1.57069" fill="#A785EB"/>
<rect x="79.7988" y="216.645" width="54.6633" height="28.1277" rx="6.36854" fill="url(#paint2_linear_1_14939)"/>
<path d="M90.7085 237.094V224.743H95.2316C96.1081 224.743 96.8338 224.888 97.4087 225.178C97.9837 225.463 98.4139 225.851 98.6993 226.342C98.9848 226.828 99.1275 227.377 99.1275 227.988C99.1275 228.503 99.033 228.937 98.8441 229.291C98.6551 229.64 98.4018 229.922 98.0842 230.135C97.7706 230.344 97.4248 230.497 97.0469 230.593V230.714C97.457 230.734 97.857 230.867 98.247 231.112C98.641 231.353 98.9667 231.697 99.224 232.143C99.4813 232.589 99.61 233.132 99.61 233.772C99.61 234.403 99.4612 234.97 99.1637 235.472C98.8702 235.971 98.4159 236.367 97.8007 236.66C97.1856 236.95 96.3996 237.094 95.4427 237.094H90.7085ZM92.572 235.496H95.2618C96.1543 235.496 96.7936 235.323 97.1796 234.978C97.5655 234.632 97.7585 234.2 97.7585 233.681C97.7585 233.291 97.66 232.933 97.463 232.608C97.266 232.282 96.9846 232.023 96.6187 231.83C96.2568 231.637 95.8266 231.54 95.3281 231.54H92.572V235.496ZM92.572 230.087H95.0688C95.4869 230.087 95.8628 230.006 96.1965 229.845C96.5343 229.685 96.8016 229.459 96.9986 229.17C97.1997 228.876 97.3002 228.531 97.3002 228.133C97.3002 227.622 97.1213 227.194 96.7634 226.848C96.4056 226.502 95.8568 226.329 95.117 226.329H92.572V230.087ZM109.763 224.743H111.632V232.867C111.632 233.731 111.429 234.497 111.023 235.165C110.617 235.828 110.046 236.351 109.311 236.733C108.575 237.111 107.712 237.3 106.723 237.3C105.738 237.3 104.878 237.111 104.142 236.733C103.406 236.351 102.835 235.828 102.429 235.165C102.023 234.497 101.82 233.731 101.82 232.867V224.743H103.684V232.716C103.684 233.275 103.806 233.772 104.052 234.206C104.301 234.64 104.653 234.982 105.107 235.231C105.561 235.476 106.1 235.599 106.723 235.599C107.351 235.599 107.891 235.476 108.346 235.231C108.804 234.982 109.154 234.64 109.395 234.206C109.64 233.772 109.763 233.275 109.763 232.716V224.743ZM113.389 224.743H115.506L118.732 230.358H118.865L122.091 224.743H124.208L119.727 232.246V237.094H117.87V232.246L113.389 224.743Z" fill="white"/>
<path d="M140.83 223.014C140.83 219.496 143.681 216.645 147.199 216.645H189.125C192.642 216.645 195.493 219.496 195.493 223.014V238.404C195.493 241.921 192.642 244.773 189.125 244.773H147.199C143.681 244.773 140.83 241.921 140.83 238.404V223.014Z" fill="url(#paint3_linear_1_14939)"/>
<path d="M158.476 227.988C158.412 227.417 158.146 226.975 157.68 226.661C157.214 226.344 156.627 226.185 155.919 226.185C155.413 226.185 154.974 226.265 154.604 226.426C154.234 226.583 153.947 226.8 153.742 227.077C153.541 227.351 153.44 227.662 153.44 228.012C153.44 228.306 153.509 228.559 153.645 228.772C153.786 228.985 153.969 229.164 154.194 229.309C154.423 229.449 154.669 229.568 154.93 229.665C155.191 229.757 155.443 229.833 155.684 229.894L156.89 230.207C157.284 230.304 157.688 230.434 158.102 230.599C158.516 230.764 158.9 230.981 159.254 231.251C159.608 231.52 159.893 231.854 160.111 232.252C160.332 232.65 160.442 233.126 160.442 233.681C160.442 234.381 160.261 235.002 159.899 235.545C159.542 236.087 159.021 236.516 158.337 236.829C157.658 237.143 156.836 237.3 155.871 237.3C154.946 237.3 154.146 237.153 153.471 236.859C152.795 236.566 152.266 236.15 151.884 235.611C151.503 235.068 151.291 234.425 151.251 233.681H153.121C153.157 234.127 153.302 234.499 153.555 234.797C153.812 235.09 154.14 235.309 154.538 235.454C154.94 235.595 155.38 235.665 155.859 235.665C156.385 235.665 156.854 235.583 157.264 235.418C157.678 235.249 158.004 235.016 158.241 234.718C158.478 234.417 158.597 234.065 158.597 233.663C158.597 233.297 158.492 232.998 158.283 232.764C158.078 232.531 157.799 232.338 157.445 232.185C157.095 232.033 156.699 231.898 156.257 231.781L154.797 231.383C153.808 231.114 153.024 230.718 152.445 230.195C151.87 229.673 151.583 228.981 151.583 228.121C151.583 227.409 151.776 226.788 152.162 226.257C152.548 225.726 153.071 225.314 153.73 225.021C154.389 224.723 155.133 224.575 155.961 224.575C156.798 224.575 157.535 224.721 158.175 225.015C158.818 225.308 159.324 225.712 159.694 226.227C160.064 226.738 160.257 227.325 160.273 227.988H158.476ZM162.669 237.094V224.743H170.413V226.348H164.533V230.111H170.009V231.709H164.533V235.49H170.485V237.094H162.669ZM172.902 237.094V224.743H174.765V235.49H180.362V237.094H172.902ZM182.488 237.094V224.743H184.351V235.49H189.948V237.094H182.488Z" fill="white"/>
<g filter="url(#filter0_f_1_14939)">
<ellipse cx="138.147" cy="45.461" rx="53.2" ry="23.5968" fill="white"/>
</g>
<path d="M136.86 15C120.106 15 106.398 28.7076 106.398 45.4613C106.398 62.215 120.106 75.9226 136.86 75.9226C153.613 75.9226 167.321 62.215 167.321 45.4613C167.321 28.7076 153.613 15 136.86 15ZM136.86 71.0678C122.771 71.0678 111.253 59.5496 111.253 45.4613C111.253 31.3729 122.676 19.8548 136.86 19.8548C151.043 19.8548 162.466 31.3729 162.466 45.4613C162.466 59.5496 150.948 71.0678 136.86 71.0678Z" fill="#7B49E1"/>
<path d="M136.859 21.7585C123.818 21.7585 113.156 32.42 113.156 45.4612C113.156 58.5977 123.818 69.1639 136.859 69.1639C149.9 69.1639 160.562 58.5977 160.562 45.4612C160.562 32.42 149.9 21.7585 136.859 21.7585ZM117.154 46.4132H115.25C114.775 46.4132 114.299 46.0324 114.299 45.4612C114.299 44.9853 114.679 44.5093 115.25 44.5093H117.154C117.63 44.5093 118.106 44.8901 118.106 45.4612C118.011 45.9372 117.63 46.4132 117.154 46.4132ZM135.907 23.7576C135.907 23.2816 136.288 22.8057 136.859 22.8057C137.335 22.8057 137.811 23.1864 137.811 23.7576V25.6614C137.811 26.1374 137.43 26.6133 136.859 26.6133C136.383 26.6133 135.907 26.2325 135.907 25.6614V23.7576ZM123.532 60.1207L122.199 61.4534C122.009 61.6438 121.819 61.739 121.533 61.739C121.248 61.739 121.057 61.6438 120.867 61.4534C120.486 61.0726 120.486 60.5015 120.867 60.1207L122.199 58.7881C122.58 58.4073 123.151 58.4073 123.532 58.7881C123.913 59.1688 123.913 59.74 123.532 60.1207ZM123.532 32.1344C123.342 32.3248 123.151 32.42 122.866 32.42C122.58 32.42 122.39 32.3248 122.199 32.1344L120.867 30.8017C120.486 30.421 120.486 29.8498 120.867 29.4691C121.248 29.0883 121.819 29.0883 122.199 29.4691L123.532 30.8017C123.913 31.1825 123.913 31.7537 123.532 32.1344ZM137.811 67.1649C137.811 67.6409 137.43 68.1168 136.859 68.1168C136.383 68.1168 135.907 67.7361 135.907 67.1649V65.2611C135.907 64.7851 136.288 64.3092 136.859 64.3092C137.335 64.3092 137.811 64.6899 137.811 65.2611V67.1649ZM147.14 46.4132H139.905C139.524 47.7458 138.287 48.6977 136.859 48.6977C135.05 48.6977 133.622 47.2699 133.622 45.4612C133.622 44.0334 134.574 42.7959 135.907 42.4151V30.6114C135.907 30.1354 136.288 29.6594 136.859 29.6594C137.335 29.6594 137.811 30.0402 137.811 30.6114V42.4151C138.858 42.7007 139.619 43.5574 139.905 44.5093H147.14C147.616 44.5093 148.092 44.8901 148.092 45.4612C148.092 45.9372 147.616 46.4132 147.14 46.4132ZM152.851 61.4534C152.661 61.6438 152.47 61.739 152.185 61.739C151.994 61.739 151.709 61.6438 151.518 61.4534L150.186 60.1207C149.805 59.74 149.805 59.1688 150.186 58.7881C150.567 58.4073 151.138 58.4073 151.518 58.7881L152.851 60.1207C153.232 60.5015 153.232 61.0726 152.851 61.4534ZM152.851 30.8017L151.423 32.1344C151.233 32.3248 151.042 32.42 150.757 32.42C150.471 32.42 150.281 32.3248 150.091 32.1344C149.71 31.7537 149.71 31.1825 150.091 30.8017L151.423 29.4691C151.804 29.0883 152.375 29.0883 152.756 29.4691C153.232 29.8498 153.232 30.421 152.851 30.8017ZM158.563 46.4132H156.659C156.183 46.4132 155.707 46.0324 155.707 45.4612C155.707 44.9853 156.088 44.5093 156.659 44.5093H158.563C159.039 44.5093 159.515 44.8901 159.515 45.4612C159.419 45.9372 159.039 46.4132 158.563 46.4132Z" fill="#C2ABF1"/>
<path d="M136.86 44.1284C136.098 44.1284 135.527 44.6996 135.527 45.4611C135.527 46.2226 136.098 46.7938 136.86 46.7938C137.622 46.7938 138.193 46.2226 138.193 45.4611C138.193 44.6996 137.622 44.1284 136.86 44.1284Z" fill="#7B49E1"/>
<defs>
<filter id="filter0_f_1_14939" x="38.8177" y="-24.2653" width="198.659" height="139.453" filterUnits="userSpaceOnUse" color-interpolation-filters="sRGB">
<feFlood flood-opacity="0" result="BackgroundImageFix"/>
<feBlend mode="normal" in="SourceGraphic" in2="BackgroundImageFix" result="shape"/>
<feGaussianBlur stdDeviation="23.0648" result="effect1_foregroundBlur_1_14939"/>
</filter>
<linearGradient id="paint0_linear_1_14939" x1="136.861" y1="40.7419" x2="136.861" y2="261.265" gradientUnits="userSpaceOnUse">
<stop stop-color="#C2ABF1"/>
<stop offset="1" stop-color="#C2ABF1" stop-opacity="0.1"/>
</linearGradient>
<linearGradient id="paint1_linear_1_14939" x1="136.862" y1="47.6064" x2="136.862" y2="253.974" gradientUnits="userSpaceOnUse">
<stop stop-color="#FCF5FF"/>
<stop offset="1" stop-color="#FCF5FF" stop-opacity="0"/>
</linearGradient>
<linearGradient id="paint2_linear_1_14939" x1="107.13" y1="216.645" x2="107.13" y2="244.773" gradientUnits="userSpaceOnUse">
<stop stop-color="#956DE7"/>
<stop offset="1" stop-color="#D6C7F6"/>
</linearGradient>
<linearGradient id="paint3_linear_1_14939" x1="168.162" y1="216.645" x2="168.162" y2="244.773" gradientUnits="userSpaceOnUse">
<stop stop-color="#956DE7"/>
<stop offset="1" stop-color="#D6C7F6"/>
</linearGradient>
</defs>
</svg>
