<svg width="40" height="40" viewBox="0 0 40 40" fill="none" xmlns="http://www.w3.org/2000/svg">
<path fill-rule="evenodd" clip-rule="evenodd" d="M10.998 6.46094C8.2663 6.46094 6.04297 8.68427 6.04297 11.4176C6.04297 13.7159 7.62297 15.6359 9.74797 16.1943V32.2877C9.74797 32.9777 10.308 33.5377 10.998 33.5377C11.688 33.5377 12.248 32.9777 12.248 32.2877V16.1943C14.373 15.6359 15.953 13.7159 15.953 11.4176C15.953 8.68427 13.7296 6.46094 10.998 6.46094Z" fill="#7B49E1"/>
<path fill-rule="evenodd" clip-rule="evenodd" d="M30.2534 23.1844V14.6976C30.2534 12.2243 28.2401 10.2109 25.7667 10.2109H21.0117C20.3217 10.2109 19.7617 10.7709 19.7617 11.4609C19.7617 12.1509 20.3217 12.7109 21.0117 12.7109H25.7667C26.8617 12.7109 27.7534 13.6026 27.7534 14.6976V23.1844C25.6284 23.7427 24.0484 25.661 24.0484 27.9594C24.0484 30.6927 26.2717 32.916 29.0034 32.916C31.7351 32.916 33.9584 30.6927 33.9584 27.9594C33.9584 25.661 32.3784 23.7427 30.2534 23.1844Z" fill="#7B49E1"/>
</svg>
