<svg width="40" height="40" viewBox="0 0 40 40" fill="none" xmlns="http://www.w3.org/2000/svg">
<path fill-rule="evenodd" clip-rule="evenodd" d="M10.3624 13.3635C10.1367 13.442 9.90836 13.2613 9.94055 13.0245C10.0709 12.0659 10.3349 11.1616 10.7201 10.2888C11.5201 8.48043 12.7351 7.00876 14.3601 5.8871C17.8218 3.5021 22.2651 3.43043 25.7651 5.56043C28.9258 7.4858 30.3841 10.6384 30.6723 13.0188C30.7011 13.2569 30.466 13.4305 30.2408 13.348C29.3383 13.0175 28.4451 12.7151 27.4801 12.5688C26.5068 12.4204 25.5285 12.3788 24.5418 12.4621C23.3068 12.5688 22.1185 12.8504 20.9635 13.2954C20.8018 13.3588 20.6418 13.4288 20.4835 13.5021C20.3701 13.5554 20.2668 13.5571 20.1501 13.5038C19.3851 13.1604 18.5935 12.8888 17.7718 12.7204C17.2735 12.6188 16.7685 12.5504 16.2634 12.4838C15.6934 12.4071 15.1168 12.4004 14.5418 12.4304C13.9234 12.4604 13.3101 12.5304 12.7018 12.6504C11.8876 12.8108 11.1337 13.0951 10.3624 13.3635Z" fill="#7B49E1"/>
<path fill-rule="evenodd" clip-rule="evenodd" d="M7.64977 17.6316C7.8241 17.4654 8.1046 17.5506 8.17017 17.7822C8.23722 18.0192 8.30448 18.2516 8.38175 18.4804C9.18008 20.8637 10.5818 22.8254 12.5401 24.3921C12.6818 24.5054 12.8717 24.5954 12.9468 24.7421C13.0184 24.8821 12.9684 25.0837 12.9734 25.2571C13.0484 27.9487 13.8834 30.3787 15.4984 32.5354C16.1082 33.3494 16.8376 33.9827 17.5654 34.6569C17.7481 34.8262 17.6824 35.1246 17.4418 35.1887C13.9949 36.1059 8.80202 35.0026 6.03508 30.3071C3.27735 25.6241 4.76855 20.3774 7.64977 17.6316Z" fill="#7B49E1"/>
<path fill-rule="evenodd" clip-rule="evenodd" d="M32.451 17.7635C32.5147 17.5356 32.7897 17.4565 32.9612 17.6195C35.7198 20.2436 37.1543 25.0665 35.0095 29.519C32.6782 34.3633 27.4795 36.241 23.2132 35.2016C22.9622 35.1405 22.8927 34.8271 23.0847 34.6545C23.8012 34.0103 24.4962 33.3691 25.0878 32.5873C26.0128 31.3706 26.6978 30.0323 27.1328 28.5656C27.4862 27.3706 27.6645 26.1523 27.6445 24.9056C27.6428 24.7623 27.6962 24.6806 27.8045 24.6006C28.6228 23.9973 29.3545 23.3023 30.0028 22.519C30.9912 21.324 31.7378 19.9923 32.2295 18.5206C32.314 18.2683 32.3792 18.0203 32.451 17.7635Z" fill="#7B49E1"/>
<path fill-rule="evenodd" clip-rule="evenodd" d="M20.3007 24.9983C18.574 24.9866 16.9457 24.5849 15.4191 23.7766C15.1557 23.6366 15.1557 23.6949 15.2107 23.3566C15.5041 21.5399 16.2207 19.9049 17.3707 18.4649C18.1474 17.4949 19.0674 16.6899 20.1257 16.0399C20.2607 15.9583 20.3607 15.9533 20.5007 16.0383C22.454 17.2499 23.8807 18.9083 24.764 21.0333C25.069 21.7683 25.2757 22.5299 25.4074 23.3149C25.4157 23.3649 25.414 23.4166 25.4274 23.4666C25.464 23.6033 25.4057 23.6783 25.2857 23.7416C24.6274 24.0883 23.9457 24.3766 23.229 24.5833C22.274 24.8566 21.2974 25.0016 20.3007 24.9983Z" fill="#7B49E1"/>
<path fill-rule="evenodd" clip-rule="evenodd" d="M15.1824 26.5098C15.1511 26.2651 15.3998 26.0906 15.6297 26.18C18.7605 27.3963 21.8665 27.397 24.9945 26.183C25.2253 26.0935 25.4752 26.2695 25.4448 26.5151C25.2127 28.3981 24.3323 30.2326 23.1363 31.6776C22.3747 32.5976 21.4763 33.3643 20.4513 33.986C20.3347 34.056 20.2547 34.0293 20.153 33.9693C19.3197 33.466 18.568 32.8593 17.903 32.1493C16.8763 31.0493 16.118 29.7876 15.6297 28.3626C15.425 27.7648 15.2629 27.1403 15.1824 26.5098Z" fill="#7B49E1"/>
<path fill-rule="evenodd" clip-rule="evenodd" d="M27.7408 21.8935C27.5696 22.0587 27.2908 21.9799 27.2192 21.753C27.0883 21.3394 26.9603 20.9335 26.819 20.5329C26.624 19.9762 26.3656 19.4462 26.079 18.9312C25.7973 18.4212 25.494 17.9229 25.1273 17.4695C24.7573 17.0129 24.379 16.5579 23.969 16.1379C23.6997 15.8629 23.4105 15.6068 23.1118 15.3437C22.9116 15.1672 22.993 14.843 23.2543 14.7885C24.4425 14.5408 25.6368 14.4366 26.8607 14.5945C28.1507 14.7612 29.3706 15.1495 30.5156 15.7679C30.689 15.8612 30.694 15.8629 30.6673 16.0545C30.564 16.8212 30.364 17.5645 30.084 18.2862C29.5688 19.6155 28.7756 20.895 27.7408 21.8935Z" fill="#7B49E1"/>
<path fill-rule="evenodd" clip-rule="evenodd" d="M17.4179 14.7858C17.6736 14.8428 17.7289 15.1607 17.5287 15.3297C15.4931 17.0487 14.1217 19.1657 13.4102 21.7359C13.3452 21.9707 13.0622 22.0676 12.8843 21.9009C12.1124 21.1781 11.489 20.2502 11.01 19.3289C10.4983 18.3472 10.1616 17.3089 9.97329 16.2189C9.91163 15.8656 9.91163 15.8656 10.2316 15.7006C11.2016 15.1989 12.2216 14.8456 13.2983 14.6639C14.38 14.4789 15.47 14.4473 16.5566 14.6289C16.8384 14.6763 17.1314 14.722 17.4179 14.7858Z" fill="#7B49E1"/>
</svg>
