<svg width="57" height="56" viewBox="0 0 57 56" fill="none" xmlns="http://www.w3.org/2000/svg">
<rect x="0.666504" width="56" height="56" rx="28" fill="#FAFAFA"/>
<rect x="1.05539" y="0.388889" width="55.2222" height="55.2222" rx="27.6111" stroke="black" stroke-opacity="0.05" stroke-width="0.777778"/>
<path d="M18.0601 25.1306H18.8076V27.2231C19.1113 26.7764 19.5318 26.5413 20.0223 26.5413C20.6998 26.5413 21.0969 26.9174 21.0969 27.6698V30.2325H20.3494V27.8814C20.3494 27.3642 20.1625 27.2231 19.7887 27.2231C19.5551 27.2231 19.3449 27.3642 19.1346 27.6228C18.9244 27.9049 18.8309 28.2576 18.8309 28.7043V30.2325H18.0834L18.0601 25.1306Z" fill="#3A3938"/>
<path d="M24.8341 28.6103H22.2878C22.2878 29.1746 22.6149 29.6213 23.1755 29.6213C23.5726 29.6213 23.9464 29.3862 24.1099 29.01L24.7406 29.2686C24.3669 29.9739 23.9464 30.2796 23.1521 30.2796C21.9608 30.2796 21.4702 29.2686 21.4702 28.3987C21.4702 27.5288 21.9608 26.5178 23.1521 26.5178C24.2968 26.5178 24.8107 27.4583 24.8107 28.2811V28.6103H24.8341ZM22.3112 27.999H24.0632C23.9931 27.5523 23.6894 27.1996 23.1989 27.1996C22.7083 27.1996 22.4046 27.5288 22.3112 27.999Z" fill="#3A3938"/>
<path d="M30.6744 26.5412C30.8612 26.5412 31.0248 26.5882 31.235 26.6823C31.4219 26.7763 31.562 26.8704 31.6555 26.9879V25.1071H32.403V30.2089H31.6555V29.7857C31.5153 30.0208 31.1182 30.2559 30.6744 30.2559C29.6231 30.2559 29.0625 29.5741 29.0625 28.3751C29.0625 27.2465 29.6231 26.5412 30.6744 26.5412ZM29.8334 28.3986C29.8334 28.7748 29.9268 29.0569 30.0903 29.292C30.2539 29.5036 30.4875 29.6211 30.7444 29.6211C31.0248 29.6211 31.235 29.5036 31.3985 29.292C31.562 29.0804 31.6555 28.7748 31.6555 28.3986C31.6555 28.0224 31.562 27.7403 31.3985 27.5287C31.235 27.3171 31.0014 27.1995 30.7444 27.1995C30.4641 27.1995 30.2539 27.3171 30.0903 27.5287C29.9268 27.7403 29.8334 28.0459 29.8334 28.3986Z" fill="#3A3938"/>
<path d="M35.2297 27.1054L34.7625 27.5286C34.599 27.317 34.3887 27.1994 34.1317 27.1994C33.9215 27.1994 33.7813 27.3405 33.7813 27.5521C33.7813 27.6226 33.8047 27.7167 33.8748 27.7637C33.9916 27.8813 34.1084 27.9518 34.4354 28.0693C34.6924 28.1634 34.7858 28.2104 34.9961 28.328C35.2764 28.4925 35.4166 28.7277 35.4399 29.1038C35.4399 29.433 35.3231 29.6916 35.0895 29.9267C34.8559 30.1383 34.5522 30.2559 34.1785 30.2559C33.501 30.2559 33.0105 29.8092 32.7769 29.2919L33.4076 28.9393C33.5945 29.386 33.8748 29.5976 34.2018 29.5976C34.5289 29.5976 34.6924 29.433 34.6924 29.1273C34.6924 29.0098 34.6457 28.9157 34.5055 28.8452C34.4354 28.7982 34.3887 28.7747 34.3186 28.7512C34.2018 28.7041 33.9449 28.6101 33.8281 28.5631C33.3141 28.3515 33.0572 28.0223 33.0572 27.5756C33.0572 27.2935 33.174 27.0349 33.3609 26.8468C33.5711 26.6352 33.8281 26.5411 34.1551 26.5411C34.599 26.5411 34.9961 26.7527 35.2297 27.1054Z" fill="#3A3938"/>
<path d="M37.6125 30.2794C37.192 30.2794 36.8183 30.0678 36.6548 29.8092V31.69H35.9072V26.5882H36.6548V27.0114C36.7949 26.7762 37.192 26.5411 37.6359 26.5411C38.6871 26.5411 39.2477 27.223 39.2477 28.422C39.2244 29.5505 38.6637 30.2794 37.6125 30.2794ZM38.4535 28.3985C38.4535 28.0223 38.36 27.7402 38.1965 27.5286C38.033 27.317 37.7994 27.1994 37.5424 27.1994C37.2621 27.1994 37.0519 27.317 36.8884 27.5286C36.7248 27.7402 36.6314 28.0458 36.6314 28.3985C36.6314 28.7747 36.7248 29.0568 36.8884 29.2919C37.0519 29.5035 37.2855 29.6211 37.5424 29.6211C37.8228 29.6211 38.033 29.5035 38.1965 29.2919C38.36 29.0803 38.4535 28.7747 38.4535 28.3985Z" fill="#3A3938"/>
<path d="M46.5829 29.2686C46.2792 29.9269 45.7653 30.2796 45.0178 30.2796C44.4805 30.2796 44.06 30.0915 43.7563 29.7388C43.4527 29.3862 43.3125 28.9394 43.3125 28.3987C43.3125 27.8579 43.4527 27.4112 43.7563 27.0586C44.06 26.7059 44.4805 26.5178 45.0178 26.5178C45.7653 26.5178 46.2792 26.847 46.5829 27.5288L45.9288 27.8109C45.742 27.3877 45.4383 27.1761 45.0412 27.1761C44.4338 27.1761 44.1301 27.6699 44.1301 28.3752C44.1301 29.104 44.4338 29.5742 45.0412 29.5742C45.4383 29.5742 45.742 29.3626 45.9288 28.9394L46.5829 29.2686Z" fill="#3A3938"/>
<path d="M50.1803 28.6103H47.634C47.634 29.1746 47.9611 29.6213 48.5217 29.6213C48.9188 29.6213 49.2926 29.3862 49.4561 29.01L50.0868 29.2686C49.7131 29.9739 49.2926 30.2796 48.4983 30.2796C47.307 30.2796 46.8164 29.2686 46.8164 28.3987C46.8164 27.5288 47.307 26.5178 48.4983 26.5178C49.643 26.5178 50.1569 27.4583 50.1569 28.2811V28.6103H50.1803ZM47.6574 27.999H49.4094C49.3393 27.5523 49.0356 27.1996 48.5451 27.1996C48.0545 27.1996 47.7275 27.5288 47.6574 27.999Z" fill="#3A3938"/>
<path d="M26.8899 26.5411C27.0768 26.5411 27.2403 26.5882 27.4505 26.6822C27.6374 26.7762 27.7776 26.8703 27.871 26.9878V26.5882H28.6186V30.2323H27.9878L27.871 29.8092C27.7309 30.0443 27.3337 30.2794 26.8899 30.2794C25.8387 30.2794 25.278 29.5976 25.278 28.3985C25.2547 27.27 25.8153 26.5411 26.8899 26.5411ZM26.0489 28.422C26.0489 28.7982 26.1424 29.0803 26.3059 29.3154C26.4694 29.527 26.703 29.6446 26.96 29.6446C27.2403 29.6446 27.4505 29.527 27.6141 29.3154C27.7776 29.1038 27.871 28.7982 27.871 28.422C27.871 28.0458 27.7776 27.7637 27.6141 27.5521C27.4505 27.3405 27.2169 27.223 26.96 27.223C26.6797 27.223 26.4694 27.3405 26.3059 27.5521C26.1424 27.7402 26.0489 28.0458 26.0489 28.422Z" fill="#3A3938"/>
<path d="M41.2097 26.5411C41.3966 26.5411 41.5601 26.5882 41.7704 26.6822C41.9572 26.7762 42.0974 26.8703 42.1909 26.9878V26.5882H42.9384V30.2323H42.3077L42.1909 29.8092C42.0507 30.0443 41.6536 30.2794 41.2097 30.2794C40.1585 30.2794 39.5979 29.5976 39.5979 28.3985C39.5745 27.27 40.1352 26.5411 41.2097 26.5411ZM40.3688 28.422C40.3688 28.7982 40.4622 29.0803 40.6257 29.3154C40.7892 29.527 41.0228 29.6446 41.2798 29.6446C41.5601 29.6446 41.7704 29.527 41.9339 29.3154C42.0974 29.1038 42.1909 28.7982 42.1909 28.422C42.1909 28.0458 42.0974 27.7637 41.9339 27.5521C41.7704 27.3405 41.5368 27.223 41.2798 27.223C40.9995 27.223 40.7892 27.3405 40.6257 27.5521C40.4388 27.7402 40.3688 28.0458 40.3688 28.422Z" fill="#3A3938"/>
<path d="M15.7472 27.9519C15.864 29.5037 15.1398 30.3736 14.7193 30.9848C14.0652 31.6902 13.2009 32.6541 11.0751 32.7011C9.25303 32.7717 8.36534 31.9723 7.61782 31.267C6.63669 30.1855 6.37973 29.5272 6.33301 27.9519C6.33301 26.9645 6.70677 26.0005 7.36086 25.1306C8.2719 23.8375 9.72024 23.3908 11.0751 23.2968C12.4767 23.2498 13.598 23.9551 14.3689 24.7309C15.35 25.7889 15.6537 26.6824 15.7472 27.9519Z" fill="#FF7E1D"/>
<path d="M50.951 26.6823C50.9276 26.6588 50.9043 26.6353 50.8809 26.6117C50.8576 26.5882 50.8108 26.5647 50.7875 26.5647C50.694 26.5412 50.5772 26.5412 50.4838 26.6117C50.4604 26.6353 50.4371 26.6588 50.4137 26.6823C50.3904 26.7058 50.3904 26.7528 50.367 26.7763C50.3436 26.8704 50.3436 26.9879 50.4137 27.0584C50.4371 27.082 50.4604 27.1055 50.4838 27.129C50.5072 27.1525 50.5539 27.176 50.5772 27.176C50.6006 27.176 50.6473 27.1995 50.6707 27.1995C50.7408 27.1995 50.8108 27.176 50.8576 27.129C50.8809 27.1055 50.9043 27.082 50.9276 27.0584C50.951 27.0349 50.951 26.9879 50.9744 26.9644C51.0211 26.8704 50.9977 26.7528 50.951 26.6823ZM50.8809 27.0349C50.8576 27.0584 50.8342 27.082 50.8342 27.1055C50.8108 27.129 50.7875 27.129 50.7641 27.1525C50.6707 27.176 50.6006 27.176 50.5305 27.1055C50.5072 27.082 50.4838 27.0584 50.4838 27.0349C50.4604 27.0114 50.4604 26.9879 50.4371 26.9644C50.4371 26.9409 50.4137 26.9174 50.4137 26.8704C50.4137 26.8233 50.4371 26.7528 50.4604 26.7058C50.4838 26.6823 50.5072 26.6588 50.5305 26.6353C50.5539 26.6117 50.5772 26.6117 50.6006 26.5882C50.694 26.5647 50.7641 26.5647 50.8342 26.6353C50.8576 26.6588 50.8809 26.6823 50.8809 26.7058C50.9043 26.7293 50.9043 26.7528 50.9276 26.7763C50.951 26.8704 50.9276 26.9644 50.8809 27.0349Z" fill="#3A3938"/>
<path d="M50.7172 26.894C50.7406 26.894 50.764 26.894 50.7873 26.8705C50.834 26.8234 50.834 26.7529 50.8107 26.7294C50.764 26.6824 50.7406 26.6824 50.6939 26.6824H50.5537V27.0585H50.6004V26.894H50.6705L50.764 27.0585H50.834L50.7172 26.894ZM50.6705 26.8469H50.6004V26.7294C50.6472 26.7294 50.6939 26.7294 50.7406 26.7294C50.764 26.7529 50.764 26.7764 50.764 26.7999C50.764 26.8234 50.7406 26.8234 50.7172 26.8234C50.6939 26.8469 50.6939 26.8469 50.6705 26.8469Z" fill="#3A3938"/>
</svg>
