<svg width="57" height="56" viewBox="0 0 57 56" fill="none" xmlns="http://www.w3.org/2000/svg">
<rect x="0.333496" width="56" height="56" rx="28" fill="#FAFAFA"/>
<rect x="0.722385" y="0.388889" width="55.2222" height="55.2222" rx="27.6111" stroke="black" stroke-opacity="0.05" stroke-width="0.777778"/>
<path d="M15.5813 24.5372H16.6795V27.4354L19.6082 24.5372H21.0725L18.4489 27.0693L21.1946 31.3403H19.7302L17.5947 27.893L16.649 28.8082V31.3708H15.5508L15.5813 24.5372Z" fill="#5841D8"/>
<path d="M21.8052 24.5372H22.9034V25.727C22.9949 25.5134 23.2085 25.2083 23.5441 24.9033C23.8796 24.5677 24.2762 24.4152 24.7338 24.4152C24.7643 24.4152 24.7949 24.4152 24.8559 24.4152C24.9169 24.4152 25.0084 24.4152 25.1304 24.4457V25.6659C25.0694 25.6659 25.0084 25.6354 24.9474 25.6354C24.8864 25.6354 24.8254 25.6354 24.7643 25.6354C24.1847 25.6354 23.7576 25.8185 23.4525 26.1846C23.1475 26.5506 22.9949 26.9777 22.9949 27.4659V31.3707H21.8357L21.8052 24.5372Z" fill="#5841D8"/>
<path d="M29.3707 27.2219C29.6452 27.1914 29.7978 27.0694 29.8893 26.8863C29.9503 26.7948 29.9503 26.6423 29.9503 26.4592C29.9503 26.0626 29.7978 25.7881 29.5232 25.605C29.2487 25.422 28.8521 25.3305 28.3335 25.3305C27.7233 25.3305 27.3267 25.483 27.0522 25.8186C26.8996 26.0016 26.8081 26.2762 26.7776 26.6118H25.7099C25.7404 25.7576 26.0149 25.1779 26.5335 24.8729C27.0827 24.5373 27.6623 24.3848 28.364 24.3848C29.1571 24.3848 29.7978 24.5373 30.3164 24.8424C30.8045 25.1474 31.0486 25.6355 31.0486 26.2762V30.1811C31.0486 30.3031 31.0791 30.3946 31.1096 30.4556C31.1706 30.5167 31.2621 30.5777 31.4147 30.5777C31.4757 30.5777 31.5367 30.5777 31.5977 30.5777C31.6587 30.5777 31.7197 30.5472 31.8112 30.5472V31.4014C31.6282 31.4624 31.5062 31.4929 31.4147 31.4929C31.3231 31.4929 31.2011 31.5234 31.0486 31.5234C30.652 31.5234 30.3774 31.3709 30.1944 31.0963C30.1029 30.9438 30.0418 30.7302 30.0113 30.4556C29.7673 30.7607 29.4317 31.0353 29.0046 31.2488C28.5775 31.4624 28.0894 31.5844 27.5708 31.5844C26.9301 31.5844 26.4115 31.4014 26.0149 31.0048C25.6183 30.6082 25.4048 30.1506 25.4048 29.5709C25.4048 28.9303 25.5878 28.4422 25.9844 28.1066C26.381 27.771 26.8996 27.5575 27.5403 27.466L29.3707 27.2219ZM26.9606 30.3031C27.2047 30.4862 27.4793 30.5777 27.8148 30.5777C28.2114 30.5777 28.608 30.4862 28.9741 30.3031C29.6147 29.998 29.9198 29.4794 29.9198 28.7778V27.8626C29.7673 27.9541 29.6147 28.0151 29.3707 28.0761C29.1266 28.1371 28.9436 28.1676 28.73 28.1981L28.0589 28.3507C27.6318 28.4117 27.3267 28.5032 27.1132 28.6252C26.7471 28.8388 26.5946 29.1438 26.5946 29.5709C26.5946 29.876 26.7166 30.1201 26.9606 30.3031Z" fill="#5841D8"/>
<path d="M32.5735 24.5372H33.6717V27.4354L36.6004 24.5372H38.0647L35.4411 27.0693L38.1868 31.3403H36.7224L34.5869 27.893L33.6412 28.8082V31.3708H32.543L32.5735 24.5372Z" fill="#5841D8"/>
<path d="M42.8548 24.7509C43.3125 24.9645 43.648 25.2695 43.8921 25.6356C44.1056 25.9712 44.2582 26.3678 44.3497 26.8254C44.4107 27.1305 44.4412 27.6491 44.4412 28.3202H39.4991C39.5296 29.0219 39.6821 29.571 39.9872 29.9981C40.2923 30.4252 40.7499 30.6388 41.3905 30.6388C41.9701 30.6388 42.4583 30.4557 42.7938 30.0591C42.9769 29.8151 43.1294 29.571 43.2209 29.2659H44.3497C44.3192 29.51 44.2277 29.7846 44.0446 30.0896C43.8921 30.3947 43.6785 30.6388 43.4955 30.8523C43.1599 31.1879 42.7328 31.4319 42.2142 31.5235C41.9396 31.5845 41.6346 31.615 41.299 31.615C40.4448 31.615 39.7431 31.3099 39.1635 30.6998C38.5839 30.0896 38.2788 29.2354 38.2788 28.1372C38.2788 27.0389 38.5839 26.1542 39.1635 25.4831C39.7431 24.8119 40.5363 24.4458 41.482 24.4458C41.9396 24.3848 42.3972 24.5069 42.8548 24.7509ZM43.2819 27.405C43.2209 26.9169 43.1294 26.5203 42.9464 26.2152C42.6413 25.6661 42.1227 25.3916 41.3905 25.3916C40.8719 25.3916 40.4448 25.5746 40.0787 25.9712C39.7126 26.3373 39.5296 26.8254 39.5296 27.405H43.2819Z" fill="#5841D8"/>
<path d="M45.4478 24.5373H46.546V25.5135C46.8816 25.1169 47.2172 24.8424 47.5832 24.6593C47.9493 24.4763 48.3459 24.3848 48.773 24.3848C49.7492 24.3848 50.3899 24.7203 50.7255 25.3915C50.9085 25.7576 51 26.2762 51 26.9779V31.3403H49.8408V27.0694C49.8408 26.6423 49.7797 26.3067 49.6577 26.0626C49.4442 25.6355 49.0781 25.422 48.5595 25.422C48.2849 25.422 48.0713 25.4525 47.8883 25.5135C47.5832 25.605 47.3087 25.7881 47.0646 26.0626C46.8816 26.2762 46.7596 26.5203 46.6985 26.7643C46.6375 27.0084 46.607 27.3439 46.607 27.8015V31.3709H45.4783L45.4478 24.5373Z" fill="#5841D8"/>
<path d="M9.99849 24.5372C7.61895 24.5372 5.6665 26.4592 5.6665 28.8692V30.7301C5.6665 31.0657 5.94107 31.3403 6.27664 31.3403C6.61222 31.3403 6.88678 31.0657 6.88678 30.7301V28.8692C6.88678 28.5336 7.16134 28.2591 7.49692 28.2591C7.8325 28.2591 8.10706 28.5336 8.10706 28.8692V30.7301C8.10706 31.0657 8.38162 31.3403 8.7172 31.3403C9.05277 31.3403 9.32734 31.0657 9.32734 30.7301V28.8692C9.32734 28.5336 9.6019 28.2591 9.93747 28.2591C10.2731 28.2591 10.5476 28.5336 10.5476 28.8692V30.7301C10.5476 31.0657 10.8222 31.3403 11.1578 31.3403C11.4933 31.3403 11.7679 31.0657 11.7679 30.7301V28.8692C11.7679 28.5336 12.0425 28.2591 12.378 28.2591C12.7136 28.2591 12.9882 28.5336 12.9882 28.8692V30.7301C12.9882 31.0657 13.2627 31.3403 13.5983 31.3403C13.9339 31.3403 14.2084 31.0657 14.2084 30.7301V28.8692C14.361 26.4592 12.4085 24.5372 9.99849 24.5372Z" fill="#5841D8"/>
</svg>
