<svg width="56" height="56" viewBox="0 0 56 56" fill="none" xmlns="http://www.w3.org/2000/svg">
<rect width="56" height="56" rx="28" fill="#FAFAFA"/>
<rect x="0.388889" y="0.388889" width="55.2222" height="55.2222" rx="27.6111" stroke="black" stroke-opacity="0.05" stroke-width="0.777778"/>
<path d="M14.5175 29.0915C14.1709 28.8782 13.771 28.8249 13.3711 28.8249C13.0512 28.8249 12.5447 28.6116 12.5447 27.9985C12.5447 27.7852 12.6247 27.5719 12.7847 27.412C12.9446 27.252 13.1579 27.1721 13.3711 27.1721C13.771 27.1454 14.1709 27.0921 14.5175 26.9055C14.8374 26.7189 15.104 26.4523 15.2906 26.1324C15.4772 25.8125 15.5572 25.4659 15.5572 25.0927C15.5572 24.7195 15.4505 24.3729 15.2906 24.053C15.104 23.7331 14.8374 23.4665 14.5175 23.2799C14.1976 23.0933 13.851 23.0133 13.4778 23.0133C13.1046 23.0133 12.758 23.1199 12.4381 23.2799C12.1182 23.4665 11.8516 23.7331 11.665 24.053C11.4784 24.3729 11.3984 24.7195 11.3717 25.0927C11.3717 25.4926 11.505 25.8658 11.6916 26.2123C11.8516 26.5056 11.9316 27.0388 11.3984 27.3587C11.2118 27.4653 10.9719 27.492 10.7586 27.4386C10.5453 27.3853 10.3587 27.252 10.2521 27.0654C10.0388 26.7455 9.79888 26.4256 9.45232 26.2123C9.13241 26.0257 8.78585 25.9458 8.41263 25.9458C8.03941 25.9458 7.69284 26.0524 7.37294 26.2123C7.05304 26.399 6.78645 26.6655 6.59984 26.9855C6.41323 27.3054 6.33325 27.6519 6.33325 28.0251C6.33325 28.3984 6.43989 28.7449 6.59984 29.0648C6.78645 29.3847 7.05304 29.6513 7.37294 29.8379C7.69284 30.0245 8.03941 30.1045 8.41263 30.1045C8.78585 30.1045 9.13241 29.9979 9.45232 29.8379C9.79888 29.6247 10.0655 29.3314 10.2521 28.9849C10.412 28.7183 10.8386 28.3717 11.3717 28.6649C11.5584 28.7716 11.6916 28.9582 11.745 29.1715C11.7983 29.3847 11.7716 29.598 11.665 29.8113C11.4784 30.1578 11.3451 30.5311 11.3451 30.9309C11.3451 31.3042 11.4517 31.6507 11.6117 31.9706C11.7983 32.2905 12.0649 32.5571 12.3848 32.7437C12.7047 32.9303 13.0512 33.0103 13.4245 33.0103C13.7977 33.0103 14.1442 32.9037 14.4642 32.7437C14.7841 32.5571 15.0506 32.2905 15.2373 31.9706C15.4239 31.6507 15.5038 31.3042 15.5038 30.9309C15.5038 30.5577 15.3972 30.2112 15.2373 29.8912C15.104 29.5447 14.8374 29.2781 14.5175 29.0915Z" fill="#008CFF"/>
<path d="M18.4361 24.8261H19.8757V25.5192C20.0623 25.2793 20.3022 25.0927 20.5954 24.9594C20.862 24.8261 21.1819 24.7728 21.4752 24.7728C21.6884 24.7728 21.9017 24.7994 22.0883 24.8527V26.5056C22.0883 26.5056 21.8751 26.4256 21.3952 26.4256C20.5688 26.4256 20.0089 26.9854 20.0089 27.8119V31.1975H18.4094V24.8261H18.4361ZM26.2471 24.8261H27.6866V25.4392C28.1932 25.0127 28.833 24.7461 29.4728 24.7461C31.0723 24.7461 32.4586 26.1324 32.4586 27.9985C32.4586 29.8646 31.0723 31.2508 29.4728 31.2508C28.8596 31.2508 28.2731 31.0376 27.8199 30.6377V33.4635H26.2204V24.8261H26.2471ZM30.859 27.9985C30.859 26.9588 30.1659 26.2656 29.2862 26.2656C28.3798 26.2656 27.6866 26.9588 27.6866 27.9985C27.6866 29.0382 28.3798 29.7313 29.2862 29.7313C30.1926 29.7313 30.859 29.0382 30.859 27.9985ZM33.6315 24.8261H35.0711V25.4392C35.5776 25.0127 36.2174 24.7461 36.8572 24.7461C38.4568 24.7461 39.843 26.1324 39.843 27.9985C39.843 29.8646 38.4568 31.2508 36.8572 31.2508C36.2441 31.2508 35.6576 31.0376 35.2044 30.6377V33.4635H33.6049V24.8261H33.6315ZM38.2435 27.9985C38.2435 26.9588 37.5504 26.2656 36.6706 26.2656C35.7642 26.2656 35.0711 26.9588 35.0711 27.9985C35.0711 29.0382 35.7642 29.7313 36.6706 29.7313C37.577 29.7313 38.2435 29.0382 38.2435 27.9985ZM41.016 22.4801H42.6155V31.1708H41.016V22.4801ZM43.7885 27.9985C43.7885 26.2123 45.2281 24.7461 46.9609 24.7461C48.6137 24.7461 50 26.0524 50 27.9985C50 28.2117 49.9733 28.425 49.92 28.6116H45.4947C45.6279 29.2248 46.1345 29.7046 46.9342 29.7046C47.6807 29.7046 47.9739 29.3581 47.9739 29.3581H49.7067C49.3868 30.1845 48.4004 31.2242 46.9342 31.2242C45.2281 31.2508 43.7885 29.8113 43.7885 27.9985ZM48.4804 27.5186C48.4004 27.172 48.2138 26.8521 47.9473 26.6389C47.6807 26.4256 47.3341 26.2923 46.9609 26.2923C46.6143 26.2923 46.2678 26.4256 45.9745 26.6389C45.7079 26.8521 45.4947 27.172 45.4413 27.5186H48.4804ZM23.0214 23.1732C23.0214 22.9333 23.128 22.6934 23.288 22.5334C23.4479 22.3735 23.6878 22.2668 23.9278 22.2668C24.1677 22.2668 24.4076 22.3735 24.5676 22.5334C24.7275 22.6934 24.8342 22.9333 24.8342 23.1732C24.8342 23.4132 24.7275 23.6531 24.5676 23.813C24.4076 23.973 24.1677 24.0796 23.9278 24.0796C23.6878 24.0796 23.4479 23.973 23.288 23.813C23.128 23.6264 23.0214 23.4132 23.0214 23.1732ZM23.128 24.8261H24.7275V31.1708H23.128V24.8261Z" fill="#141A1F"/>
</svg>
