<svg width="57" height="56" viewBox="0 0 57 56" fill="none" xmlns="http://www.w3.org/2000/svg">
<rect x="0.333496" width="56" height="56" rx="28" fill="#FAFAFA"/>
<rect x="0.722385" y="0.388889" width="55.2222" height="55.2222" rx="27.6111" stroke="black" stroke-opacity="0.05" stroke-width="0.777778"/>
<path fill-rule="evenodd" clip-rule="evenodd" d="M29.3594 22H30.2146V25.2609H30.2802C30.2802 25.2609 30.6749 24.4097 31.7926 24.4097H32.6477C33.634 24.4097 34.3578 25.19 34.3578 26.2549V31.5836H33.5029V26.3302C33.5029 25.6915 33.1737 25.3362 32.5821 25.3362H31.5957C30.7406 25.3362 30.2146 25.9052 30.2146 26.8272V31.5836H29.3594V22ZM17.706 24.5559H18.2976L18.4986 25.2609H18.5642C18.5642 25.2609 18.958 24.4097 20.0766 24.4097H21.063C22.0493 24.4097 22.7722 25.1901 22.7722 26.2549V31.5836H21.9181V26.3303C21.9181 25.6916 21.589 25.3363 20.9973 25.3363H19.9454C19.0902 25.3363 18.5642 25.9052 18.5642 26.8273V31.5836H17.7091L17.706 24.5559ZM8.95911 30.6582H6V31.5836H9.01952C10.0725 31.5836 10.7298 30.8741 10.7298 29.7384V29.5259C10.7298 28.6735 10.1381 28.0349 9.21739 27.8212L7.70505 27.467C7.04678 27.3107 6.84992 27.0353 6.84992 26.473C6.84992 25.8332 7.17801 25.479 7.77067 25.479H10.2704L10.5381 25.1946V24.5559H7.71025C6.65723 24.5559 6 25.2609 6 26.4022V26.6102C6 27.467 6.52599 28.1057 7.44674 28.3182L8.95911 28.6702C9.61736 28.8265 9.87984 29.102 9.87984 29.6642C9.87984 30.3029 9.5507 30.6582 8.95911 30.6582ZM12.6415 33.0746H12.0499V34H12.6415C13.6279 34 14.159 33.4321 14.6798 31.7995L16.8505 25.0529V24.5559H16.061L14.3518 30.2354H14.2861L12.1811 24.5559H11.3916V25.0709L13.8914 31.4453V31.5836L13.8258 31.7972C13.5227 32.7912 13.2602 33.0746 12.6415 33.0746ZM23.7961 26.4022V29.7384C23.7961 30.8032 24.519 31.5836 25.5053 31.5836H28.3332V30.6616H25.5709C24.9793 30.6616 24.6502 30.3062 24.6502 29.6675V26.473C24.6502 25.8332 24.9793 25.479 25.5709 25.479H28.0707L28.3332 25.1946V24.5559H25.5053C24.519 24.5559 23.7961 25.3362 23.7961 26.4022ZM35.9756 24.5559H35.3839V31.5791H36.2391V26.8228C36.2352 26.626 36.2686 26.4304 36.3366 26.2478C36.4046 26.0652 36.5062 25.8993 36.635 25.76C36.7638 25.6208 36.9174 25.5111 37.0865 25.4375C37.2557 25.3639 37.4369 25.3279 37.6192 25.3318H38.8033V24.4097H37.7514C36.6327 24.4097 36.2391 25.2609 36.2391 25.2609H36.1724L35.9756 24.5559ZM39.5789 29.8801V26.2595C39.5789 25.1946 40.3027 24.4142 41.289 24.4142H43.1961C44.1827 24.4142 44.9054 25.1946 44.9054 26.2595V29.8801C44.9054 30.945 44.1827 31.7264 43.1961 31.7264H41.289C41.0624 31.7341 40.8369 31.6916 40.6262 31.6015C40.4157 31.5114 40.2243 31.3757 40.064 31.2027C39.9037 31.0297 39.778 30.8231 39.6945 30.5956C39.6112 30.3681 39.5716 30.1247 39.5789 29.8801ZM43.1307 30.8033C43.7221 30.8033 44.0503 30.448 44.0503 29.8093V26.3303C44.0503 25.6916 43.7221 25.3363 43.1307 25.3363H41.3547C40.763 25.3363 40.4341 25.6916 40.4341 26.3303V29.8093C40.4341 30.448 40.763 30.8033 41.3547 30.8033H43.1307ZM46.5245 24.5559H45.9318L45.9359 31.5836H46.7911V26.8273C46.7911 25.9052 47.3171 25.3363 48.1723 25.3363H49.2242C49.8169 25.3363 50.1448 25.6916 50.1448 26.3303V31.5836H51V26.2549C51 25.1901 50.2772 24.4097 49.2899 24.4097H48.3034C47.1857 24.4097 46.7911 25.2609 46.7911 25.2609H46.7254L46.5245 24.5559Z" fill="#0C321D"/>
</svg>
