<svg width="160" height="48" viewBox="0 0 160 48" fill="none" xmlns="http://www.w3.org/2000/svg">
<path d="M50.4209 16.0703H52.4876V21.8553C53.3271 20.6203 54.4896 19.9703 55.8459 19.9703C57.7188 19.9703 58.8167 21.0103 58.8167 23.0903V30.1753H56.7501V23.6753C56.7501 22.2453 56.2334 21.8553 55.2001 21.8553C54.5542 21.8553 53.973 22.2453 53.3917 22.9603C52.8105 23.7403 52.5521 24.7153 52.5521 25.9503V30.1753H50.4855L50.4209 16.0703Z" fill="#3A3938"/>
<path d="M69.1496 25.6903H62.11C62.11 27.2503 63.0142 28.4853 64.5642 28.4853C65.6621 28.4853 66.6954 27.8353 67.1475 26.7953L68.8913 27.5103C67.8579 29.4603 66.6954 30.3053 64.4996 30.3053C61.2059 30.3053 59.8496 27.5103 59.8496 25.1053C59.8496 22.7003 61.2059 19.9053 64.4996 19.9053C67.6642 19.9053 69.085 22.5053 69.085 24.7803V25.6903H69.1496ZM62.1746 24.0003H67.0184C66.8246 22.7653 65.985 21.7903 64.6288 21.7903C63.2725 21.7903 62.4329 22.7003 62.1746 24.0003Z" fill="#3A3938"/>
<path d="M85.2961 19.9699C85.8128 19.9699 86.2648 20.0999 86.8461 20.3599C87.3628 20.6199 87.7503 20.8799 88.0086 21.2049V16.0049H90.0753V30.1099H88.0086V28.9399C87.6211 29.5899 86.5232 30.2399 85.2961 30.2399C82.3898 30.2399 80.8398 28.3549 80.8398 25.0399C80.8398 21.9199 82.3898 19.9699 85.2961 19.9699ZM82.9711 25.1049C82.9711 26.1449 83.2294 26.9249 83.6815 27.5749C84.1336 28.1599 84.7794 28.4849 85.4898 28.4849C86.2648 28.4849 86.8461 28.1599 87.2982 27.5749C87.7503 26.9899 88.0086 26.1449 88.0086 25.1049C88.0086 24.0649 87.7503 23.2849 87.2982 22.6999C86.8461 22.1149 86.2003 21.7899 85.4898 21.7899C84.7148 21.7899 84.1336 22.1149 83.6815 22.6999C83.2294 23.2849 82.9711 24.1299 82.9711 25.1049Z" fill="#3A3938"/>
<path d="M97.8896 21.5297L96.598 22.6997C96.1459 22.1147 95.5647 21.7897 94.8542 21.7897C94.273 21.7897 93.8855 22.1797 93.8855 22.7647C93.8855 22.9597 93.9501 23.2197 94.1438 23.3497C94.4667 23.6747 94.7897 23.8697 95.6938 24.1947C96.4042 24.4547 96.6626 24.5847 97.2438 24.9097C98.0188 25.3647 98.4063 26.0147 98.4709 27.0547C98.4709 27.9647 98.148 28.6797 97.5021 29.3297C96.8563 29.9147 96.0167 30.2397 94.9834 30.2397C93.1105 30.2397 91.7542 29.0047 91.1084 27.5747L92.8522 26.5997C93.3688 27.8347 94.1438 28.4197 95.048 28.4197C95.9522 28.4197 96.4042 27.9647 96.4042 27.1197C96.4042 26.7947 96.2751 26.5347 95.8876 26.3397C95.6938 26.2097 95.5647 26.1447 95.3709 26.0797C95.048 25.9497 94.3376 25.6897 94.0146 25.5597C92.5938 24.9747 91.8834 24.0647 91.8834 22.8297C91.8834 22.0497 92.2063 21.3347 92.723 20.8147C93.3042 20.2297 94.0146 19.9697 94.9188 19.9697C96.1459 19.9697 97.2438 20.5547 97.8896 21.5297Z" fill="#3A3938"/>
<path d="M104.477 30.3047C103.315 30.3047 102.281 29.7197 101.829 29.0047V34.2047H99.7627V20.0997H101.829V21.2697C102.217 20.6197 103.315 19.9697 104.542 19.9697C107.448 19.9697 108.998 21.8547 108.998 25.1697C108.934 28.2897 107.384 30.3047 104.477 30.3047ZM106.802 25.1047C106.802 24.0647 106.544 23.2847 106.092 22.6997C105.64 22.1147 104.994 21.7897 104.284 21.7897C103.509 21.7897 102.927 22.1147 102.475 22.6997C102.023 23.2847 101.765 24.1297 101.765 25.1047C101.765 26.1447 102.023 26.9247 102.475 27.5747C102.927 28.1597 103.573 28.4847 104.284 28.4847C105.059 28.4847 105.64 28.1597 106.092 27.5747C106.544 26.9897 106.802 26.1447 106.802 25.1047Z" fill="#3A3938"/>
<path d="M129.277 27.5103C128.437 29.3303 127.017 30.3053 124.95 30.3053C123.465 30.3053 122.302 29.7853 121.462 28.8103C120.623 27.8353 120.235 26.6003 120.235 25.1053C120.235 23.6103 120.623 22.3753 121.462 21.4003C122.302 20.4253 123.465 19.9053 124.95 19.9053C127.017 19.9053 128.437 20.8153 129.277 22.7003L127.469 23.4803C126.952 22.3103 126.112 21.7253 125.015 21.7253C123.335 21.7253 122.496 23.0903 122.496 25.0403C122.496 27.0553 123.335 28.3553 125.015 28.3553C126.112 28.3553 126.952 27.7703 127.469 26.6003L129.277 27.5103Z" fill="#3A3938"/>
<path d="M139.223 25.6903H132.183C132.183 27.2503 133.087 28.4853 134.637 28.4853C135.735 28.4853 136.769 27.8353 137.221 26.7953L138.965 27.5103C137.931 29.4603 136.769 30.3053 134.573 30.3053C131.279 30.3053 129.923 27.5103 129.923 25.1053C129.923 22.7003 131.279 19.9053 134.573 19.9053C137.737 19.9053 139.158 22.5053 139.158 24.7803V25.6903H139.223ZM132.248 24.0003H137.092C136.898 22.7653 136.058 21.7903 134.702 21.7903C133.346 21.7903 132.442 22.7003 132.248 24.0003Z" fill="#3A3938"/>
<path d="M74.8332 19.9697C75.3499 19.9697 75.8019 20.0997 76.3832 20.3597C76.8999 20.6197 77.2874 20.8797 77.5457 21.2047V20.0997H79.6124V30.1747H77.8686L77.5457 29.0047C77.1582 29.6547 76.0603 30.3047 74.8332 30.3047C71.9269 30.3047 70.3769 28.4197 70.3769 25.1047C70.3124 21.9847 71.8624 19.9697 74.8332 19.9697ZM72.5082 25.1697C72.5082 26.2097 72.7665 26.9897 73.2186 27.6397C73.6707 28.2247 74.3165 28.5497 75.0269 28.5497C75.8019 28.5497 76.3832 28.2247 76.8353 27.6397C77.2874 27.0547 77.5457 26.2097 77.5457 25.1697C77.5457 24.1297 77.2874 23.3497 76.8353 22.7647C76.3832 22.1797 75.7374 21.8547 75.0269 21.8547C74.2519 21.8547 73.6707 22.1797 73.2186 22.7647C72.7665 23.2847 72.5082 24.1297 72.5082 25.1697Z" fill="#3A3938"/>
<path d="M114.423 19.9697C114.94 19.9697 115.392 20.0997 115.973 20.3597C116.49 20.6197 116.877 20.8797 117.136 21.2047V20.0997H119.202V30.1747H117.458L117.136 29.0047C116.748 29.6547 115.65 30.3047 114.423 30.3047C111.517 30.3047 109.967 28.4197 109.967 25.1047C109.902 21.9847 111.452 19.9697 114.423 19.9697ZM112.098 25.1697C112.098 26.2097 112.356 26.9897 112.808 27.6397C113.261 28.2247 113.906 28.5497 114.617 28.5497C115.392 28.5497 115.973 28.2247 116.425 27.6397C116.877 27.0547 117.136 26.2097 117.136 25.1697C117.136 24.1297 116.877 23.3497 116.425 22.7647C115.973 22.1797 115.327 21.8547 114.617 21.8547C113.842 21.8547 113.261 22.1797 112.808 22.7647C112.292 23.2847 112.098 24.1297 112.098 25.1697Z" fill="#3A3938"/>
<path d="M44.0271 23.8703C44.35 28.1603 42.3479 30.5653 41.1854 32.2553C39.3771 34.2053 36.9875 36.8703 31.1104 37.0003C26.0729 37.1953 23.6188 34.9853 21.5521 33.0353C18.8396 30.0453 18.1292 28.2253 18 23.8703C18 21.1403 19.0333 18.4753 20.8417 16.0703C23.3604 12.4953 27.3646 11.2603 31.1104 11.0003C34.9854 10.8703 38.0854 12.8203 40.2167 14.9653C42.9292 17.8903 43.7688 20.3603 44.0271 23.8703Z" fill="#FF7E1D"/>
<path d="M141.354 20.36C141.29 20.295 141.225 20.23 141.161 20.165C141.096 20.1 140.967 20.035 140.902 20.035C140.644 19.97 140.321 19.97 140.063 20.165C139.998 20.23 139.934 20.295 139.869 20.36C139.804 20.425 139.804 20.555 139.74 20.62C139.675 20.88 139.675 21.205 139.869 21.4C139.934 21.465 139.998 21.53 140.063 21.595C140.127 21.66 140.256 21.725 140.321 21.725C140.386 21.725 140.515 21.79 140.579 21.79C140.773 21.79 140.967 21.725 141.096 21.595C141.161 21.53 141.225 21.465 141.29 21.4C141.354 21.335 141.354 21.205 141.419 21.14C141.548 20.88 141.484 20.555 141.354 20.36ZM141.161 21.335C141.096 21.4 141.031 21.465 141.031 21.53C140.967 21.595 140.902 21.595 140.838 21.66C140.579 21.725 140.386 21.725 140.192 21.53C140.127 21.465 140.063 21.4 140.063 21.335C139.998 21.27 139.998 21.205 139.934 21.14C139.934 21.075 139.869 21.01 139.869 20.88C139.869 20.75 139.934 20.555 139.998 20.425C140.063 20.36 140.127 20.295 140.192 20.23C140.256 20.165 140.321 20.165 140.386 20.1C140.644 20.035 140.838 20.035 141.031 20.23C141.096 20.295 141.161 20.36 141.161 20.425C141.225 20.49 141.225 20.555 141.29 20.62C141.354 20.88 141.29 21.14 141.161 21.335Z" fill="#3A3938"/>
<path d="M140.708 20.9454C140.773 20.9454 140.837 20.9454 140.902 20.8804C141.031 20.7504 141.031 20.5554 140.966 20.4904C140.837 20.3604 140.773 20.3604 140.643 20.3604H140.256V21.4004H140.385V20.9454H140.579L140.837 21.4004H141.031L140.708 20.9454ZM140.579 20.8154H140.385V20.4904C140.514 20.4904 140.643 20.4904 140.773 20.4904C140.837 20.5554 140.837 20.6204 140.837 20.6854C140.837 20.7504 140.773 20.7504 140.708 20.7504C140.643 20.8154 140.643 20.8154 140.579 20.8154Z" fill="#3A3938"/>
</svg>
