<svg width="80" height="48" viewBox="0 0 80 48" fill="none" xmlns="http://www.w3.org/2000/svg">
<path d="M54.32 4H26.122C23.8492 4 23 4.84919 23 7.1345V34.7205C23 34.9828 23.0125 35.2201 23.0375 35.4449C23.0874 35.9444 23.0999 36.4314 23.562 36.9809C23.6119 37.0308 24.0865 37.393 24.0865 37.393C24.3362 37.5179 24.5111 37.6053 24.7983 37.7302L38.6725 43.5496C39.3968 43.8743 39.6965 44.0116 40.221 43.9992C40.7455 44.0116 41.0452 43.8868 41.7695 43.5496L55.6437 37.7302C55.9309 37.6178 56.1058 37.5179 56.3555 37.393C56.3555 37.393 56.8301 37.0433 56.88 36.9809C57.3421 36.4314 57.3546 35.9444 57.4045 35.4449C57.4295 35.2201 57.442 34.9828 57.442 34.7205V7.1345C57.442 4.84919 56.6053 4 54.32 4Z" fill="#5F5F5F"/>
<path d="M52.4214 31.736L52.4089 31.7985L52.3965 31.8734L52.384 31.9358L52.359 31.9983L52.3465 32.0607L52.3215 32.1232L52.2966 32.1856L52.2716 32.2356L52.2466 32.298L52.2091 32.3479L52.1717 32.3979L52.1342 32.4478L52.0967 32.4978L52.0593 32.5478L52.0093 32.5977L51.9719 32.6352L51.9219 32.6851L51.872 32.7226L51.822 32.76L51.7721 32.785L51.7221 32.8225L51.6597 32.86L51.5972 32.8849L51.5348 32.9224L51.4723 32.9474L51.4099 32.9723L51.3475 32.9973V32.9848L51.285 33.0098L51.2226 33.0223L51.1102 33.0473L51.0478 33.0598L50.9853 33.0722L50.9229 33.0847L50.8604 33.0972L50.7855 33.1097L50.7231 33.1222H50.4733L50.4109 33.1097H50.3359L50.2735 33.0972L50.2111 33.0847L50.1361 33.0722L50.0737 33.0598L50.0112 33.0473L49.9488 33.0348L49.8864 33.0223L49.8239 33.0098L49.7615 32.9973L49.699 32.9723L49.6366 32.9599L49.5742 32.9349L49.5117 32.9099L49.4493 32.8849L49.3868 32.86L49.3244 32.835L49.262 32.81L49.1995 32.785L49.1371 32.76L49.0746 32.7351L49.0122 32.7101L48.9498 32.6726L48.8998 32.6352L48.8374 32.5977L48.7874 32.5602L48.7375 32.5228L48.6875 32.4853L48.6376 32.4478L48.5876 32.4104L48.5377 32.3729L48.4877 32.3355L48.4378 32.2855L48.4752 32.2356L48.5252 32.1856L48.5626 32.1356L48.6126 32.0857L48.6501 32.0357L48.6875 31.9858L48.7375 31.9358L48.7749 31.8859L48.8249 31.8359L48.8623 31.786L48.9123 31.736L48.9498 31.6861L48.9872 31.6361L49.0372 31.5862L49.0746 31.5362L49.1246 31.4863L49.1621 31.4363L49.212 31.4738L49.2745 31.5112L49.3244 31.5487L49.3868 31.5862L49.4368 31.6236L49.4992 31.6611L49.5492 31.6986L49.6116 31.7235L49.6616 31.761L49.724 31.786L49.7865 31.811L49.8489 31.8359L49.9113 31.8609L49.9738 31.8859L50.0362 31.9109L50.0987 31.9358L50.1611 31.9608L50.2235 31.9733L50.3484 31.9983L50.4234 32.0108L50.4858 32.0233H50.5482L50.6232 32.0357H50.7605L50.8355 32.0233L50.8979 32.0108L50.9603 31.9983L51.0228 31.9858L51.0727 31.9608L51.1227 31.9358L51.1726 31.8984L51.2101 31.8484L51.2351 31.7985L51.26 31.736L51.2725 31.6736V31.6611L51.26 31.5862L51.2351 31.5237L51.1976 31.4738L51.1477 31.4363L51.0977 31.3989L51.0478 31.3739L50.9853 31.3489L50.9229 31.3239L50.8479 31.2865L50.798 31.274L50.748 31.2615L50.6856 31.2365L50.6232 31.224L50.5607 31.199L50.4983 31.1866L50.4234 31.1616L50.3609 31.1491L50.286 31.1241L50.2235 31.1116L50.1611 31.0867L50.0987 31.0742L50.0362 31.0492L49.9738 31.0242L49.9113 31.0117L49.8489 30.9867L49.7865 30.9618L49.724 30.9368L49.6491 30.9118L49.5867 30.8868L49.5242 30.8619L49.4618 30.8369L49.3993 30.7994L49.3369 30.762L49.2869 30.7245L49.2245 30.687L49.1745 30.6496L49.1246 30.6121L49.0746 30.5746L49.0247 30.5247L48.9747 30.4747L48.9373 30.4248L48.8998 30.3748L48.8623 30.3249L48.8249 30.2749L48.7874 30.2125L48.7624 30.1625L48.7375 30.1126L48.725 30.0501L48.7 30.0002L48.6875 29.9378L48.675 29.8753L48.6625 29.8129L48.6501 29.7504L48.6376 29.6755V29.5256L48.6501 29.4632L48.6625 29.4008L48.675 29.3383L48.6875 29.2759L48.7 29.2134L48.725 29.151L48.7375 29.0886L48.7624 29.0261L48.7874 28.9637L48.8124 28.9012L48.8499 28.8388L48.8873 28.7764L48.9248 28.7264L48.9623 28.6765L49.0122 28.6265L49.0622 28.5766L49.1121 28.5266L49.1621 28.4767L49.212 28.4392L49.262 28.4017L49.3119 28.3643L49.3619 28.3268L49.4243 28.2893L49.4867 28.2644L49.5492 28.2269L49.6116 28.2019L49.6741 28.1769L49.7365 28.152L49.799 28.127L49.8489 28.1145L49.9113 28.102L49.9738 28.0895L50.0362 28.077L50.0987 28.0645L50.1611 28.0521L50.2235 28.0396L50.286 28.0271L50.3484 28.0146H50.6232L50.6981 28.0271L50.773 28.0396H50.8355L50.9104 28.0521L50.9728 28.0645L51.0478 28.077L51.1102 28.0895L51.1726 28.102L51.2351 28.1145L51.2975 28.127L51.36 28.1395L51.4224 28.1645L51.4848 28.1894L51.5473 28.2019L51.6097 28.2269L51.6722 28.2519L51.7346 28.2768L51.797 28.3018L51.8595 28.3268L51.9219 28.3643L51.9719 28.3892L52.0343 28.4267L52.0967 28.4642L52.1467 28.5016L52.2091 28.5391L52.2591 28.5766L52.309 28.614L52.359 28.6515L52.4089 28.689L52.3715 28.7389L52.334 28.7889L52.2966 28.8388L52.2591 28.8888L52.2216 28.9512L52.1842 29.0012L52.1467 29.0511L52.1092 29.1011L52.0718 29.151L52.0343 29.201L51.9968 29.2509L51.9594 29.3009L51.9219 29.3633L51.8844 29.4133L51.847 29.4632L51.7221 29.7379L51.6846 29.7879L51.6347 29.7504L51.5722 29.713L51.5223 29.6755L51.4723 29.638L51.4099 29.6131L51.36 29.5756L51.2975 29.5506L51.2476 29.5256L51.1851 29.5007L51.1352 29.4757L51.0727 29.4507L51.0228 29.4257L50.9478 29.4008L50.8854 29.3758L50.823 29.3508L50.7605 29.3383L50.7231 29.3633L50.6606 29.3508L50.5982 29.3383L50.5357 29.3258L50.4733 29.3134H50.3359L50.261 29.3258L50.1986 29.3383L50.1361 29.3508L50.0862 29.3758L50.0362 29.4008L49.9738 29.4507L49.9363 29.5132L49.9113 29.5756L49.8989 29.638V29.6505L49.9113 29.7379L49.9363 29.8129L49.9613 29.8503L50.0112 29.9003L50.0737 29.9378L50.1236 29.9752L50.1861 30.0002L50.261 30.0252L50.3359 30.0501L50.3859 30.0626L50.4358 30.0876L50.4983 30.1001L50.5607 30.1251L50.6232 30.1376L50.6981 30.1625L50.773 30.1875L50.8479 30.2125L50.9229 30.225L50.9853 30.25L51.0602 30.2749L51.1227 30.2874L51.1851 30.3124L51.2476 30.3374L51.31 30.3623L51.3724 30.3873L51.4349 30.4123L51.4973 30.4248L51.5722 30.4498L51.6347 30.4872L51.6971 30.5122L51.7596 30.5497L51.822 30.5871L51.8844 30.6246L51.9344 30.6621L51.9844 30.6995L52.0343 30.737L52.0843 30.7869L52.1342 30.8369L52.1842 30.8868L52.2341 30.9368L52.2716 30.9867L52.309 31.0492L52.3465 31.0991L52.384 31.1616L52.4089 31.2115L52.4339 31.274L52.4464 31.3364L52.4589 31.3989L52.4839 31.5237L52.4964 31.5862L52.5089 31.6611V31.811L52.4214 31.736ZM47.9882 33.0098H44.3542V28.3768H48.0132V29.4257H45.5655V30.1875H47.7634V31.1741H45.5655V31.9608H48.0506V33.0098H47.9882ZM43.3551 33.0098H42.1937V30.2749L42.1563 30.3249L42.1188 30.3873L42.0813 30.4373L42.0439 30.4872L42.0064 30.5497L41.969 30.5996L41.9315 30.6496L41.894 30.712L41.8566 30.762L41.8191 30.8119L41.7816 30.8619L41.7442 30.9243L41.7067 30.9743L41.6692 31.0242L41.6318 31.0867L41.5943 31.1366L41.5569 31.1866L41.5194 31.249L41.4944 31.2989L41.4569 31.3489L41.4195 31.4113L41.382 31.4613L41.3446 31.5112L41.3071 31.5737L41.2696 31.6236L41.2446 31.6736L41.2072 31.7235L41.1697 31.786L41.1323 31.8359L41.0948 31.8859L41.0698 31.9483L41.0324 31.9983L40.9949 32.0482L40.9574 32.1107L40.92 32.1606H40.895L40.8575 32.0982L40.8201 32.0482L40.7826 31.9858L40.7451 31.9358L40.7077 31.8734L40.6702 31.8234L40.6327 31.761L40.5953 31.7111L40.5578 31.6486L40.5328 31.5987L40.4954 31.5362L40.4579 31.4863L40.4204 31.4238L40.4829 31.3614L40.4454 31.2989L40.408 31.249L40.3705 31.1866L40.333 31.1366L40.2956 31.0742L40.2581 31.0242L40.2331 30.9867L40.1957 30.9368L40.1582 30.8744L40.1207 30.8244L40.0833 30.762L40.0458 30.712L40.0083 30.6496L39.9834 30.6121L39.9459 30.5497L39.9084 30.4997L39.871 30.4373L39.8335 30.3873L39.796 30.3249L39.7586 30.2749V32.9973H38.5597V28.3643H39.8585L39.8959 28.4142L39.9334 28.4767L39.9709 28.5266L40.0083 28.589L40.0458 28.639L40.0833 28.7014L40.1207 28.7514L40.1582 28.8138L40.1957 28.8638L40.2331 28.9137L40.2706 28.9762L40.308 29.0261L40.3455 29.0886L40.383 29.1385L40.4204 29.201L40.4579 29.2509L40.4954 29.3009L40.5328 29.3633L40.5703 29.4133L40.6078 29.4757L40.6452 29.5256L40.6827 29.5881L40.7202 29.638L40.7451 29.7005L40.7826 29.7504L40.8076 29.8004L40.845 29.8628L40.8825 29.9128L40.92 29.9752L40.9574 30.0252L40.9824 30.0876L41.0199 30.1376L41.0573 30.2L41.0948 30.25L41.1323 30.2L41.1697 30.1376L41.2072 30.0876L41.2446 30.0252L41.2821 29.9752L41.3196 29.9128L41.357 29.8628L41.3945 29.8004L41.432 29.7504L41.4569 29.7005L41.4944 29.638L41.5319 29.5881L41.5693 29.5256L41.6068 29.4757L41.6443 29.4133L41.6817 29.3633L41.7192 29.3009L41.7567 29.2509L41.7941 29.201L41.8316 29.1385L41.8691 29.0886L41.9065 29.0261L41.944 28.9762L41.9814 28.9137L42.0064 28.8638L42.0439 28.8138L42.0813 28.7514L42.1188 28.7014L42.1563 28.639L42.1937 28.589L42.2312 28.5266L42.2687 28.4767L42.3061 28.4142L42.3436 28.3643H43.6424V32.9973L43.3551 33.0098ZM36.0122 31.0991L35.9872 31.0367L35.9622 30.9743L35.9372 30.9118L35.9123 30.8494L35.8873 30.7869L35.8623 30.7245L35.8373 30.6621L35.8124 30.5996L35.7874 30.5372L35.7624 30.4747L35.7374 30.4123L35.7125 30.3499L35.6875 30.2874L35.6625 30.225L35.6375 30.1625L35.6125 30.1001L35.5876 30.0377L35.5626 29.9752L35.5376 29.9128L35.5126 29.8503L35.4877 29.7879L35.4627 29.7255L35.4377 29.7879L35.4127 29.8503L35.3878 29.9128L35.3628 29.9752L35.3378 30.0377L35.3128 30.1001L35.2879 30.1625L35.2629 30.225L35.2379 30.2874L35.2129 30.3499L35.188 30.4123L35.163 30.4747L35.138 30.5372L35.113 30.5996L35.0881 30.6621L35.0631 30.7245L35.0381 30.7869L35.0131 30.8494L34.9881 30.9118L34.9632 30.9743L34.9382 31.0367L34.9132 31.0991L34.8882 31.1616H35.9622L36.0122 31.0991ZM37.9978 33.0098H36.7614L36.7365 32.9474L36.7115 32.8849L36.6865 32.8225L36.6615 32.76L36.6366 32.6976L36.6116 32.6352L36.5866 32.5727L36.5616 32.5103L36.5367 32.4478L36.5117 32.3854L36.4867 32.323L36.4617 32.2605L36.4368 32.1981L36.4118 32.1356L36.3868 32.0732H34.5885L34.5636 32.1356L34.5386 32.1981L34.5136 32.2605L34.4886 32.323L34.4636 32.3854L34.4137 32.4978L34.3887 32.5602L34.3637 32.6227L34.3388 32.6851L34.3138 32.7476L34.2888 32.81L34.2638 32.8724L34.2389 32.9349L34.2139 32.9973H32.9651L32.9901 32.9349L33.04 32.8225L33.065 32.76L33.09 32.6976L33.1399 32.5852L33.1649 32.5228L33.1899 32.4603L33.2148 32.3979L33.2398 32.3604L33.2648 32.298L33.2898 32.2356L33.3148 32.1731L33.3397 32.1107L33.3647 32.0482L33.3897 31.9858L33.4147 31.9233L33.4396 31.8609L33.4646 31.7985L33.4896 31.736L33.5146 31.6736L33.5645 31.5612L33.5895 31.4988L33.6145 31.4363L33.6394 31.3739L33.6644 31.3114L33.6894 31.249L33.7144 31.1866L33.7393 31.1241L33.7643 31.0617L33.7893 30.9992L33.8143 30.9368L33.8392 30.8744L33.8642 30.8119L33.8892 30.7495L33.9142 30.687L33.9392 30.6246L33.9641 30.5622L33.9891 30.4997L34.0141 30.4373L34.0391 30.3748L34.064 30.3124L34.089 30.25L34.114 30.1875L34.139 30.1251L34.1639 30.0626L34.1889 30.0002L34.2139 29.9378L34.2389 29.8753L34.2638 29.8129L34.2888 29.7504L34.3138 29.688L34.3388 29.6256L34.3637 29.5631L34.4137 29.4507L34.4387 29.3883L34.4636 29.3258L34.4886 29.2634L34.5136 29.201L34.5386 29.1385L34.5636 29.0761L34.5885 29.0136L34.6135 28.9512L34.6385 28.8888L34.6635 28.8263L34.6759 28.7639L34.7009 28.7014L34.7259 28.639L34.7509 28.5766L34.7759 28.5141L34.8008 28.4517L34.8258 28.3892L34.8508 28.3268L34.8758 28.2644L34.9257 28.152L34.9507 28.0895H36.1246L36.1495 28.152L36.1745 28.2144L36.1995 28.2768L36.2245 28.3393L36.2494 28.4017L36.2744 28.4642L36.2994 28.5266L36.3244 28.589L36.3493 28.6515L36.3743 28.7139L36.3993 28.7764L36.4243 28.8388L36.4492 28.9012L36.4742 28.9637L36.4992 29.0261L36.5242 29.0886L36.5491 29.151L36.5741 29.2134L36.5991 29.2759L36.6241 29.3383L36.6491 29.4008L36.674 29.4632L36.699 29.5256L36.724 29.5881L36.749 29.6505L36.7739 29.713L36.7989 29.7754L36.8239 29.8378L36.8489 29.9003L36.8738 29.9627L36.9238 30.0751L36.9488 30.1376L36.9737 30.2L36.9987 30.2624L37.0237 30.3249L37.0487 30.3873L37.0736 30.4498L37.0986 30.5122L37.1236 30.5746L37.1486 30.6371L37.1736 30.6995L37.1985 30.762L37.2235 30.8244L37.2485 30.8868L37.2735 30.9493L37.2984 31.0117L37.3234 31.0742L37.3484 31.1366L37.3734 31.199L37.3983 31.2615L37.4233 31.3239L37.4483 31.3864L37.4733 31.4488L37.4982 31.5112L37.5232 31.5737L37.5482 31.6361L37.5732 31.6986L37.5981 31.761L37.6231 31.8234L37.6481 31.8859L37.6731 31.9483L37.698 32.0108L37.723 32.0732L37.748 32.1356L37.773 32.1981L37.798 32.2605L37.8229 32.323L37.8479 32.3854L37.8729 32.4478L37.8979 32.5103L37.9228 32.5727L37.9478 32.6352L37.9728 32.6976L37.9978 32.76L38.0227 32.8225L38.0477 32.8849L38.0727 32.9474L38.1226 33.0598L37.9978 33.0098ZM32.4531 32.4104L32.4031 32.4478L32.3532 32.4853L32.3032 32.5228L32.2533 32.5602L32.2033 32.5977L32.1534 32.6352L32.1034 32.6726L32.041 32.7101L31.9785 32.7476L31.9161 32.785L31.8537 32.81L31.7912 32.8475L31.7288 32.8724L31.6663 32.8974L31.6039 32.9224L31.5415 32.9474L31.479 32.9723L31.4166 32.9973L31.3541 33.0223L31.2917 33.0473L31.2292 33.0722L31.1668 33.0847L31.1044 33.0972L31.0419 33.1097L30.9795 33.1222L30.917 33.1347L30.8421 33.1472L30.7797 33.1597L30.7048 33.1722L30.6423 33.1846L30.5674 33.1971H30.3676L30.3051 33.1846L30.2302 33.1722L30.1678 33.1597L30.1053 33.1472L30.0429 33.1347L29.9804 33.1222L29.918 33.1097L29.8556 33.0972L29.7931 33.0847L29.7307 33.0722L29.6682 33.0598L29.6058 33.0348L29.5434 33.0098L29.4809 32.9848L29.4185 32.9599L29.356 32.9349L29.2936 32.9099L29.2312 32.8849L29.1687 32.8475L29.1188 32.8225L29.0563 32.785L29.0064 32.7476L28.9564 32.7101L28.9065 32.6726L28.8565 32.6352L28.8066 32.5977L28.7566 32.5602L28.7067 32.5228L28.6567 32.4728L28.6068 32.4354L28.5568 32.3854L28.5069 32.3355L28.4694 32.2855L28.4319 32.2356L28.3945 32.1856L28.357 32.1356L28.3195 32.0857L28.2821 32.0357L28.2571 31.9858L28.2196 31.9233L28.1822 31.8734L28.1572 31.811L28.1322 31.7485L28.1072 31.6861L28.0823 31.6236L28.0573 31.5737L28.0323 31.5112L28.0198 31.4488L27.9948 31.3864L27.9824 31.3239L27.9574 31.2615L27.9449 31.199V31.1366L27.9324 31.0742V31.0117L27.9199 30.9493V30.4123L27.9324 30.3374L27.9449 30.2749L27.9574 30.2125L27.9699 30.15L27.9948 30.0876L28.0073 30.0252L28.0323 29.9627L28.0573 29.9003L28.0823 29.8378L28.1072 29.7754L28.1322 29.713L28.1572 29.6505L28.1822 29.5881L28.2071 29.5256L28.2446 29.4632L28.2821 29.4133L28.3071 29.3633L28.3445 29.3134L28.382 29.2634L28.4194 29.2134L28.4569 29.1635L28.4944 29.1135L28.5318 29.0636L28.5818 29.0136L28.6193 28.9637L28.6692 28.9137L28.7192 28.8638L28.7691 28.8263L28.8191 28.7764L28.869 28.7389L28.919 28.7014L28.9689 28.664L29.0189 28.6265L29.0688 28.589L29.1188 28.5516L29.1812 28.5141L29.2437 28.4767L29.3061 28.4392L29.3685 28.4142L29.431 28.3892L29.4934 28.3518L29.5434 28.3268L29.6058 28.3018L29.6682 28.2768L29.7307 28.2644L29.7931 28.2394L29.8556 28.2269L29.918 28.2019L29.9804 28.1894L30.0429 28.1769L30.1053 28.1645L30.1678 28.152L30.2302 28.1395L30.2926 28.127L30.3551 28.1145H30.6173L30.6923 28.127L30.7672 28.1395H30.8296L30.8921 28.152L30.967 28.1645L31.0294 28.1769L31.0919 28.1894L31.1543 28.2019L31.2168 28.2144L31.2792 28.2269L31.3416 28.2394L31.4041 28.2644L31.4665 28.2768L31.5165 28.3018L31.5789 28.3268L31.6913 28.3768L31.7537 28.4017L31.8162 28.4392L31.8786 28.4642L31.9286 28.5016L31.991 28.5391L32.041 28.5766L32.1034 28.614L32.1534 28.6515L32.2033 28.689L32.2533 28.7264L32.3032 28.7639L32.3532 28.8138L32.4031 28.8513L32.3657 28.9012L32.3157 28.9512L32.2782 29.0012L32.2283 29.0511L32.1908 29.1011L32.1534 29.151L32.1034 29.201L32.0659 29.2509L32.0285 29.3009L31.9785 29.3508L31.9411 29.4008L31.8911 29.4507L31.8537 29.5007L31.8162 29.5506L31.7662 29.6006L31.7288 29.6505L31.6788 29.7005L31.6414 29.7504L31.5914 29.713L31.5415 29.663L31.4915 29.6256L31.4415 29.5881L31.3916 29.5506L31.3416 29.5132L31.2917 29.4757L31.2292 29.4382L31.1793 29.4133L31.1293 29.3883L31.0794 29.3633L31.017 29.3383L30.9545 29.3134L30.8921 29.3009L30.8296 29.2884L30.7672 29.2759L30.7048 29.2634L30.6298 29.2509L30.5549 29.2384H30.4175L30.3551 29.2509L30.2926 29.2634L30.2302 29.2759L30.1678 29.2884L30.1053 29.3134L30.0429 29.3383L29.9929 29.4882L29.9305 29.5132L29.8805 29.5506L29.8306 29.5881L29.7806 29.6256L29.7307 29.663L29.6807 29.7005L29.6308 29.7379L29.5933 29.7879L29.5434 29.8378L29.5059 29.8878L29.4684 29.9378L29.431 29.9877L29.406 30.0501L29.3685 30.1001L29.3436 30.1625L29.3186 30.225L29.2936 30.2874L29.2686 30.3499L29.2561 30.4123L29.2437 30.4747L29.2312 30.5497V31.0117L29.2437 31.0742L29.2561 31.1366L29.2686 31.199L29.2936 31.2615L29.3685 31.2365L29.3935 31.2989L29.4185 31.3614L29.4559 31.4238L29.5184 31.5237L29.5559 31.5737L29.5933 31.6236L29.6433 31.6736L29.6807 31.7235L29.7307 31.761L29.7806 31.7985L29.8306 31.8359L29.8805 31.8734L29.9305 31.9109L29.9929 31.9358L30.0554 31.9608L30.1178 31.9858L30.1803 32.0108L30.2427 32.0357L30.3051 32.0482L30.3676 32.0607L30.43 32.0732L30.5049 32.0857H30.6173L30.6923 32.0732L30.7672 32.0607L30.8296 32.0482L30.8921 32.0357L30.9545 32.0233L31.017 32.0108L31.0794 31.9983L31.1418 31.9733L31.1918 31.9483L31.2542 31.9233L31.3042 31.8984L31.3541 31.8609V31.2365H30.43V30.3124H32.4905V32.3854L32.4531 32.4104ZM30.4175 17.8993H33.1649V15.7763H30.4175V11.443H33.2773V9.32002H28.0823V24.6428H33.3148V22.5199H30.4175V17.8993ZM50.0737 18.3613V21.8205C50.0737 22.4324 49.7865 22.7197 49.1995 22.7197H48.7624C48.1505 22.7197 47.8633 22.4324 47.8633 21.8205V12.1423C47.8633 11.5304 48.1505 11.2432 48.7624 11.2432H49.1496C49.7365 11.2432 50.0237 11.5304 50.0237 12.1423V15.1394H52.309V12.0049C52.309 10.1068 51.3974 9.18265 49.4992 9.18265H48.3628C46.4646 9.18265 45.528 10.1192 45.528 12.0299V21.9204C45.528 23.8311 46.4646 24.7677 48.3628 24.7677H49.5117C51.4099 24.7677 52.3465 23.8311 52.3465 21.9204V18.3489H50.0737M41.9814 9.32002H44.3167V24.6428H41.9814V9.32002ZM38.5972 16.126C38.5972 16.7379 38.31 17.0251 37.723 17.0251H36.7614V11.3805H37.723C38.31 11.3805 38.5972 11.6678 38.5972 12.2797V16.126ZM38.0977 9.32002H34.4387V24.6428H36.7739V19.0857H38.0977C39.9958 19.0857 40.9324 18.1491 40.9324 16.2384V12.1673C40.9324 10.2566 39.9958 9.32002 38.0977 9.32002ZM33.577 38.4921H46.9267L40.1207 40.7399L33.577 38.4921Z" fill="white"/>
</svg>
