<svg width="160" height="48" viewBox="0 0 160 48" fill="none" xmlns="http://www.w3.org/2000/svg">
<path d="M41.3587 18.4555H46.8825V31.7226H50.4136V18.4555H55.9374V15.2774H41.3587V18.4555ZM35.154 26.7789L27.7638 15.2774H23.7786V31.6973H27.1837V20.1958L34.5739 31.7226H38.559V15.3027H35.154V26.7789ZM70.0115 21.8353H62.2682V15.2774H58.7371V31.6973H62.2682V24.9881H70.0115V31.6973H73.5427V15.2774H70.0115V21.8353ZM10.8899 15.2774L4.33203 31.6973H7.9893L9.3261 28.2418H16.1866L17.5234 31.6973H21.1807L14.6228 15.2774H10.8899ZM10.5116 25.2151L12.7564 19.4392L15.0012 25.2151H10.5116ZM102.7 15C97.9581 15 94.6035 18.5312 94.6035 23.5252C94.6035 28.4688 97.9581 32 102.7 32C107.417 32 110.746 28.4688 110.746 23.5252C110.746 18.5312 107.417 15 102.7 15ZM102.7 28.7211C99.9255 28.7211 98.2356 26.7537 98.2356 23.5252C98.2356 20.2715 99.9255 18.2789 102.7 18.2789C105.449 18.2789 107.114 20.2463 107.114 23.5252C107.114 26.7285 105.449 28.7211 102.7 28.7211ZM151.909 26.1988C151.304 27.7878 150.068 28.7211 148.403 28.7211C145.629 28.7211 143.939 26.7537 143.939 23.5252C143.939 20.2715 145.629 18.2789 148.403 18.2789C150.068 18.2789 151.279 19.1869 151.909 20.8012H155.642C154.734 17.27 151.985 15 148.403 15C143.661 15 140.307 18.5312 140.307 23.5252C140.307 28.4688 143.661 32 148.403 32C151.985 32 154.734 29.7047 155.667 26.1988H151.909ZM129.486 15.2774L136.044 31.6973H139.626L133.068 15.2774H129.486ZM122.046 15.2774H114.025V31.6973H117.556V25.7448H122.071C125.804 25.7448 128.074 23.7774 128.074 20.4985C128.074 17.2448 125.779 15.2774 122.046 15.2774ZM121.894 22.592H117.556V18.4555H121.894C123.635 18.4555 124.543 19.1617 124.543 20.5237C124.543 21.8858 123.635 22.592 121.894 22.592ZM91.9047 20.2967C91.9047 17.1944 89.6347 15.3027 85.9017 15.3027H77.881V31.7226H81.4121V25.2908H85.3216L88.8528 31.7226H92.7371L88.8276 24.8116C90.7697 24.0297 91.9047 22.4659 91.9047 20.2967ZM81.3869 18.4555H85.7252C87.4655 18.4555 88.3736 19.086 88.3736 20.2967C88.3736 21.4822 87.4655 22.138 85.7252 22.138H81.3869V18.4555Z" fill="#1F1F1E"/>
</svg>
