<svg width="105" height="48" viewBox="0 0 105 48" fill="none" xmlns="http://www.w3.org/2000/svg">
<path d="M36.5841 41.1836V37.5591C36.5841 37.464 36.5247 37.4046 36.4296 37.4046H35.2412V35.9905H36.4296C36.5247 35.9905 36.5841 35.9311 36.5841 35.836V33.5662H38.2715V35.836C38.2715 35.9311 38.3309 35.9905 38.426 35.9905H40.0897V37.4046H38.426C38.3309 37.4046 38.2715 37.464 38.2715 37.5591V40.7677C38.2715 42.2769 38.8063 42.4076 39.4955 42.4076C39.7451 42.4076 40.1254 42.3719 40.3393 42.3482V43.8217C40.0541 43.8574 39.5906 43.9168 39.0558 43.9168C38.4023 43.8812 36.5841 43.8812 36.5841 41.1836ZM82.514 42.063L83.8924 41.3381C84.2014 42.063 84.7956 42.5383 85.4848 42.5383C86.0196 42.5383 86.6138 42.3125 86.6138 41.6589C86.6138 41.2192 86.3286 40.9697 85.675 40.7439L84.7362 40.4349C83.4171 40.0309 82.7635 39.2703 82.7635 38.2008C82.7635 36.8461 83.8924 35.836 85.4254 35.836C86.6494 35.836 87.6833 36.5015 88.1824 37.5353L86.8039 38.2959C86.4949 37.6304 85.9958 37.262 85.4017 37.262C84.8075 37.262 84.4034 37.571 84.4034 38.0463C84.4034 38.4504 84.7124 38.7712 85.3422 38.9614L86.281 39.2703C87.6595 39.71 88.3131 40.4706 88.3131 41.5045C88.3131 43.1444 86.9109 43.9881 85.4967 43.9881C84.0826 43.9525 82.9536 43.2276 82.514 42.063ZM77.3208 40.6488C77.2852 40.6845 77.2614 40.7083 77.2614 40.7439V43.7623H75.5383V32.5918H77.2614V38.6999C77.2614 38.7594 77.2971 38.8307 77.3565 38.8307C77.4159 38.8663 77.4872 38.8307 77.511 38.795L80.2917 35.9667H82.3832L79.139 39.2585C79.0796 39.3179 79.0796 39.3892 79.139 39.4486L82.6684 43.7623H80.5769L77.8556 40.3636C77.82 40.328 77.7962 40.3042 77.7605 40.3042C77.7249 40.3042 77.7011 40.3042 77.6655 40.3399L77.3208 40.6488ZM74.6946 37.0244L73.6013 38.0582C72.9715 37.5829 72.3535 37.369 71.6643 37.369C70.2264 37.369 69.1568 38.4385 69.1568 39.8883C69.1568 41.3381 70.2264 42.4076 71.6643 42.4076C72.2941 42.4076 72.9477 42.1818 73.6369 41.7184L74.6114 42.7522C73.2091 43.7861 72.4486 43.9762 71.486 43.9762C70.3333 43.9762 69.2995 43.5722 68.5508 42.8116C67.8259 42.0867 67.4219 41.0172 67.4219 39.8883C67.4219 37.5235 69.145 35.8004 71.5217 35.8004C72.2822 35.8004 73.4468 35.9192 74.6946 37.0244ZM66.6257 33.6613C66.6257 34.2317 66.1622 34.6952 65.5918 34.6952C65.0333 34.6952 64.5579 34.2198 64.5579 33.6613C64.5579 33.0909 65.0214 32.6274 65.5918 32.6274C66.1503 32.6156 66.6257 33.0909 66.6257 33.6613ZM66.4593 43.7623H64.7362V35.9905H66.4593V43.7623ZM60.9929 40.3636V43.798H59.2697V36.0261H60.9572V36.9649C60.9572 37.0244 60.9929 37.0957 61.0523 37.1194C61.1117 37.1551 61.183 37.1194 61.2068 37.06C61.6465 36.3351 62.4545 35.8598 63.3339 35.8598C63.4646 35.8598 63.5478 35.8598 63.6191 35.8954V37.6542C63.5241 37.6185 63.3696 37.6185 63.2151 37.6185C61.8366 37.5948 60.9929 38.6643 60.9929 40.3636ZM51.7593 39.8883C51.7593 38.4741 52.8289 37.369 54.1955 37.369C55.574 37.369 56.6316 38.4741 56.6316 39.8883C56.6316 41.3024 55.5621 42.4076 54.1955 42.4076C52.8289 42.4076 51.7593 41.3024 51.7593 39.8883ZM51.9138 42.8473C51.9495 42.8473 51.9495 42.8473 51.9733 42.8473C52.0089 42.8473 52.0683 42.8829 52.104 42.9067C52.6981 43.596 53.5775 43.9762 54.5757 43.9762C56.7029 43.9762 58.3309 42.1818 58.3309 39.8883C58.3309 38.7594 57.9507 37.7493 57.2377 36.9649C56.5484 36.2044 55.574 35.8004 54.552 35.8004C53.5775 35.8004 52.6744 36.2044 52.0802 36.9293C52.0446 36.9649 51.9851 36.9887 51.9257 36.9649C51.8663 36.9293 51.8307 36.9055 51.8307 36.8342V32.6156H50.1075V43.7861H51.8307V43.0018C51.8188 42.9067 51.8544 42.8829 51.9138 42.8473ZM44.7837 42.4076C43.4409 42.4076 42.3476 41.3024 42.3476 39.8883C42.3476 38.4741 43.4171 37.369 44.7837 37.369C46.1622 37.369 47.2198 38.4741 47.2198 39.8883C47.2198 41.3024 46.1266 42.4076 44.7837 42.4076ZM48.8241 43.7623V35.9905H47.1367V36.7748C47.1367 36.8342 47.101 36.9055 47.0416 36.9055C46.9822 36.9412 46.9109 36.9055 46.8871 36.8699C46.3286 36.1806 45.4492 35.8004 44.4153 35.8004C42.2882 35.8004 40.6601 37.5948 40.6601 39.8883C40.6601 42.1818 42.3238 43.9762 44.4153 43.9762C45.3898 43.9762 46.2929 43.5722 46.8871 42.8473C46.9227 42.7879 46.9822 42.7879 47.0416 42.8116C47.101 42.8473 47.1367 42.8711 47.1367 42.9424V43.798H48.8241V43.7623ZM30.2977 42.4076C28.9548 42.4076 27.8616 41.3024 27.8616 39.8883C27.8616 38.4741 28.9311 37.369 30.2977 37.369C31.6405 37.369 32.7338 38.4741 32.7338 39.8883C32.7338 41.3024 31.6405 42.4076 30.2977 42.4076ZM34.3381 43.7623V35.9905H32.6506V36.7748C32.6506 36.8342 32.615 36.9055 32.5556 36.9055C32.4961 36.9412 32.4248 36.9055 32.4011 36.8699C31.8425 36.1806 30.9632 35.8004 29.9293 35.8004C27.8021 35.8004 26.1741 37.5948 26.1741 39.8883C26.1741 42.1818 27.8378 43.9762 29.9293 43.9762C30.9037 43.9762 31.8069 43.5722 32.4011 42.8473C32.4367 42.7879 32.4961 42.7879 32.5556 42.8116C32.615 42.8473 32.6506 42.8711 32.6506 42.9424V43.798H34.3381V43.7623ZM21.1592 42.4076C19.7807 42.4076 18.7231 41.3024 18.7231 39.8883C18.7231 38.4741 19.7926 37.369 21.1592 37.369C22.5021 37.369 23.5954 38.4741 23.5954 39.8883C23.6072 41.3024 22.5021 42.4076 21.1592 42.4076ZM25.1996 43.7623V32.6156H23.4765V36.7986C23.4765 36.858 23.4409 36.9293 23.3815 36.9293C23.322 36.9649 23.2507 36.9293 23.227 36.8936C22.6328 36.2044 21.7534 35.8241 20.7552 35.8241C18.628 35.8241 17 37.6185 17 39.9121C17 41.041 17.3803 42.0511 18.0933 42.8354C18.7825 43.596 19.757 44 20.779 44C21.7534 44 22.6566 43.596 23.2507 42.8711C23.2864 42.8354 23.3458 42.8116 23.4052 42.8354C23.4646 42.8711 23.5003 42.8948 23.5003 42.9661V43.7861H25.1878V43.7623H25.1996Z" fill="black"/>
<path d="M61.3017 13.3167L51.9731 18.6049L42.0623 12.9721L41.5988 13.2216V17.3096L51.985 23.2276L61.3136 17.9394V20.1141L51.985 25.4023L42.0623 19.7695L41.5988 20.019V20.7083L51.985 26.6263L62.4069 20.7083V16.6203L61.9434 16.3708L51.9731 22.0036L42.6802 16.7154V14.5763L51.9731 19.8289L62.395 13.9109V9.88235L61.8602 9.59715L51.9731 15.1943L43.1793 10.1913L51.9731 5.224L59.234 9.31194L59.8876 8.96732V8.46821L51.9731 4L41.5869 9.89424V10.5241L51.9731 16.4421L61.3017 11.1539V13.3167Z" fill="#FF3621"/>
</svg>
