<svg width="120" height="48" viewBox="0 0 120 48" fill="none" xmlns="http://www.w3.org/2000/svg">
<path d="M18.8193 19.2163H20.3461L21.4656 19.3689L22.4326 19.6234L23.1959 19.9287L24.0102 20.3868L24.6209 20.8448L25.2824 21.4555L25.8931 22.2697L26.3511 23.084L26.7074 24L26.9109 24.8142V25.0687H23.5522L23.2977 24.2544L22.9924 23.6438L22.5344 23.084L22.0254 22.6768L21.2112 22.2697L20.3969 22.0662L19.9898 22.0153H19.1247L18.3104 22.1679L17.6489 22.4224L16.9364 22.8804L16.5293 23.2366L16.0712 23.8473L15.715 24.5598L15.5115 25.1705L15.3588 26.0356L15.3079 26.6463V27.4097L15.4097 28.4275L15.6641 29.3944L15.9186 30.0051L16.3257 30.6158L16.9873 31.2773L17.6489 31.6845L18.3104 31.9389L19.0738 32.0916H20.0407L20.9059 31.9389L21.6692 31.6336L22.229 31.2773L22.6361 30.9211L23.0941 30.2595L23.3486 29.6997L23.5522 29.0382H26.9109L26.8601 29.4962L26.5547 30.514L26.1985 31.3282L25.6896 32.1425L25.0789 32.8041L24.57 33.313L23.7557 33.8728L22.9924 34.2799L21.9237 34.6361L20.9059 34.8397L20.4478 34.8906H18.8193L17.7506 34.7379L16.7837 34.4835L15.9695 34.1272L15.3079 33.771L14.7481 33.3639L14.2392 32.9058L13.7303 32.3969L13.1196 31.5318L12.5598 30.3613L12.2545 29.3944L12.0509 28.173L12 27.4097V26.6463L12.1018 25.5267L12.3562 24.3562L12.7125 23.3893L13.2214 22.4224L13.6794 21.8117L14.1374 21.3028L14.5445 20.8957L15.3079 20.3359L16.2748 19.827L17.4962 19.4198L18.3613 19.2672L18.8193 19.2163Z" fill="black"/>
<path d="M99.8372 19.1145H101.262L102.127 19.2163L103.196 19.4707L104.01 19.7761L104.825 20.2341L105.333 20.6412L105.944 21.2519L106.351 21.9135L106.657 22.626L106.809 23.4402V23.8982H103.705L103.603 23.2875L103.4 22.7786L102.942 22.2697L102.382 21.9135L101.618 21.659L101.109 21.5573H99.8372L99.0739 21.7608L98.4123 22.117L98.0561 22.4733L97.8525 22.8804L97.8016 23.0331V23.6947L98.0052 24.1527L98.2596 24.4071L98.5141 24.6107L99.3283 25.0178L100.702 25.4758L102.942 26.1374L104.112 26.5445L105.181 27.0534L105.842 27.5114L106.249 27.8677L106.707 28.4784L106.962 29.0382L107.165 29.9033V31.1756L106.911 31.9898L106.555 32.6005L105.995 33.2112L105.333 33.7201L104.57 34.1272L103.603 34.4835L102.534 34.7379L101.771 34.8397H99.7863L98.7176 34.687L97.7507 34.4326L96.9365 34.1272L96.0713 33.6692L95.4606 33.2112L94.9517 32.7532L94.5446 32.2443L94.1375 31.5318L93.883 30.7684L93.7812 30.056V29.7506H97.0382L97.2418 30.514L97.598 31.0738L98.1069 31.5318L98.8703 31.9389L99.6846 32.1934L100.397 32.2952H101.109L102.229 32.1425L103.043 31.888L103.552 31.5827L103.807 31.3282L104.01 31.0229L104.112 30.6158L104.061 29.9542L103.858 29.4962L103.501 29.0891L102.789 28.6819L101.517 28.2239L98.9721 27.4606L97.4454 26.9517L96.5293 26.5445L95.8169 26.0865L95.308 25.6285L94.9517 25.1705L94.6973 24.6107L94.5446 23.8473V23.0331L94.6973 22.2697L95.1044 21.4555L95.4606 20.9975L95.9695 20.4885L96.7329 19.9796L97.6489 19.5725L98.7176 19.2672L99.8372 19.1145Z" fill="black"/>
<path d="M62.0254 19.3686L63.043 19.6235L64.1123 20.0815L64.8242 20.4887L65.4863 20.9975L66.2998 21.812L66.8604 22.6264L67.3691 23.5932L67.7256 24.6616L67.8779 25.3745L67.9795 26.2905V27.8169L67.8271 28.9868L67.5723 29.9546L67.165 30.9721L66.707 31.7358L66.1982 32.3969L65.7402 32.9057L65.1807 33.3637L64.417 33.8725L63.4502 34.3305L62.5342 34.6362L61.5166 34.8393L61.0078 34.8901H59.3789L58.3105 34.7378L57.2422 34.4321L56.4277 34.0766L55.7656 33.7202L55.2061 33.313L54.6973 32.8549L54.1377 32.2954L53.5771 31.4809L53.0684 30.5141L52.6611 29.2924L52.458 28.0708V26.0356L52.6611 24.8139L52.916 24.0005L53.1709 23.3891L53.6289 22.5239L54.0869 21.9135L54.5449 21.4048L55.0029 20.9467L55.7656 20.3872L56.7324 19.8774L57.7002 19.5219L58.9717 19.2671L59.4297 19.2163H60.957L62.0254 19.3686ZM59.7861 21.9643L58.9209 22.1167L58.1064 22.4223L57.4453 22.8296L56.7832 23.4907L56.2744 24.2544L55.9697 24.9673L55.7656 25.8325L55.6641 26.8501L55.7148 27.9184L55.8164 28.5288L56.0713 29.394L56.376 30.0053L56.834 30.6665L57.2412 31.0737L57.8525 31.5317L58.666 31.8882L59.5312 32.0913H60.8545L61.5674 31.9389L62.2285 31.6841L62.9414 31.2778L63.4502 30.8198L63.959 30.1577L64.2646 29.5981L64.5693 28.6821L64.7227 27.7153V26.3921L64.5693 25.4253L64.3662 24.7632L63.959 23.9487L63.6025 23.4399L63.1445 22.9819L62.4834 22.5239L61.6689 22.1674L60.6514 21.9643H59.7861Z" fill="black"/>
<path d="M88.1836 19.4199H91.3388V34.687H88.1836V19.4199Z" fill="black"/>
<path d="M65.4863 4.15234L66.6562 4.45801L67.7256 4.86523L68.7939 5.4248L69.6592 5.98438L70.2695 6.44238L70.8301 6.90039L71.3389 7.3584L72.5088 8.5293L72.9668 9.08887L73.5781 9.85254L74.1885 10.7178L74.9014 11.8369L75.6133 13.1094L76.377 14.6875L76.9873 16.2139L77.5469 17.8936L77.9033 19.165L78.4121 19.1143H79.583L80.6006 19.2676L81.5166 19.5723L82.2803 19.9795L82.9414 20.4883L83.501 21.0488L83.8574 21.5576L84.1631 22.0664L84.4688 22.8291L84.7227 23.7451L84.875 24.8652V34.6875H81.6689V25.8828L81.5674 24.8652L81.3135 24L80.957 23.3389L80.5498 22.8291L79.9395 22.3711L79.2773 22.0664L78.3613 21.8623L78.4629 22.3203L78.5654 23.4404L78.6162 24.5596V25.374L78.5137 26.9512L78.3105 28.377L78.0049 29.8018L77.5977 31.125L77.1914 32.2441L76.6309 33.4658L76.0713 34.5342L75.4102 35.6035L74.748 36.5195L74.0869 37.333L73.6289 37.8418L73.2725 38.249L72.5088 39.0127L72.1016 39.3691L71.4404 39.9287L70.4736 40.6416L69.71 41.1504L68.7432 41.71L67.7764 42.2188L66.4531 42.7783L64.9268 43.2871L63.7051 43.5928L62.2803 43.8477L60.5498 44H58.5137L56.6816 43.8477L55.0537 43.5928L53.7305 43.2871L52.4072 42.8809L51.0332 42.3711L49.3535 41.5576L48.3867 40.9971L47.7764 40.5898L47.0127 40.0303L46.5039 39.623L45.792 39.0127L44.6719 37.8936L44.2139 37.333L43.6543 36.6211L42.9414 35.5518L42.4326 34.6357L41.8223 33.3643L41.7207 33.1094V32.957L41.2627 33.3125L40.5498 33.8223L39.6846 34.2803L38.6162 34.6357L37.5977 34.8398L37.1396 34.8906H35.5117L34.4434 34.7383L33.374 34.4326L32.2041 33.873L31.3389 33.2617L30.4736 32.3965L29.9648 31.6846L29.5068 30.8701L29.1504 29.9541L28.8955 28.8857L28.7939 28.2236L28.7432 27.5117V26.5957L28.8447 25.4756L29.0996 24.3564L29.4043 23.4912L29.9648 22.4229L30.4229 21.8115L30.8809 21.3027L31.2881 20.8955L32.0508 20.3359L33.1201 19.7764L34.2393 19.4199L35.1045 19.2676L35.5625 19.2158H37.0381L38.1582 19.3691L39.125 19.623L40.1934 20.0811L41.0078 20.5898L41.7715 21.252L41.9746 21.4551H42.0762L42.4834 20.8955L42.9414 20.3867L43.7051 19.623L44.5703 18.9619L45.2822 18.4531L46.5039 17.6895H46.6055V14.1777H49.7607V15.7559L50.8301 15.0938L51.8984 14.3818L52.7637 13.7705L53.374 13.3125L53.9336 12.8545L54.5957 12.2949L55.2568 11.6846L56.0205 10.9209L56.377 10.5137L56.9365 9.85254L57.7002 8.83496L58.8193 7.15527L59.4814 6.18848L59.8887 5.67969L60.4482 5.06836L61.0078 4.66113L61.7207 4.30566L62.4326 4.10156L63.2471 4H64.2646L65.4863 4.15234ZM62.2803 5.11914L61.6689 5.37402L61.1602 5.73047L60.9062 5.93359L60.4482 6.49316L59.7861 7.41016L59.2266 8.27441L58.4629 9.39453L58.0049 10.0049L57.4453 10.7178L56.7842 11.4805L55.2568 13.0078L54.6973 13.4658L54.0361 14.0254L53.0693 14.7383L51.084 16.0615L49.7607 16.875V34.6875H46.6055V18.8096L46.3516 18.9111L45.2822 19.623L44.6211 20.1318L43.9082 20.7432L43.5527 21.0996L42.9922 21.8115L42.6875 22.2695L42.7383 22.5752L43.2471 23.542L43.6035 24.6104L43.8066 25.7305L43.8574 26.1885L43.9082 27.6641H41.6182V28.4277L41.7207 29.3438H43.6543L43.2471 30.5645L42.8398 31.3789L42.4834 31.9385L42.3818 32.1426L42.9414 33.5166L43.501 34.6357L44.1123 35.6035L44.6719 36.3662L45.1299 36.9258L46.0459 37.9443L46.8096 38.6562L47.5215 39.2158L48.1836 39.7256L49.1504 40.3359L50.0664 40.8447L51.3389 41.4551L52.8145 42.0156L54.2393 42.4229L55.6641 42.7275L57.0381 42.9316L58.209 43.0332H60.8555L62.6367 42.8291L64.0615 42.5244L65.334 42.168L66.8096 41.6084L68.082 40.9971L69.0488 40.4375L70.1172 39.7256L70.7783 39.2158L71.3389 38.7578L72 38.1475L73.0693 37.0791L73.5273 36.5195L74.1377 35.7559L74.6973 34.9414L75.2568 34.0254L75.8682 32.8545L76.2754 31.9902L76.7842 30.6162L77.1396 29.3438L77.3945 28.1221L77.5469 27.1045L77.6494 25.7812V24.1016L77.5469 22.7275L77.4453 21.8623L77.1914 21.8115L76.377 21.9648L75.7656 22.2188L75.2568 22.5244L74.748 22.9824L74.3916 23.3896L74.0869 23.8984L73.832 24.5596L73.6289 25.5264L73.5781 26.0869V34.6875H70.4229V19.4707H73.5781V22.1172L73.7812 21.9131L74.1377 21.4043L74.5957 20.8955L74.9521 20.5391L75.6641 20.0303L76.4785 19.623L76.9365 19.4199L76.7334 18.5547L76.3262 17.2314L75.7656 15.7051L75.0029 14.0254L74.3916 12.8545L73.7812 11.8369L73.374 11.2266L72.8652 10.5137L72.3564 9.85254L71.7461 9.13965L71.1348 8.47852L70.6768 8.02051L70.2695 7.66406L69.4561 7.00293L68.54 6.3916L67.624 5.88281L66.8096 5.52637L65.6895 5.1709L64.4688 4.9668H63.043L62.2803 5.11914ZM31.8984 28.2744L32 28.9365L32.2041 29.7002L32.6113 30.5137L32.9668 30.9717L33.5781 31.5322L34.2393 31.8877L34.9014 32.1426L35.7148 32.2949H36.9365L37.5479 32.1934L38.209 31.9902L39.0234 31.583L39.6338 31.0742L40.041 30.5645L40.3975 29.8525L40.5498 29.3438H40.7539V28.8857L40.6514 27.7148L40.6006 27.6641H31.8984V28.2744ZM35.7148 21.7607L34.9014 21.9131L34.1377 22.2188L33.374 22.7275L33.0186 23.084L32.6113 23.5928L32.3057 24.1523L32.0508 24.916L31.9492 25.4756H40.7021V25.2217L40.4482 24.3564L40.1426 23.6943L39.6846 23.084L39.2266 22.6768L38.5146 22.2188L37.751 21.9131L36.9365 21.7607H35.7148Z" fill="black"/>
<path d="M89.405 13.1094H90.1174L90.7281 13.2621L91.2879 13.6183L91.6951 14.1781L91.7968 14.4835L91.8477 15.145L91.6951 15.7557L91.3388 16.2646L90.779 16.6209L90.2192 16.7735H89.3032L88.6416 16.57L88.1836 16.2137L87.8783 15.7557L87.7256 15.2468V14.7379L87.8783 14.1781L88.1836 13.7201L88.5398 13.4147L88.947 13.2112L89.405 13.1094Z" fill="black"/>
</svg>
