<svg width="160" height="48" viewBox="0 0 160 48" fill="none" xmlns="http://www.w3.org/2000/svg">
<path fill-rule="evenodd" clip-rule="evenodd" d="M82.82 17.7068C81.9294 16.9578 80.4094 16.5837 78.2591 16.5837H73.4092V31.5716H77.0357V26.8741H78.6602C80.6318 26.8741 82.0777 26.4402 82.9978 25.5715C84.0342 24.5983 84.5557 23.3024 84.5557 21.6847C84.5557 20.0071 83.9769 18.6809 82.82 17.7068ZM78.57 23.4827H77.0357V19.9751H78.4141C80.0909 19.9751 80.9292 20.5632 80.9292 21.7394C80.9292 22.9005 80.1423 23.4827 78.57 23.4827ZM90.7614 16.5828H86.9798V31.5707H95.1445V28.1785H90.7614V16.5828ZM102.553 16.5828L96.6131 31.5707H100.684L101.463 29.3918H106.625L107.337 31.5707H111.454L105.555 16.5828H102.553ZM102.509 26.3576L104.067 21.2347L105.6 26.3576H102.509Z" fill="#111111"/>
<path fill-rule="evenodd" clip-rule="evenodd" d="M113.342 31.571H117.124V16.5832H113.342V31.571ZM131.809 19.3923C131.331 18.6996 130.718 18.1111 130.006 17.6625C128.864 16.9429 127.306 16.584 125.334 16.584H120.351V31.571H126.18C128.286 31.571 129.976 30.8826 131.252 29.5042C132.528 28.1266 133.165 26.2981 133.165 24.0206C133.165 22.2091 132.713 20.6663 131.809 19.3923ZM125.757 28.178H124.133V19.9762H125.78C126.936 19.9762 127.825 20.3385 128.449 21.0606C129.072 21.7827 129.384 22.8073 129.384 24.1335C129.384 26.8298 128.175 28.178 125.757 28.178ZM42.7032 4L30.4462 7.21025L27.0682 19.5364L31.293 23.874L27 28.14L30.1791 40.5201L42.3831 43.9301L46.6769 39.6632L50.9016 44L63.1587 40.7898L66.5357 28.4627L62.3119 24.1268L66.6048 19.8608L63.4258 7.47987L51.2201 4.06993L46.928 8.33594L42.7032 4ZM35.1815 9.58128L41.6382 7.88937L44.4617 10.7879L40.344 14.8794L35.1815 9.58128ZM49.3554 10.8266L52.2244 7.97615L58.6534 9.77254L53.4066 14.9856L49.3554 10.8266ZM30.9366 18.5245L32.7152 12.0324L37.8761 17.3305L33.7592 21.4221L30.9366 18.5236V18.5245ZM55.8324 17.4771L61.0792 12.2624L62.7525 18.784L59.8844 21.6353L55.8324 17.4771ZM42.7706 17.3701L46.8884 13.2785L50.9387 17.4375L46.8218 21.5291L42.7706 17.3701ZM36.1867 23.9128L40.3036 19.8212L44.3564 23.9802L40.2378 28.0718L36.1867 23.9128ZM49.2493 24.0198L53.3661 19.9282L57.4173 24.0872L53.2996 28.1788L49.2493 24.0198ZM30.8506 29.216L33.7205 26.3639L37.7708 30.5237L32.5257 35.7359L30.8506 29.216ZM42.6645 30.5625L46.7822 26.4709L50.8333 30.6299L46.7165 34.7215L42.6645 30.5625ZM55.7262 30.6703L59.8439 26.5787L62.6674 29.4764L60.8896 35.9685L55.7262 30.6703ZM34.9515 38.2283L40.1974 33.0135L44.2502 37.1725L41.3804 40.0247L34.9515 38.2283ZM49.1431 37.2121L53.26 33.1206L58.4217 38.4196L51.9658 40.1106L49.1431 37.2121Z" fill="#111111"/>
</svg>
