<svg width="160" height="48" viewBox="0 0 160 48" fill="none" xmlns="http://www.w3.org/2000/svg">
<path d="M123.353 4L125.212 4.08081L126.585 4.32323L127.07 4.48485V9.49495L125.697 9.25253H124.323L123.434 9.49495L122.626 9.9798L122.141 10.7071L121.899 11.3535L121.818 11.8384L121.737 13.8586H128.282V12.5657L128.444 11.0303L128.767 9.65657L129.252 8.36364L129.979 7.15152L130.868 6.10101L131.919 5.29293L133.212 4.64646L134.505 4.24242L135.394 4.08081L137.01 4L138.868 4.16162L140.161 4.48485V9.49495L138.868 9.25253H137.333L136.525 9.49495L135.798 9.9798L135.313 10.6263L134.989 11.5152L134.828 12.7273V13.7778L140.161 13.8586V18.6263L140.08 18.7071H134.828V34.8687L134.666 36.6465L134.343 38.0202L133.939 39.0707L133.293 40.2828L132.565 41.1717L131.676 41.9798L130.626 42.6263L129.414 43.1111L128.121 43.4343L126.505 43.596H125.777L124.484 43.4343L123.272 43.1111L123.191 42.7071L123.838 38.2626L124.08 38.1818L124.484 38.2626H126.181L126.909 38.0202L127.636 37.3737L128.04 36.5657L128.202 35.8384L128.282 18.7071H121.737V35.3535L121.575 36.7273L121.252 38.101L120.767 39.3131L120.04 40.5253L119.151 41.4949L118.262 42.2222L117.05 42.8687L115.838 43.2727L114.464 43.5152L112.686 43.596L111.394 43.4343L110.262 43.1111L110.101 43.0303L110.505 39.9596L110.747 38.2626L110.989 38.1818L111.555 38.2626H113.01L113.899 37.9394L114.545 37.3737L114.868 36.7273L115.111 35.8384L115.191 18.7071H112.525L112.444 18.6263V13.9394L112.525 13.8586H115.191V12.7273L115.353 11.1111L115.676 9.73737L116.161 8.44444L116.888 7.15152L117.777 6.18182L118.585 5.45455L119.717 4.80808L121.414 4.24242L122.303 4.08081L123.353 4Z" fill="#00A2FE"/>
<path d="M90.8691 13.8586H97.3338L97.4146 13.9394L97.4954 26.9495L97.8186 28.404L98.3035 29.3737L98.8691 29.9394L99.8388 30.3434H101.374L102.182 30.0202L102.829 29.4545L103.394 28.3232L103.637 27.3535L103.718 26.7071L103.798 13.8586H110.344V27.1111L110.101 28.6465L109.697 29.8586L108.97 31.2323L108.404 31.9596L107.92 32.5252L107.031 33.2525L106.142 33.8182L105.011 34.3838L103.394 34.8687L102.021 35.1111H98.9499L97.4146 34.8687L95.96 34.4646L94.5863 33.8182L93.455 33.0101L92.8085 32.3636L92.1621 31.4747L91.5156 30.1818L91.1116 28.8889L90.8691 27.3535V13.8586Z" fill="#00A2FE"/>
<path d="M39.3135 12.5652L40.6875 13.616L43.7578 15.8787L43.6768 16.2019L43.0303 17.0105L42.3037 18.3035L41.8184 19.5154L41.4951 20.8083L41.334 22.0203L41.2529 33.4949L41.0908 35.1921L40.7676 36.8884L40.2021 38.5857L39.5557 39.7976L38.8281 40.7673L37.9395 41.657L36.8887 42.3835L35.6768 43.03L33.9805 43.5964L32.2021 43.9197L31.4746 43.9998H28.1621L25.9805 43.6765L24.041 43.1921L22.4248 42.6267L21.7783 42.3035L21.8584 41.5759L22.9902 37.2927L23.3945 37.4548L24.7676 38.1013L26.2227 38.5857L27.3535 38.8279L28.0811 38.9089H30.5859L31.7979 38.5857L32.7676 38.1013L33.5762 37.3738L34.1416 36.5652L34.5459 35.4343L34.707 34.6267V33.4138L33.7373 34.1414L32.8486 34.5457L31.7178 34.8689L30.1016 35.03L28.4854 34.95L27.0303 34.6267L25.7373 34.1414L24.6875 33.5759L23.7178 32.8484L22.8281 32.0408L21.9395 30.9089L21.293 29.8582L20.7275 28.6462L20.2422 26.95L20.0811 25.9802L20 25.0105V23.7976L20.2422 21.8582L20.7275 20.1619L21.2119 19.03L21.9395 17.8181L22.5859 17.0105L23.3135 16.2019L24.1211 15.4744L25.334 14.6667L26.707 14.0203L28.0811 13.616L29.293 13.4548H30.3438L31.7178 13.616L33.4141 14.1013L34.9502 14.9089L35.7578 15.5554L36.2422 15.9597L36.6465 14.99L37.374 13.8582L38.1016 13.0505L38.9092 12.4041L39.3135 12.5652ZM30.5049 18.1414L29.7783 18.3035L28.8086 18.7878L28.0811 19.5154L27.5156 20.4041L27.0303 21.697L26.7881 22.99V25.7371L26.9502 26.7068L27.4346 28.1619L28.0811 29.2117L28.7275 29.8582L29.8584 30.4246L30.8281 30.5857L31.7178 30.5046L32.4443 30.2625L33.1719 29.7781L33.8994 28.9695L34.3838 28.0808L34.7881 26.8689L35.0303 25.2527V23.3943L34.8691 22.2625L34.5459 21.0505L34.0605 19.9998L33.4951 19.1921L32.9297 18.7068L32.1211 18.3035L31.3945 18.1414H30.5049Z" fill="#00A2FE"/>
<path d="M56.8486 13.5349L58.2227 13.8581L59.5156 14.3435L60.7275 14.99L61.7783 15.7976L62.4248 16.364L63.1523 17.2527L63.96 18.4646L64.6064 19.9196L65.0107 21.2927L65.2529 23.071V25.1716L65.0107 26.9499L64.5254 28.6462L63.8789 30.0202L63.0713 31.2321L62.1016 32.2829L61.0508 33.1716L59.5156 34.0603L58.0615 34.6267L56.7686 34.9499L55.7178 35.1111H52.8896L51.4346 34.8689L50.0615 34.4646L48.7686 33.8991L47.6367 33.1716L46.748 32.4441L45.9395 31.6364L45.0508 30.4245L44.4043 29.1316L44 27.9997L43.6768 26.7068L43.5156 25.1716V23.6364L43.6768 22.1013L44.0811 20.404L44.5664 19.1921L45.1318 18.1413L45.7783 17.2527L46.5059 16.4441L47.1523 15.7976L48.2832 14.99L49.5762 14.3435L50.8691 13.8581L52.8896 13.4548L53.7783 13.3737H55.4756L56.8486 13.5349ZM53.9395 18.0603L53.5352 18.1413L52.7275 18.4646L52 18.9499L51.4346 19.5964L50.7881 20.8083L50.3838 22.3435L50.2227 23.7976V24.7673L50.3037 25.737L50.4648 26.6267L50.7881 27.6765L51.3535 28.8083L52.0811 29.6159L52.8086 30.1013L53.6973 30.4245H55.1514L56.041 30.1013L56.7676 29.6159L57.334 28.9695L57.8994 27.9196L58.3037 26.7068L58.5459 25.0105V23.4743L58.3838 22.1814L57.9805 20.7273L57.334 19.5154L56.6875 18.8689L56.041 18.3835L54.9902 18.0603H53.9395Z" fill="#00A2FE"/>
<path d="M80.3643 13.5349L81.7373 13.8581L83.2734 14.4245L84.4043 15.071L85.374 15.7976L86.5859 17.0105L87.3945 18.2224L88.041 19.5964L88.4443 20.8884L88.6875 22.2624L88.7676 23.1511V24.9294L88.6064 26.4646L88.2832 27.9997L87.7979 29.3737L87.1514 30.6667L86.4248 31.7175L85.5352 32.6872L84.5654 33.4948L83.5156 34.1413L82.627 34.5456L81.334 34.9499L80.4443 35.1111H77.8584L76.5654 34.8689L75.2734 34.3835L74.3037 33.8181L73.8184 33.4138V43.5964H67.4346L67.3535 43.5154V23.2321L67.5967 21.6159L68 20.0808L68.6465 18.5456L69.374 17.3337L70.3438 16.2019L71.1514 15.4743L72.3643 14.6667L73.8184 14.0202L75.2734 13.6159L76.2422 13.4548L77.2119 13.3737H78.9092L80.3643 13.5349ZM77.5352 18.0603L76.5654 18.3034L75.6768 18.8689L74.9502 19.6765L74.4648 20.5652L74.0605 21.778L73.8184 23.3132V25.1716L73.9805 26.3835L74.3838 27.7575L75.0303 28.9695L75.5967 29.5349L76.3232 30.1013L77.293 30.4245H78.748L79.0713 30.3435L80.041 29.8581L80.7676 29.1316L81.334 28.2419L81.7373 27.1921L82.0605 25.657V22.9089L81.9805 22.3435L81.6572 21.0505L81.2529 20.1618L80.7676 19.3532L80.2021 18.7878L79.3945 18.3034L78.5049 18.0603H77.5352Z" fill="#00A2FE"/>
</svg>
