<svg width="160" height="48" viewBox="0 0 160 48" fill="none" xmlns="http://www.w3.org/2000/svg">
<path d="M27.0674 31.2C27.0674 32.4 26.8012 33.4662 26.2674 34.4C25.7336 35.4662 24.9336 36.2662 24.0012 37.0662C22.9864 37.921 21.8058 38.5568 20.5336 38.9338C19.2012 39.3338 17.7336 39.6 16.1336 39.6C14.6674 39.6 13.3336 39.4662 12.2674 39.3338C11.0674 39.2 10.0012 38.9338 8.93357 38.6662C7.86738 38.4 6.93356 37.8662 6.0012 37.4662C5.06738 36.9338 4.13356 36.2662 3.06738 35.6L7.73356 31.4662C9.06738 32.5338 10.4012 33.2 11.7336 33.6C13.0674 34 14.4012 34.2662 15.8674 34.2662C16.5336 34.2662 17.0674 34.1338 17.6012 34C18.1231 33.8598 18.6185 33.6347 19.0674 33.3338C19.4674 33.0662 19.7336 32.6662 20.0012 32.4C20.2674 32 20.4012 31.6 20.4012 31.2C20.4012 30.6662 20.2674 30.2662 20.1336 29.8662C20.0012 29.4662 19.6012 29.0662 19.0674 28.8C18.5336 28.4 17.8674 28.1338 16.9336 27.7338C15.8085 27.251 14.6501 26.85 13.4674 26.5338C12.2674 26.1338 11.0674 25.7338 9.86738 25.2C8.66738 24.6662 7.73356 24 6.93356 23.3338C6.13356 22.6662 5.33356 21.7338 4.93356 20.8C4.26738 19.6 4.0012 18.4 4.0012 17.0662C4.0012 15.7338 4.26738 14.5338 4.8012 13.4662C5.33356 12.4 6.13356 11.4662 7.2012 10.6662C8.13356 10 9.33357 9.33382 10.6674 8.93382C12.0012 8.53382 13.4674 8.26618 14.9336 8.26618C17.4674 8.26618 19.7336 8.53382 21.4674 9.2C23.2012 9.86618 24.8012 10.6662 26.1336 11.8662L21.6012 16C20.8012 15.3338 19.8674 14.6662 18.8012 14.2662C17.7336 13.8662 16.5336 13.7338 15.2012 13.7338C14.5336 13.7338 14.0012 13.8662 13.4674 14C12.8012 14.1338 12.4012 14.4 12.0012 14.6662C11.6012 14.9338 11.3336 15.3338 11.0674 15.7338C10.8012 16.1338 10.6674 16.5338 10.6674 16.9338C10.6674 17.4662 10.8012 17.8662 11.0674 18.2662C11.2012 18.6662 11.6012 18.9338 12.1336 19.3338C12.6674 19.7338 13.3336 20 14.2674 20.4C15.2012 20.8 16.2674 21.2 17.6012 21.6C19.3336 22.1338 20.6674 22.6662 21.8674 23.3338C23.0674 24 24.0012 24.6662 24.8012 25.4662C25.6012 26.2662 26.1336 27.0662 26.5336 28C26.9336 28.9338 27.0674 30 27.0674 31.2ZM64.5336 39.2H58.0012V25.8662H45.8674V39.2H39.3336V8.93382H45.8674V20.9338H58.0012V8.93382H64.5336V39.2ZM100.667 39.2H76.8012V8.93382H100.667V13.7338H83.2012V20.9338H99.3336V25.6H83.2012V33.8662H100.667V39.2ZM120.001 39.2H113.467V8.93382H120.001V39.2ZM156.934 8.93382V40L138.667 24.1338V38.9338H132.267V8L150.534 23.8662V8.93382H156.934Z" fill="black"/>
</svg>
