<svg width="160" height="48" viewBox="0 0 160 48" fill="none" xmlns="http://www.w3.org/2000/svg">
<path d="M105.44 12.848C102.896 12.848 100.904 13.76 99.08 15.656V13.28H94.064V36.584H99.464V23.072C99.464 19.976 101.312 18.032 104.096 18.032C104.6 18.032 105.056 18.104 105.368 18.152L109.112 13.232C107.648 12.968 106.4 12.848 105.44 12.848ZM152 13.28L145.784 13.28L140.024 20.888L134.264 13.28L128.048 13.28L136.832 25.016L128.048 36.584H134.408L140 29.216L145.592 36.584H152L143.144 25.04L152 13.28ZM38.624 8.048C36.776 10.52 36.344 11.336 34.568 11.336L8 11.336L8 42.92H18.416C20.768 42.92 23.048 41.792 24.512 39.896C26.408 37.376 26.672 36.608 28.52 36.608L55.136 36.608L55.136 5.024L44.648 5.024C42.296 5.024 40.016 6.152 38.624 8.048ZM46.88 28.448H35.768C33.344 28.448 31.136 29.456 29.672 31.424C27.776 33.944 27.392 34.712 25.616 34.712H16.184L16.184 19.568H27.296C29.72 19.568 31.928 18.44 33.392 16.544C35.288 14.072 35.816 13.328 37.52 13.328L46.856 13.328V28.448H46.88ZM86.768 20.672C89.12 19.352 90.776 17 90.776 13.904C90.776 9.368 87.272 5 82.208 5L66.968 5V36.584L82.184 36.584C87.704 36.584 91.52 32.672 91.52 27.752C91.52 24.848 90.2 22.328 86.768 20.672ZM72.344 9.944L81.752 9.944C84.104 9.944 85.496 12.152 85.496 14.12C85.496 16.52 83.408 18.152 81.44 18.152H72.344V9.944ZM81.416 31.664L72.344 31.664V23.072L81.752 23.072C84.176 23.072 86.144 25.16 86.144 27.296C86.12 29.696 83.648 31.664 81.416 31.664ZM122.648 29.888C121.76 31.28 120.032 32.096 118.136 32.096C115.16 32.096 112.664 30.08 112.664 26.984H128.792C129.056 26.048 129.104 25.592 129.104 24.776C129.104 17.696 124.712 12.848 118.112 12.848C111.632 12.848 107.048 17.456 107.048 24.968C107.048 32.288 111.44 37.04 118.232 37.04C123.008 37.04 127.184 34.712 128.384 29.912C128.432 29.888 122.648 29.888 122.648 29.888ZM118.136 17.768C121.112 17.768 123.416 19.664 123.344 22.496H112.736C112.736 19.736 115.16 17.768 118.136 17.768Z" fill="#212121"/>
</svg>
