<svg width="160" height="48" viewBox="0 0 160 48" fill="none" xmlns="http://www.w3.org/2000/svg">
<path d="M64.522 26.4041L61.8412 19.1778C61.7318 18.8823 61.3138 18.8823 61.2042 19.1778L58.5239 26.4045C58.5049 26.4559 58.4985 26.5111 58.5055 26.5654C58.5124 26.6198 58.5323 26.6716 58.5636 26.7166C58.5949 26.7616 58.6367 26.7983 58.6852 26.8236C58.7338 26.849 58.7877 26.8622 58.8425 26.8622H64.2033C64.2581 26.8622 64.3121 26.8489 64.3606 26.8236C64.4092 26.7982 64.4509 26.7614 64.4822 26.7164C64.5134 26.6715 64.5334 26.6196 64.5403 26.5652C64.5472 26.5109 64.5408 26.4557 64.5217 26.4043M65.7603 30.4658H57.2858C57.2164 30.4658 57.1488 30.4871 57.0918 30.5266C57.0349 30.5662 56.9915 30.6223 56.9674 30.6873L55.2989 35.1837C55.2748 35.2487 55.2314 35.3047 55.1745 35.3443C55.1175 35.3839 55.0499 35.4051 54.9805 35.4051H51.3074C51.2519 35.4051 51.1972 35.3915 51.1482 35.3655C51.0991 35.3394 51.0572 35.3018 51.0261 35.2558C50.995 35.2098 50.9756 35.1568 50.9697 35.1016C50.9638 35.0464 50.9715 34.9906 50.9922 34.9391L59.4488 13.8723C59.4741 13.8094 59.5177 13.7555 59.5739 13.7175C59.6301 13.6796 59.6964 13.6594 59.7643 13.6594H63.2814C63.42 13.6594 63.5447 13.7437 63.5966 13.8723L72.053 34.9388C72.0738 34.9904 72.0815 35.0463 72.0757 35.1015C72.0698 35.1568 72.0505 35.2098 72.0193 35.2559C71.9882 35.3019 71.9463 35.3396 71.8972 35.3657C71.8481 35.3918 71.7933 35.4054 71.7378 35.4054H68.0653C67.996 35.4053 67.9283 35.3841 67.8713 35.3444C67.8144 35.3048 67.771 35.2487 67.7469 35.1837L66.0783 30.6873C66.0541 30.6223 66.0107 30.5662 65.9538 30.5266C65.8969 30.4871 65.8292 30.4658 65.7598 30.4658M73.774 21.0528H76.9156C77.0057 21.0528 77.0921 21.0886 77.1558 21.1523C77.2195 21.216 77.2553 21.3024 77.2553 21.3925V35.0654C77.2553 35.1555 77.2195 35.2419 77.1558 35.3056C77.0921 35.3693 77.0057 35.4051 76.9156 35.4051H73.774C73.6839 35.4051 73.5975 35.3693 73.5338 35.3056C73.47 35.2419 73.4343 35.1555 73.4343 35.0654V21.3923C73.4343 21.3022 73.47 21.2158 73.5338 21.1521C73.5975 21.0884 73.6839 21.0528 73.774 21.0528ZM88.7129 24.3787C88.7129 24.4688 88.6771 24.5552 88.6134 24.6189C88.5497 24.6827 88.4633 24.7184 88.3732 24.7184H88.278C86.7247 24.7184 85.5853 25.0912 84.8606 25.8368C84.1354 26.5823 83.7735 27.8148 83.7735 29.5337V35.0654C83.7735 35.1555 83.7378 35.2419 83.674 35.3056C83.6103 35.3693 83.5239 35.4051 83.4338 35.4051H80.323C80.2329 35.4051 80.1465 35.3693 80.0828 35.3056C80.0191 35.2419 79.9833 35.1555 79.9833 35.0654V21.3923C79.9833 21.3022 80.0191 21.2158 80.0828 21.1521C80.1465 21.0884 80.2329 21.0526 80.323 21.0526H83.4026C83.4927 21.0526 83.5791 21.0884 83.6428 21.1521C83.7065 21.2158 83.7423 21.3022 83.7423 21.3923V24.0968H83.8046C84.1773 22.9785 84.7675 22.1195 85.5756 21.5184C86.3829 20.918 87.3771 20.6175 88.5575 20.6175H88.7129V24.3787ZM97.3029 24.2524C97.2128 24.2524 97.1264 24.2882 97.0627 24.3519C96.999 24.4156 96.9632 24.502 96.9632 24.5921V30.2792C96.9632 30.8592 97.0764 31.2734 97.3047 31.5218C97.5323 31.7703 97.9259 31.8946 98.4851 31.8946H98.7978C98.8879 31.8946 98.9743 31.9304 99.038 31.9941C99.1017 32.0578 99.1375 32.1442 99.1375 32.2343V35.0962C99.1375 35.1863 99.1017 35.2727 99.038 35.3364C98.9743 35.4002 98.8879 35.4359 98.7978 35.4359H97.4598C96.0723 35.4359 95.0058 35.0788 94.2603 34.3643C93.5145 33.6498 93.1417 32.5888 93.1417 31.1801V24.5921C93.1417 24.502 93.1059 24.4156 93.0422 24.3519C92.9785 24.2882 92.8921 24.2524 92.802 24.2524H90.841C90.7509 24.2524 90.6645 24.2166 90.6008 24.1529C90.5371 24.0892 90.5013 24.0028 90.5013 23.9127V21.3923C90.5013 21.3022 90.5371 21.2158 90.6008 21.1521C90.6645 21.0884 90.7509 21.0526 90.841 21.0526H92.8022C92.8923 21.0526 92.9788 21.0168 93.0425 20.9531C93.1062 20.8894 93.142 20.803 93.142 20.7129V15.6451C93.142 15.555 93.1777 15.4686 93.2414 15.4049C93.3052 15.3412 93.3916 15.3054 93.4817 15.3054H96.6233C96.7134 15.3054 96.7998 15.3412 96.8635 15.4049C96.9272 15.4686 96.963 15.555 96.963 15.6451V20.7129C96.963 20.803 96.9988 20.8894 97.0625 20.9531C97.1262 21.0168 97.2126 21.0526 97.3027 21.0526H99.5744C99.6645 21.0526 99.7509 21.0884 99.8146 21.1521C99.8783 21.2158 99.9141 21.3022 99.9141 21.3923V23.9129C99.9141 24.003 99.8783 24.0894 99.8146 24.1531C99.7509 24.2168 99.6645 24.2526 99.5744 24.2526L97.3029 24.2524ZM111.689 31.1491C112.403 30.4035 112.76 29.4302 112.76 28.2287C112.76 27.028 112.403 26.0542 111.689 25.3086C110.974 24.5631 110.037 24.1903 108.877 24.1903C107.717 24.1903 106.78 24.5631 106.065 25.3086C105.351 26.0542 104.994 27.028 104.994 28.2287C104.994 29.4302 105.351 30.4035 106.065 31.1491C106.78 31.8946 107.717 32.2674 108.877 32.2674C110.037 32.2674 110.974 31.8946 111.689 31.1491ZM104.435 34.9701C103.378 34.3697 102.545 33.4944 101.934 32.3451C101.323 31.1957 101.017 29.8238 101.017 28.2287C101.017 26.6344 101.323 25.262 101.934 24.1126C102.545 22.9633 103.378 22.0887 104.435 21.4876C105.491 20.887 106.65 20.5867 107.914 20.5867C109.032 20.5867 109.99 20.8041 110.788 21.239C111.585 21.6738 112.221 22.285 112.698 23.072H112.76V21.3923C112.76 21.3022 112.796 21.2158 112.86 21.1521C112.923 21.0884 113.01 21.0526 113.1 21.0526H116.21C116.301 21.0526 116.387 21.0884 116.451 21.1521C116.514 21.2158 116.55 21.3022 116.55 21.3923V35.0652C116.55 35.1553 116.514 35.2417 116.451 35.3054C116.387 35.3691 116.301 35.4049 116.21 35.4049H113.1C113.01 35.4049 112.923 35.3691 112.86 35.3054C112.796 35.2417 112.76 35.1553 112.76 35.0652V33.3857H112.698C112.221 34.1731 111.585 34.7837 110.788 35.2185C109.99 35.6534 109.032 35.8708 107.914 35.8708C106.65 35.8708 105.491 35.5705 104.435 34.9701ZM129.487 31.1491C130.201 30.4035 130.559 29.4302 130.559 28.2287C130.559 27.028 130.201 26.0542 129.487 25.3086C128.773 24.5631 127.835 24.1903 126.675 24.1903C125.515 24.1903 124.579 24.5631 123.864 25.3086C123.15 26.0542 122.792 27.028 122.792 28.2287C122.792 29.4302 123.15 30.4035 123.864 31.1491C124.579 31.8946 125.515 32.2674 126.675 32.2674C127.835 32.2674 128.773 31.8946 129.487 31.1491ZM124.765 35.2185C123.968 34.7837 123.33 34.1731 122.854 33.3857H122.792V35.0652C122.792 35.1553 122.756 35.2417 122.693 35.3054C122.629 35.3691 122.543 35.4049 122.452 35.4049H119.311C119.221 35.4049 119.134 35.3691 119.071 35.3054C119.007 35.2417 118.971 35.1553 118.971 35.0652V13.9985C118.971 13.9084 119.007 13.822 119.071 13.7583C119.134 13.6945 119.221 13.6588 119.311 13.6588H122.452C122.543 13.6588 122.629 13.6945 122.693 13.7583C122.756 13.822 122.792 13.9084 122.792 13.9985V23.0718H122.854C123.33 22.2848 123.968 21.6738 124.765 21.239C125.562 20.8039 126.52 20.5865 127.639 20.5865C128.902 20.5865 130.062 20.8868 131.118 21.4874C132.174 22.0884 133.008 22.9631 133.619 24.1122C134.229 25.2622 134.535 26.6346 134.535 28.229C134.535 29.824 134.229 31.1957 133.619 32.3453C133.008 33.4946 132.174 34.3699 131.118 34.9701C130.062 35.5707 128.902 35.8712 127.639 35.8712C126.52 35.8712 125.562 35.6538 124.765 35.2188M139.828 35.4051H136.687C136.597 35.4051 136.51 35.3693 136.447 35.3056C136.383 35.2419 136.347 35.1555 136.347 35.0654V13.9991C136.347 13.909 136.383 13.8226 136.447 13.7589C136.51 13.6952 136.597 13.6594 136.687 13.6594H139.828C139.919 13.6594 140.005 13.6952 140.069 13.7589C140.132 13.8226 140.168 13.909 140.168 13.9991V35.0654C140.168 35.1555 140.132 35.2419 140.069 35.3056C140.005 35.3693 139.919 35.4051 139.828 35.4051ZM147.239 24.3769C146.718 24.7832 146.366 25.3698 146.184 26.1371C146.134 26.3486 146.299 26.5515 146.517 26.5515H152.496C152.703 26.5515 152.866 26.3658 152.833 26.1611C152.713 25.4352 152.402 24.8566 151.899 24.4236C151.309 23.9163 150.537 23.6626 149.584 23.6626C148.632 23.6626 147.85 23.9007 147.239 24.3769ZM154.897 22.5905C156.118 23.9267 156.729 25.8166 156.729 28.26V28.6658C156.729 28.7559 156.694 28.8423 156.63 28.906C156.566 28.9697 156.48 29.0055 156.39 29.0055H146.401C146.352 29.0056 146.303 29.0166 146.258 29.0376C146.212 29.0587 146.172 29.0893 146.14 29.1274C146.108 29.1655 146.085 29.2101 146.072 29.2581C146.059 29.3062 146.057 29.3564 146.065 29.4055C146.225 30.3132 146.626 31.0343 147.27 31.5685C148.005 32.18 148.932 32.485 150.05 32.485C151.494 32.485 152.831 31.9216 154.059 30.7944C154.21 30.6567 154.448 30.6859 154.564 30.8533L156.091 33.0455C156.139 33.1137 156.16 33.1971 156.151 33.2799C156.141 33.3626 156.101 33.439 156.039 33.4944C155.29 34.1506 154.456 34.7044 153.561 35.1411C152.566 35.6275 151.396 35.8712 150.05 35.8712C148.497 35.8712 147.14 35.5551 145.981 34.9237C144.821 34.2923 143.92 33.4018 143.278 32.252C142.636 31.1027 142.315 29.7721 142.315 28.26C142.315 26.7485 142.626 25.4128 143.247 24.2526C143.868 23.0931 144.738 22.1922 145.857 21.5499C146.975 20.9083 148.28 20.5869 149.771 20.5869C151.965 20.5869 153.674 21.255 154.897 22.5905ZM77.6656 15.998C77.6656 17.2793 76.6268 18.3182 75.3452 18.3182C74.0634 18.3182 73.0246 17.2793 73.0246 15.9977C73.0246 14.7161 74.0636 13.6773 75.3452 13.6773C76.6268 13.6773 77.6656 14.7164 77.6656 15.998Z" fill="#333333"/>
<path d="M20.6205 7.53203L5.68255 13.7131C4.85185 14.0569 4.86046 15.237 5.69636 15.5683L20.6966 21.5168C22.0146 22.0395 23.4823 22.0395 24.8003 21.5168L39.8008 15.5681C40.6365 15.237 40.6455 14.0571 39.8144 13.7133L24.8768 7.5318C23.514 6.96788 21.9831 6.96788 20.6203 7.5318" fill="#FCB400"/>
<path d="M24.0791 24.7649V39.6252C24.0791 40.3318 24.7918 40.816 25.4488 40.5555L42.1637 34.0676C42.3501 33.9937 42.51 33.8655 42.6227 33.6996C42.7354 33.5337 42.7956 33.3378 42.7955 33.1373V18.2772C42.7955 17.5703 42.0828 17.0864 41.4258 17.3468L24.711 23.8347C24.5246 23.9087 24.3647 24.0369 24.252 24.2028C24.1394 24.3687 24.0791 24.5643 24.0791 24.7649Z" fill="#18BFFF"/>
<path d="M20.1763 25.5317L15.2157 27.9268L14.7121 28.1703L4.2405 33.1878C3.57695 33.508 2.72949 33.0242 2.72949 32.2869V18.3394C2.72949 18.0727 2.86628 17.8423 3.04972 17.6691C3.12498 17.5941 3.21036 17.5301 3.30337 17.4788C3.55339 17.3287 3.91031 17.2886 4.21378 17.4086L20.093 23.7004C20.9001 24.0207 20.9635 25.1514 20.1763 25.5317Z" fill="#F82B60"/>
<path d="M20.1764 25.5317L15.2158 27.9268L3.0498 17.6689C3.12508 17.594 3.21045 17.53 3.30345 17.4788C3.55348 17.3287 3.91039 17.2886 4.21386 17.4086L20.0931 23.7004C20.9002 24.0207 20.9636 25.1514 20.1764 25.5317Z" fill="black" fill-opacity="0.25"/>
</svg>
