<svg width="160" height="48" viewBox="0 0 160 48" fill="none" xmlns="http://www.w3.org/2000/svg">
<path d="M142.489 31.2471C142.372 31.252 142.259 31.2945 142.168 31.3681C142.076 31.4418 142.011 31.5428 141.981 31.6564C140.7 35.3115 138.969 37.4891 137.545 37.4891C136.726 37.4891 136.394 36.5763 136.394 35.1437C136.394 31.5623 138.539 23.9695 139.62 20.5068C139.739 20.1466 139.808 19.772 139.824 19.3934C139.824 18.3865 139.276 17.8913 137.913 17.8913C136.443 17.8913 134.864 18.4643 133.325 21.1658C132.792 18.7918 131.188 17.7521 128.941 17.7521C126.346 17.7521 123.841 19.4221 121.778 22.1276C119.715 24.8332 117.275 25.7214 115.466 25.2834C116.78 22.0703 117.267 19.6718 117.267 17.8872C117.267 15.0916 115.888 13.4052 113.653 13.4052C110.26 13.4052 108.303 16.6429 108.303 20.0483C108.303 22.6802 109.498 25.3694 112.122 26.6996C109.92 31.6769 106.711 36.1752 105.491 36.1752C103.915 36.1752 103.445 28.4679 103.543 22.9544C103.6 19.7905 103.862 19.6308 103.862 18.6731C103.862 18.1246 103.506 17.748 102.074 17.748C98.7377 17.748 97.7062 20.5723 97.5466 23.8181C97.4967 25.0504 97.3044 26.2728 96.9736 27.461C95.5778 32.4382 92.7045 36.212 90.8339 36.212C89.9662 36.212 89.7288 35.3443 89.7288 34.2064C89.7288 30.6249 91.7344 26.1512 91.7344 22.3364C91.7344 19.5285 90.5065 17.7562 88.1857 17.7562C85.4556 17.7562 81.8413 21.0061 78.4236 27.0967C79.5492 22.4346 80.0117 17.9199 76.6799 17.9199C75.9579 17.9303 75.249 18.1142 74.6129 18.4561C74.3991 18.556 74.2202 18.718 74.0998 18.9209C73.9793 19.1239 73.9228 19.3584 73.9375 19.594C74.2568 24.5589 69.9386 37.2721 65.8414 37.2721C65.0964 37.2721 64.7362 36.4535 64.7362 35.1642C64.7362 31.5745 66.8728 24.0023 67.9493 20.5313C68.077 20.1522 68.1487 19.7564 68.1622 19.3566C68.1622 18.407 67.5728 17.9199 66.2425 17.9199C64.7813 17.9199 63.1931 18.4766 61.6623 21.1698C61.1261 18.7958 59.5175 17.7562 57.2745 17.7562C53.5907 17.7562 49.4976 21.6487 47.6721 26.7242C45.253 33.4983 40.3781 40.0432 33.8128 40.0432C27.8573 40.0432 24.7138 35.0864 24.7138 27.2563C24.7138 15.947 33.0146 6.70889 39.1707 6.70889C42.1136 6.70889 43.5216 8.58353 43.5216 11.461C43.5216 14.9442 41.5774 16.561 41.5774 17.8872C41.5774 18.2965 41.913 18.7058 42.5843 18.7058C45.2612 18.7058 48.4088 15.5623 48.4088 11.2727C48.4088 6.98312 44.9174 3.82324 38.7573 3.82324C28.5818 3.82324 18.3408 14.056 18.3408 27.1826C18.3408 37.6201 23.49 43.9153 32.3966 43.9153C38.4707 43.9153 43.7795 39.1918 46.6406 33.6825C46.9639 38.2504 49.0392 40.6408 52.2031 40.6408C55.0151 40.6408 57.2909 38.9667 59.0304 36.0197C59.6976 39.1018 61.4863 40.608 63.7825 40.608C66.4267 40.608 68.6411 38.934 70.7408 35.8191C70.7081 38.275 71.2647 40.563 73.385 40.563C74.3837 40.563 75.5789 40.3297 75.7917 39.4579C78.0225 30.232 83.5359 22.7007 85.2059 22.7007C85.7052 22.7007 85.8444 23.1837 85.8444 23.7526C85.8444 26.2576 84.0762 31.3985 84.0762 34.6771C84.0762 38.2217 85.5825 40.5671 88.6973 40.5671C92.1478 40.5671 95.6556 36.343 97.9928 30.1665C98.7254 35.9378 100.305 40.5917 102.782 40.5917C105.819 40.5917 111.214 34.1982 114.484 27.4282C116.259 27.6894 118.066 27.265 119.539 26.2412C118.73 28.2636 118.306 30.4196 118.29 32.5978C118.29 38.8807 121.291 40.6408 123.874 40.6408C126.681 40.6408 128.957 38.9667 130.701 36.0197C131.274 38.6761 132.747 40.5998 135.445 40.5998C139.669 40.5998 143.34 36.2816 143.34 32.737C143.357 31.8038 142.956 31.2471 142.489 31.2471ZM54.7859 37.1616C53.0791 37.1616 52.4119 35.4425 52.4119 32.8802C52.4119 28.431 55.4572 21.0102 58.6743 21.0102C60.0824 21.0102 60.6104 22.6475 60.6104 24.694C60.6104 29.2005 57.7165 37.1616 54.7859 37.1616ZM113.236 23.8795C112.288 22.639 111.798 21.1092 111.848 19.549C111.848 17.7357 112.511 16.2049 113.305 16.2049C114.099 16.2049 114.345 16.9867 114.345 18.0755C114.341 19.8928 113.69 22.5492 113.236 23.8795ZM126.469 37.1616C124.762 37.1616 124.095 35.1847 124.095 32.8802C124.095 28.5866 127.14 21.0102 130.382 21.0102C131.79 21.0102 132.289 22.6475 132.289 24.694C132.289 29.2005 129.444 37.1616 126.469 37.1616Z" fill="url(#paint0_linear_10565_45558)"/>
<path d="M142.489 31.2471C142.372 31.252 142.259 31.2945 142.168 31.3681C142.076 31.4418 142.011 31.5428 141.981 31.6564C140.7 35.3115 138.969 37.4891 137.545 37.4891C136.726 37.4891 136.394 36.5763 136.394 35.1437C136.394 31.5623 138.539 23.9695 139.62 20.5068C139.739 20.1466 139.808 19.772 139.824 19.3934C139.824 18.3865 139.276 17.8913 137.913 17.8913C136.443 17.8913 134.864 18.4643 133.325 21.1658C132.792 18.7918 131.188 17.7521 128.941 17.7521C126.346 17.7521 123.841 19.4221 121.778 22.1276C119.715 24.8332 117.275 25.7214 115.466 25.2834C116.78 22.0703 117.267 19.6718 117.267 17.8872C117.267 15.0916 115.888 13.4052 113.653 13.4052C110.26 13.4052 108.303 16.6429 108.303 20.0483C108.303 22.6802 109.498 25.3694 112.122 26.6996C109.92 31.6769 106.711 36.1752 105.491 36.1752C103.915 36.1752 103.445 28.4679 103.543 22.9544C103.6 19.7905 103.862 19.6308 103.862 18.6731C103.862 18.1246 103.506 17.748 102.074 17.748C98.7377 17.748 97.7062 20.5723 97.5466 23.8181C97.4967 25.0504 97.3044 26.2728 96.9736 27.461C95.5778 32.4382 92.7045 36.212 90.8339 36.212C89.9662 36.212 89.7288 35.3443 89.7288 34.2064C89.7288 30.6249 91.7344 26.1512 91.7344 22.3364C91.7344 19.5285 90.5065 17.7562 88.1857 17.7562C85.4556 17.7562 81.8413 21.0061 78.4236 27.0967C79.5492 22.4346 80.0117 17.9199 76.6799 17.9199C75.9579 17.9303 75.249 18.1142 74.6129 18.4561C74.3991 18.556 74.2202 18.718 74.0998 18.9209C73.9793 19.1239 73.9228 19.3584 73.9375 19.594C74.2568 24.5589 69.9386 37.2721 65.8414 37.2721C65.0964 37.2721 64.7362 36.4535 64.7362 35.1642C64.7362 31.5745 66.8728 24.0023 67.9493 20.5313C68.077 20.1522 68.1487 19.7564 68.1622 19.3566C68.1622 18.407 67.5728 17.9199 66.2425 17.9199C64.7813 17.9199 63.1931 18.4766 61.6623 21.1698C61.1261 18.7958 59.5175 17.7562 57.2745 17.7562C53.5907 17.7562 49.4976 21.6487 47.6721 26.7242C45.253 33.4983 40.3781 40.0432 33.8128 40.0432C27.8573 40.0432 24.7138 35.0864 24.7138 27.2563C24.7138 15.947 33.0146 6.70889 39.1707 6.70889C42.1136 6.70889 43.5216 8.58353 43.5216 11.461C43.5216 14.9442 41.5774 16.561 41.5774 17.8872C41.5774 18.2965 41.913 18.7058 42.5843 18.7058C45.2612 18.7058 48.4088 15.5623 48.4088 11.2727C48.4088 6.98312 44.9174 3.82324 38.7573 3.82324C28.5818 3.82324 18.3408 14.056 18.3408 27.1826C18.3408 37.6201 23.49 43.9153 32.3966 43.9153C38.4707 43.9153 43.7795 39.1918 46.6406 33.6825C46.9639 38.2504 49.0392 40.6408 52.2031 40.6408C55.0151 40.6408 57.2909 38.9667 59.0304 36.0197C59.6976 39.1018 61.4863 40.608 63.7825 40.608C66.4267 40.608 68.6411 38.934 70.7408 35.8191C70.7081 38.275 71.2647 40.563 73.385 40.563C74.3837 40.563 75.5789 40.3297 75.7917 39.4579C78.0225 30.232 83.5359 22.7007 85.2059 22.7007C85.7052 22.7007 85.8444 23.1837 85.8444 23.7526C85.8444 26.2576 84.0762 31.3985 84.0762 34.6771C84.0762 38.2217 85.5825 40.5671 88.6973 40.5671C92.1478 40.5671 95.6556 36.343 97.9928 30.1665C98.7254 35.9378 100.305 40.5917 102.782 40.5917C105.819 40.5917 111.214 34.1982 114.484 27.4282C116.259 27.6894 118.066 27.265 119.539 26.2412C118.73 28.2636 118.306 30.4196 118.29 32.5978C118.29 38.8807 121.291 40.6408 123.874 40.6408C126.681 40.6408 128.957 38.9667 130.701 36.0197C131.274 38.6761 132.747 40.5998 135.445 40.5998C139.669 40.5998 143.34 36.2816 143.34 32.737C143.357 31.8038 142.956 31.2471 142.489 31.2471ZM54.7859 37.1616C53.0791 37.1616 52.4119 35.4425 52.4119 32.8802C52.4119 28.431 55.4572 21.0102 58.6743 21.0102C60.0824 21.0102 60.6104 22.6475 60.6104 24.694C60.6104 29.2005 57.7165 37.1616 54.7859 37.1616ZM113.236 23.8795C112.288 22.639 111.798 21.1092 111.848 19.549C111.848 17.7357 112.511 16.2049 113.305 16.2049C114.099 16.2049 114.345 16.9867 114.345 18.0755C114.341 19.8928 113.69 22.5492 113.236 23.8795ZM126.469 37.1616C124.762 37.1616 124.095 35.1847 124.095 32.8802C124.095 28.5866 127.14 21.0102 130.382 21.0102C131.79 21.0102 132.289 22.6475 132.289 24.694C132.289 29.2005 129.444 37.1616 126.469 37.1616Z" fill="url(#paint1_radial_10565_45558)"/>
<path d="M142.489 31.2471C142.372 31.252 142.259 31.2945 142.168 31.3681C142.076 31.4418 142.011 31.5428 141.981 31.6564C140.7 35.3115 138.969 37.4891 137.545 37.4891C136.726 37.4891 136.394 36.5763 136.394 35.1437C136.394 31.5623 138.539 23.9695 139.62 20.5068C139.739 20.1466 139.808 19.772 139.824 19.3934C139.824 18.3865 139.276 17.8913 137.913 17.8913C136.443 17.8913 134.864 18.4643 133.325 21.1658C132.792 18.7918 131.188 17.7521 128.941 17.7521C126.346 17.7521 123.841 19.4221 121.778 22.1276C119.715 24.8332 117.275 25.7214 115.466 25.2834C116.78 22.0703 117.267 19.6718 117.267 17.8872C117.267 15.0916 115.888 13.4052 113.653 13.4052C110.26 13.4052 108.303 16.6429 108.303 20.0483C108.303 22.6802 109.498 25.3694 112.122 26.6996C109.92 31.6769 106.711 36.1752 105.491 36.1752C103.915 36.1752 103.445 28.4679 103.543 22.9544C103.6 19.7905 103.862 19.6308 103.862 18.6731C103.862 18.1246 103.506 17.748 102.074 17.748C98.7377 17.748 97.7062 20.5723 97.5466 23.8181C97.4967 25.0504 97.3044 26.2728 96.9736 27.461C95.5778 32.4382 92.7045 36.212 90.8339 36.212C89.9662 36.212 89.7288 35.3443 89.7288 34.2064C89.7288 30.6249 91.7344 26.1512 91.7344 22.3364C91.7344 19.5285 90.5065 17.7562 88.1857 17.7562C85.4556 17.7562 81.8413 21.0061 78.4236 27.0967C79.5492 22.4346 80.0117 17.9199 76.6799 17.9199C75.9579 17.9303 75.249 18.1142 74.6129 18.4561C74.3991 18.556 74.2202 18.718 74.0998 18.9209C73.9793 19.1239 73.9228 19.3584 73.9375 19.594C74.2568 24.5589 69.9386 37.2721 65.8414 37.2721C65.0964 37.2721 64.7362 36.4535 64.7362 35.1642C64.7362 31.5745 66.8728 24.0023 67.9493 20.5313C68.077 20.1522 68.1487 19.7564 68.1622 19.3566C68.1622 18.407 67.5728 17.9199 66.2425 17.9199C64.7813 17.9199 63.1931 18.4766 61.6623 21.1698C61.1261 18.7958 59.5175 17.7562 57.2745 17.7562C53.5907 17.7562 49.4976 21.6487 47.6721 26.7242C45.253 33.4983 40.3781 40.0432 33.8128 40.0432C27.8573 40.0432 24.7138 35.0864 24.7138 27.2563C24.7138 15.947 33.0146 6.70889 39.1707 6.70889C42.1136 6.70889 43.5216 8.58353 43.5216 11.461C43.5216 14.9442 41.5774 16.561 41.5774 17.8872C41.5774 18.2965 41.913 18.7058 42.5843 18.7058C45.2612 18.7058 48.4088 15.5623 48.4088 11.2727C48.4088 6.98312 44.9174 3.82324 38.7573 3.82324C28.5818 3.82324 18.3408 14.056 18.3408 27.1826C18.3408 37.6201 23.49 43.9153 32.3966 43.9153C38.4707 43.9153 43.7795 39.1918 46.6406 33.6825C46.9639 38.2504 49.0392 40.6408 52.2031 40.6408C55.0151 40.6408 57.2909 38.9667 59.0304 36.0197C59.6976 39.1018 61.4863 40.608 63.7825 40.608C66.4267 40.608 68.6411 38.934 70.7408 35.8191C70.7081 38.275 71.2647 40.563 73.385 40.563C74.3837 40.563 75.5789 40.3297 75.7917 39.4579C78.0225 30.232 83.5359 22.7007 85.2059 22.7007C85.7052 22.7007 85.8444 23.1837 85.8444 23.7526C85.8444 26.2576 84.0762 31.3985 84.0762 34.6771C84.0762 38.2217 85.5825 40.5671 88.6973 40.5671C92.1478 40.5671 95.6556 36.343 97.9928 30.1665C98.7254 35.9378 100.305 40.5917 102.782 40.5917C105.819 40.5917 111.214 34.1982 114.484 27.4282C116.259 27.6894 118.066 27.265 119.539 26.2412C118.73 28.2636 118.306 30.4196 118.29 32.5978C118.29 38.8807 121.291 40.6408 123.874 40.6408C126.681 40.6408 128.957 38.9667 130.701 36.0197C131.274 38.6761 132.747 40.5998 135.445 40.5998C139.669 40.5998 143.34 36.2816 143.34 32.737C143.357 31.8038 142.956 31.2471 142.489 31.2471ZM54.7859 37.1616C53.0791 37.1616 52.4119 35.4425 52.4119 32.8802C52.4119 28.431 55.4572 21.0102 58.6743 21.0102C60.0824 21.0102 60.6104 22.6475 60.6104 24.694C60.6104 29.2005 57.7165 37.1616 54.7859 37.1616ZM113.236 23.8795C112.288 22.639 111.798 21.1092 111.848 19.549C111.848 17.7357 112.511 16.2049 113.305 16.2049C114.099 16.2049 114.345 16.9867 114.345 18.0755C114.341 19.8928 113.69 22.5492 113.236 23.8795ZM126.469 37.1616C124.762 37.1616 124.095 35.1847 124.095 32.8802C124.095 28.5866 127.14 21.0102 130.382 21.0102C131.79 21.0102 132.289 22.6475 132.289 24.694C132.289 29.2005 129.444 37.1616 126.469 37.1616Z" fill="url(#paint2_radial_10565_45558)"/>
<path d="M142.489 31.2471C142.372 31.252 142.259 31.2945 142.168 31.3681C142.076 31.4418 142.011 31.5428 141.981 31.6564C140.7 35.3115 138.969 37.4891 137.545 37.4891C136.726 37.4891 136.394 36.5763 136.394 35.1437C136.394 31.5623 138.539 23.9695 139.62 20.5068C139.739 20.1466 139.808 19.772 139.824 19.3934C139.824 18.3865 139.276 17.8913 137.913 17.8913C136.443 17.8913 134.864 18.4643 133.325 21.1658C132.792 18.7918 131.188 17.7521 128.941 17.7521C126.346 17.7521 123.841 19.4221 121.778 22.1276C119.715 24.8332 117.275 25.7214 115.466 25.2834C116.78 22.0703 117.267 19.6718 117.267 17.8872C117.267 15.0916 115.888 13.4052 113.653 13.4052C110.26 13.4052 108.303 16.6429 108.303 20.0483C108.303 22.6802 109.498 25.3694 112.122 26.6996C109.92 31.6769 106.711 36.1752 105.491 36.1752C103.915 36.1752 103.445 28.4679 103.543 22.9544C103.6 19.7905 103.862 19.6308 103.862 18.6731C103.862 18.1246 103.506 17.748 102.074 17.748C98.7377 17.748 97.7062 20.5723 97.5466 23.8181C97.4967 25.0504 97.3044 26.2728 96.9736 27.461C95.5778 32.4382 92.7045 36.212 90.8339 36.212C89.9662 36.212 89.7288 35.3443 89.7288 34.2064C89.7288 30.6249 91.7344 26.1512 91.7344 22.3364C91.7344 19.5285 90.5065 17.7562 88.1857 17.7562C85.4556 17.7562 81.8413 21.0061 78.4236 27.0967C79.5492 22.4346 80.0117 17.9199 76.6799 17.9199C75.9579 17.9303 75.249 18.1142 74.6129 18.4561C74.3991 18.556 74.2202 18.718 74.0998 18.9209C73.9793 19.1239 73.9228 19.3584 73.9375 19.594C74.2568 24.5589 69.9386 37.2721 65.8414 37.2721C65.0964 37.2721 64.7362 36.4535 64.7362 35.1642C64.7362 31.5745 66.8728 24.0023 67.9493 20.5313C68.077 20.1522 68.1487 19.7564 68.1622 19.3566C68.1622 18.407 67.5728 17.9199 66.2425 17.9199C64.7813 17.9199 63.1931 18.4766 61.6623 21.1698C61.1261 18.7958 59.5175 17.7562 57.2745 17.7562C53.5907 17.7562 49.4976 21.6487 47.6721 26.7242C45.253 33.4983 40.3781 40.0432 33.8128 40.0432C27.8573 40.0432 24.7138 35.0864 24.7138 27.2563C24.7138 15.947 33.0146 6.70889 39.1707 6.70889C42.1136 6.70889 43.5216 8.58353 43.5216 11.461C43.5216 14.9442 41.5774 16.561 41.5774 17.8872C41.5774 18.2965 41.913 18.7058 42.5843 18.7058C45.2612 18.7058 48.4088 15.5623 48.4088 11.2727C48.4088 6.98312 44.9174 3.82324 38.7573 3.82324C28.5818 3.82324 18.3408 14.056 18.3408 27.1826C18.3408 37.6201 23.49 43.9153 32.3966 43.9153C38.4707 43.9153 43.7795 39.1918 46.6406 33.6825C46.9639 38.2504 49.0392 40.6408 52.2031 40.6408C55.0151 40.6408 57.2909 38.9667 59.0304 36.0197C59.6976 39.1018 61.4863 40.608 63.7825 40.608C66.4267 40.608 68.6411 38.934 70.7408 35.8191C70.7081 38.275 71.2647 40.563 73.385 40.563C74.3837 40.563 75.5789 40.3297 75.7917 39.4579C78.0225 30.232 83.5359 22.7007 85.2059 22.7007C85.7052 22.7007 85.8444 23.1837 85.8444 23.7526C85.8444 26.2576 84.0762 31.3985 84.0762 34.6771C84.0762 38.2217 85.5825 40.5671 88.6973 40.5671C92.1478 40.5671 95.6556 36.343 97.9928 30.1665C98.7254 35.9378 100.305 40.5917 102.782 40.5917C105.819 40.5917 111.214 34.1982 114.484 27.4282C116.259 27.6894 118.066 27.265 119.539 26.2412C118.73 28.2636 118.306 30.4196 118.29 32.5978C118.29 38.8807 121.291 40.6408 123.874 40.6408C126.681 40.6408 128.957 38.9667 130.701 36.0197C131.274 38.6761 132.747 40.5998 135.445 40.5998C139.669 40.5998 143.34 36.2816 143.34 32.737C143.357 31.8038 142.956 31.2471 142.489 31.2471ZM54.7859 37.1616C53.0791 37.1616 52.4119 35.4425 52.4119 32.8802C52.4119 28.431 55.4572 21.0102 58.6743 21.0102C60.0824 21.0102 60.6104 22.6475 60.6104 24.694C60.6104 29.2005 57.7165 37.1616 54.7859 37.1616ZM113.236 23.8795C112.288 22.639 111.798 21.1092 111.848 19.549C111.848 17.7357 112.511 16.2049 113.305 16.2049C114.099 16.2049 114.345 16.9867 114.345 18.0755C114.341 19.8928 113.69 22.5492 113.236 23.8795ZM126.469 37.1616C124.762 37.1616 124.095 35.1847 124.095 32.8802C124.095 28.5866 127.14 21.0102 130.382 21.0102C131.79 21.0102 132.289 22.6475 132.289 24.694C132.289 29.2005 129.444 37.1616 126.469 37.1616Z" fill="url(#paint3_radial_10565_45558)"/>
<path d="M142.489 31.2471C142.372 31.252 142.259 31.2945 142.168 31.3681C142.076 31.4418 142.011 31.5428 141.981 31.6564C140.7 35.3115 138.969 37.4891 137.545 37.4891C136.726 37.4891 136.394 36.5763 136.394 35.1437C136.394 31.5623 138.539 23.9695 139.62 20.5068C139.739 20.1466 139.808 19.772 139.824 19.3934C139.824 18.3865 139.276 17.8913 137.913 17.8913C136.443 17.8913 134.864 18.4643 133.325 21.1658C132.792 18.7918 131.188 17.7521 128.941 17.7521C126.346 17.7521 123.841 19.4221 121.778 22.1276C119.715 24.8332 117.275 25.7214 115.466 25.2834C116.78 22.0703 117.267 19.6718 117.267 17.8872C117.267 15.0916 115.888 13.4052 113.653 13.4052C110.26 13.4052 108.303 16.6429 108.303 20.0483C108.303 22.6802 109.498 25.3694 112.122 26.6996C109.92 31.6769 106.711 36.1752 105.491 36.1752C103.915 36.1752 103.445 28.4679 103.543 22.9544C103.6 19.7905 103.862 19.6308 103.862 18.6731C103.862 18.1246 103.506 17.748 102.074 17.748C98.7377 17.748 97.7062 20.5723 97.5466 23.8181C97.4967 25.0504 97.3044 26.2728 96.9736 27.461C95.5778 32.4382 92.7045 36.212 90.8339 36.212C89.9662 36.212 89.7288 35.3443 89.7288 34.2064C89.7288 30.6249 91.7344 26.1512 91.7344 22.3364C91.7344 19.5285 90.5065 17.7562 88.1857 17.7562C85.4556 17.7562 81.8413 21.0061 78.4236 27.0967C79.5492 22.4346 80.0117 17.9199 76.6799 17.9199C75.9579 17.9303 75.249 18.1142 74.6129 18.4561C74.3991 18.556 74.2202 18.718 74.0998 18.9209C73.9793 19.1239 73.9228 19.3584 73.9375 19.594C74.2568 24.5589 69.9386 37.2721 65.8414 37.2721C65.0964 37.2721 64.7362 36.4535 64.7362 35.1642C64.7362 31.5745 66.8728 24.0023 67.9493 20.5313C68.077 20.1522 68.1487 19.7564 68.1622 19.3566C68.1622 18.407 67.5728 17.9199 66.2425 17.9199C64.7813 17.9199 63.1931 18.4766 61.6623 21.1698C61.1261 18.7958 59.5175 17.7562 57.2745 17.7562C53.5907 17.7562 49.4976 21.6487 47.6721 26.7242C45.253 33.4983 40.3781 40.0432 33.8128 40.0432C27.8573 40.0432 24.7138 35.0864 24.7138 27.2563C24.7138 15.947 33.0146 6.70889 39.1707 6.70889C42.1136 6.70889 43.5216 8.58353 43.5216 11.461C43.5216 14.9442 41.5774 16.561 41.5774 17.8872C41.5774 18.2965 41.913 18.7058 42.5843 18.7058C45.2612 18.7058 48.4088 15.5623 48.4088 11.2727C48.4088 6.98312 44.9174 3.82324 38.7573 3.82324C28.5818 3.82324 18.3408 14.056 18.3408 27.1826C18.3408 37.6201 23.49 43.9153 32.3966 43.9153C38.4707 43.9153 43.7795 39.1918 46.6406 33.6825C46.9639 38.2504 49.0392 40.6408 52.2031 40.6408C55.0151 40.6408 57.2909 38.9667 59.0304 36.0197C59.6976 39.1018 61.4863 40.608 63.7825 40.608C66.4267 40.608 68.6411 38.934 70.7408 35.8191C70.7081 38.275 71.2647 40.563 73.385 40.563C74.3837 40.563 75.5789 40.3297 75.7917 39.4579C78.0225 30.232 83.5359 22.7007 85.2059 22.7007C85.7052 22.7007 85.8444 23.1837 85.8444 23.7526C85.8444 26.2576 84.0762 31.3985 84.0762 34.6771C84.0762 38.2217 85.5825 40.5671 88.6973 40.5671C92.1478 40.5671 95.6556 36.343 97.9928 30.1665C98.7254 35.9378 100.305 40.5917 102.782 40.5917C105.819 40.5917 111.214 34.1982 114.484 27.4282C116.259 27.6894 118.066 27.265 119.539 26.2412C118.73 28.2636 118.306 30.4196 118.29 32.5978C118.29 38.8807 121.291 40.6408 123.874 40.6408C126.681 40.6408 128.957 38.9667 130.701 36.0197C131.274 38.6761 132.747 40.5998 135.445 40.5998C139.669 40.5998 143.34 36.2816 143.34 32.737C143.357 31.8038 142.956 31.2471 142.489 31.2471ZM54.7859 37.1616C53.0791 37.1616 52.4119 35.4425 52.4119 32.8802C52.4119 28.431 55.4572 21.0102 58.6743 21.0102C60.0824 21.0102 60.6104 22.6475 60.6104 24.694C60.6104 29.2005 57.7165 37.1616 54.7859 37.1616ZM113.236 23.8795C112.288 22.639 111.798 21.1092 111.848 19.549C111.848 17.7357 112.511 16.2049 113.305 16.2049C114.099 16.2049 114.345 16.9867 114.345 18.0755C114.341 19.8928 113.69 22.5492 113.236 23.8795ZM126.469 37.1616C124.762 37.1616 124.095 35.1847 124.095 32.8802C124.095 28.5866 127.14 21.0102 130.382 21.0102C131.79 21.0102 132.289 22.6475 132.289 24.694C132.289 29.2005 129.444 37.1616 126.469 37.1616Z" fill="url(#paint4_radial_10565_45558)"/>
<path d="M142.489 31.2471C142.372 31.252 142.259 31.2945 142.168 31.3681C142.076 31.4418 142.011 31.5428 141.981 31.6564C140.7 35.3115 138.969 37.4891 137.545 37.4891C136.726 37.4891 136.394 36.5763 136.394 35.1437C136.394 31.5623 138.539 23.9695 139.62 20.5068C139.739 20.1466 139.808 19.772 139.824 19.3934C139.824 18.3865 139.276 17.8913 137.913 17.8913C136.443 17.8913 134.864 18.4643 133.325 21.1658C132.792 18.7918 131.188 17.7521 128.941 17.7521C126.346 17.7521 123.841 19.4221 121.778 22.1276C119.715 24.8332 117.275 25.7214 115.466 25.2834C116.78 22.0703 117.267 19.6718 117.267 17.8872C117.267 15.0916 115.888 13.4052 113.653 13.4052C110.26 13.4052 108.303 16.6429 108.303 20.0483C108.303 22.6802 109.498 25.3694 112.122 26.6996C109.92 31.6769 106.711 36.1752 105.491 36.1752C103.915 36.1752 103.445 28.4679 103.543 22.9544C103.6 19.7905 103.862 19.6308 103.862 18.6731C103.862 18.1246 103.506 17.748 102.074 17.748C98.7377 17.748 97.7062 20.5723 97.5466 23.8181C97.4967 25.0504 97.3044 26.2728 96.9736 27.461C95.5778 32.4382 92.7045 36.212 90.8339 36.212C89.9662 36.212 89.7288 35.3443 89.7288 34.2064C89.7288 30.6249 91.7344 26.1512 91.7344 22.3364C91.7344 19.5285 90.5065 17.7562 88.1857 17.7562C85.4556 17.7562 81.8413 21.0061 78.4236 27.0967C79.5492 22.4346 80.0117 17.9199 76.6799 17.9199C75.9579 17.9303 75.249 18.1142 74.6129 18.4561C74.3991 18.556 74.2202 18.718 74.0998 18.9209C73.9793 19.1239 73.9228 19.3584 73.9375 19.594C74.2568 24.5589 69.9386 37.2721 65.8414 37.2721C65.0964 37.2721 64.7362 36.4535 64.7362 35.1642C64.7362 31.5745 66.8728 24.0023 67.9493 20.5313C68.077 20.1522 68.1487 19.7564 68.1622 19.3566C68.1622 18.407 67.5728 17.9199 66.2425 17.9199C64.7813 17.9199 63.1931 18.4766 61.6623 21.1698C61.1261 18.7958 59.5175 17.7562 57.2745 17.7562C53.5907 17.7562 49.4976 21.6487 47.6721 26.7242C45.253 33.4983 40.3781 40.0432 33.8128 40.0432C27.8573 40.0432 24.7138 35.0864 24.7138 27.2563C24.7138 15.947 33.0146 6.70889 39.1707 6.70889C42.1136 6.70889 43.5216 8.58353 43.5216 11.461C43.5216 14.9442 41.5774 16.561 41.5774 17.8872C41.5774 18.2965 41.913 18.7058 42.5843 18.7058C45.2612 18.7058 48.4088 15.5623 48.4088 11.2727C48.4088 6.98312 44.9174 3.82324 38.7573 3.82324C28.5818 3.82324 18.3408 14.056 18.3408 27.1826C18.3408 37.6201 23.49 43.9153 32.3966 43.9153C38.4707 43.9153 43.7795 39.1918 46.6406 33.6825C46.9639 38.2504 49.0392 40.6408 52.2031 40.6408C55.0151 40.6408 57.2909 38.9667 59.0304 36.0197C59.6976 39.1018 61.4863 40.608 63.7825 40.608C66.4267 40.608 68.6411 38.934 70.7408 35.8191C70.7081 38.275 71.2647 40.563 73.385 40.563C74.3837 40.563 75.5789 40.3297 75.7917 39.4579C78.0225 30.232 83.5359 22.7007 85.2059 22.7007C85.7052 22.7007 85.8444 23.1837 85.8444 23.7526C85.8444 26.2576 84.0762 31.3985 84.0762 34.6771C84.0762 38.2217 85.5825 40.5671 88.6973 40.5671C92.1478 40.5671 95.6556 36.343 97.9928 30.1665C98.7254 35.9378 100.305 40.5917 102.782 40.5917C105.819 40.5917 111.214 34.1982 114.484 27.4282C116.259 27.6894 118.066 27.265 119.539 26.2412C118.73 28.2636 118.306 30.4196 118.29 32.5978C118.29 38.8807 121.291 40.6408 123.874 40.6408C126.681 40.6408 128.957 38.9667 130.701 36.0197C131.274 38.6761 132.747 40.5998 135.445 40.5998C139.669 40.5998 143.34 36.2816 143.34 32.737C143.357 31.8038 142.956 31.2471 142.489 31.2471ZM54.7859 37.1616C53.0791 37.1616 52.4119 35.4425 52.4119 32.8802C52.4119 28.431 55.4572 21.0102 58.6743 21.0102C60.0824 21.0102 60.6104 22.6475 60.6104 24.694C60.6104 29.2005 57.7165 37.1616 54.7859 37.1616ZM113.236 23.8795C112.288 22.639 111.798 21.1092 111.848 19.549C111.848 17.7357 112.511 16.2049 113.305 16.2049C114.099 16.2049 114.345 16.9867 114.345 18.0755C114.341 19.8928 113.69 22.5492 113.236 23.8795ZM126.469 37.1616C124.762 37.1616 124.095 35.1847 124.095 32.8802C124.095 28.5866 127.14 21.0102 130.382 21.0102C131.79 21.0102 132.289 22.6475 132.289 24.694C132.289 29.2005 129.444 37.1616 126.469 37.1616Z" fill="url(#paint5_radial_10565_45558)"/>
<defs>
<linearGradient id="paint0_linear_10565_45558" x1="141.999" y1="44.6123" x2="37.9894" y2="19.8572" gradientUnits="userSpaceOnUse">
<stop stop-color="#7D2AE7"/>
<stop offset="0.77" stop-color="#7D2AE7"/>
<stop offset="1" stop-color="#7D2AE7" stop-opacity="0"/>
</linearGradient>
<radialGradient id="paint1_radial_10565_45558" cx="0" cy="0" r="1" gradientUnits="userSpaceOnUse" gradientTransform="translate(82.4927 45.7219) rotate(-45.8069) scale(36.9924 24.5847)">
<stop stop-color="#6420FF"/>
<stop offset="1" stop-color="#6420FF" stop-opacity="0"/>
</radialGradient>
<radialGradient id="paint2_radial_10565_45558" cx="0" cy="0" r="1" gradientUnits="userSpaceOnUse" gradientTransform="translate(22.174 32.2246) rotate(5.08826) scale(71.995 57.3815)">
<stop offset="0.25" stop-color="#00C4CC"/>
<stop offset="1" stop-color="#00C4CC" stop-opacity="0"/>
</radialGradient>
<radialGradient id="paint3_radial_10565_45558" cx="0" cy="0" r="1" gradientUnits="userSpaceOnUse" gradientTransform="translate(69.3724 42.6483) rotate(-38.8493) scale(46.3944 31.7233)">
<stop stop-color="#6420FF"/>
<stop offset="1" stop-color="#6420FF" stop-opacity="0"/>
</radialGradient>
<radialGradient id="paint4_radial_10565_45558" cx="0" cy="0" r="1" gradientUnits="userSpaceOnUse" gradientTransform="translate(24.2737 51.6108) rotate(-34.2673) scale(54.0849 36.9814)">
<stop stop-color="#6420FF"/>
<stop offset="1" stop-color="#6420FF" stop-opacity="0"/>
</radialGradient>
<radialGradient id="paint5_radial_10565_45558" cx="0" cy="0" r="1" gradientUnits="userSpaceOnUse" gradientTransform="translate(29.7823 9.27718) rotate(12.4717) scale(106.897 131.105)">
<stop stop-color="#00C4CC"/>
<stop offset="1" stop-color="#00C4CC" stop-opacity="0"/>
</radialGradient>
</defs>
</svg>
