<svg width="160" height="48" viewBox="0 0 160 48" fill="none" xmlns="http://www.w3.org/2000/svg">
<path d="M116.075 43.2207C115.994 43.2207 115.917 43.1886 115.86 43.1316C115.803 43.0746 115.771 42.9973 115.771 42.9167V6.28498C115.771 6.14121 115.872 6.01654 116.013 5.98736L122.363 4.66531C122.407 4.65607 122.453 4.65683 122.497 4.66754C122.541 4.67825 122.582 4.69862 122.617 4.72719C122.652 4.75576 122.68 4.79179 122.699 4.83267C122.719 4.87354 122.729 4.91822 122.729 4.96346V42.9167C122.729 42.9973 122.697 43.0746 122.64 43.1316C122.583 43.1886 122.505 43.2207 122.425 43.2207H116.075ZM36.2629 43.9958C33.7265 43.9958 31.4618 43.3751 29.4686 42.1347C27.4754 40.8938 25.8993 39.1972 24.7396 37.0444C23.5799 34.8915 23 32.4469 23 29.71C23 26.9736 23.5799 24.547 24.7396 22.4308C25.8993 20.2774 27.4754 18.5994 29.4686 17.3951C31.4618 16.1542 33.7265 15.534 36.2629 15.534C38.2927 15.534 40.0683 15.9171 41.5899 16.6837C42.8101 17.2975 43.844 18.1107 44.6913 19.124C44.8833 19.3537 45.2865 19.2238 45.2865 18.924V5.62607C45.2865 5.4823 45.3873 5.35816 45.5284 5.32898L51.8782 4.0064C51.9224 3.99719 51.9681 3.99793 52.0119 4.00857C52.0558 4.01922 52.0968 4.0395 52.1318 4.06795C52.1669 4.0964 52.1952 4.1323 52.2146 4.17304C52.234 4.21379 52.2442 4.25835 52.2442 4.30349V43.0339C52.2442 43.1146 52.2122 43.1919 52.1552 43.2489C52.0982 43.3059 52.0209 43.3379 51.9403 43.3379H46.2977C46.2272 43.3379 46.159 43.3134 46.1046 43.2685C46.0502 43.2237 46.0131 43.1614 45.9995 43.0923L45.4213 40.14C45.3698 39.8784 45.0271 39.801 44.8573 40.0057C44.0472 40.9835 43.0308 41.8572 41.8074 42.6265C40.3941 43.539 38.5463 43.9952 36.2635 43.9952L36.2629 43.9958ZM37.7309 37.8651C39.9776 37.8651 41.8074 37.1171 43.2207 35.621C44.6701 34.0889 45.3953 32.1366 45.3953 29.7646C45.3953 27.3927 44.6701 25.4589 43.2207 23.9629C41.8074 22.4308 39.9776 21.6642 37.7309 21.6642C35.5202 21.6642 33.6905 22.4122 32.2406 23.9082C30.7906 25.4043 30.0665 27.338 30.0665 29.71C30.0665 32.0819 30.7912 34.0337 32.2406 35.5669C33.6905 37.0985 35.5202 37.8651 37.7309 37.8651ZM69.2097 43.9995C66.4918 43.9995 64.0822 43.4159 61.9803 42.2482C59.8784 41.0806 58.2295 39.4386 57.0338 37.3224C55.838 35.2056 55.2401 32.761 55.2401 29.988C55.2401 27.1784 55.8199 24.6786 56.9796 22.4896C58.1754 20.3002 59.8062 18.6031 61.8716 17.3993C63.9735 16.1584 66.4377 15.5383 69.2643 15.5383C71.91 15.5383 74.2469 16.1218 76.2762 17.2895C78.3059 18.4572 79.8821 20.0631 81.0052 22.1066C82.1649 24.113 82.7448 26.3571 82.7448 28.8389C82.7448 29.2399 82.7267 29.6596 82.6906 30.0973C82.6906 30.4479 82.679 30.8103 82.6556 31.1848C82.6506 31.2612 82.6167 31.3329 82.5607 31.3851C82.5047 31.4374 82.4309 31.4663 82.3543 31.466H62.4689C62.4274 31.4657 62.3862 31.4741 62.3481 31.4906C62.31 31.5072 62.2758 31.5315 62.2477 31.5621C62.2196 31.5927 62.1983 31.6289 62.185 31.6682C62.1718 31.7076 62.1669 31.7493 62.1708 31.7907C62.3649 33.7525 63.0806 35.3043 64.3178 36.4465C65.6584 37.6508 67.2712 38.2529 69.1561 38.2529C70.5689 38.2529 71.7466 37.9426 72.6888 37.3224C73.6108 36.7033 74.3069 35.9229 74.779 34.9796C74.8321 34.8735 74.9393 34.8045 75.0576 34.8045H81.5224C81.5695 34.8041 81.616 34.8149 81.6581 34.8359C81.7002 34.857 81.7367 34.8878 81.7645 34.9257C81.7924 34.9636 81.8109 35.0076 81.8184 35.0541C81.8259 35.1005 81.8223 35.1481 81.8079 35.1929C81.2906 36.7568 80.4795 38.1967 79.3749 39.5113C78.2152 40.8981 76.7653 41.9925 75.0263 42.7952C73.3233 43.5984 71.3843 43.9995 69.2097 43.9995ZM69.2643 21.2307C67.5614 21.2307 66.0573 21.723 64.7528 22.7082C63.5284 23.5984 62.7188 24.939 62.3246 26.7295C62.3154 26.7729 62.316 26.8179 62.3265 26.861C62.337 26.9041 62.357 26.9443 62.3851 26.9787C62.4133 27.013 62.4487 27.0406 62.489 27.0593C62.5292 27.0781 62.5731 27.0876 62.6175 27.0871H75.3552C75.5303 27.0871 75.6703 26.9391 75.6523 26.7651C75.4878 25.1274 74.8448 23.8117 73.7212 22.818C72.5254 21.7596 71.04 21.2307 69.2643 21.2307ZM99.4778 44C96.76 44 94.3504 43.4164 92.2485 42.2488C90.1465 41.0811 88.4977 39.4391 87.3019 37.3229C86.1061 35.2067 85.5082 32.7615 85.5082 29.9885C85.5082 27.1789 86.0881 24.6791 87.2473 22.4902C88.4436 20.3007 90.0739 18.6036 92.1397 17.3999C94.2416 16.159 96.7053 15.5388 99.5319 15.5388C102.178 15.5388 104.515 16.1224 106.544 17.29C108.574 18.4577 110.15 20.0636 111.273 22.1071C112.433 24.1136 113.013 26.3576 113.013 28.8394C113.013 29.2405 112.995 29.6601 112.958 30.0978C112.958 30.4485 112.947 30.8113 112.924 31.1854C112.919 31.2617 112.885 31.3333 112.829 31.3855C112.773 31.4377 112.699 31.4667 112.622 31.4665H92.7371C92.6955 31.4662 92.6543 31.4746 92.6162 31.4911C92.5781 31.5077 92.5439 31.5321 92.5157 31.5626C92.4876 31.5932 92.4662 31.6294 92.4529 31.6687C92.4395 31.7081 92.4346 31.7498 92.4384 31.7912C92.6325 33.7531 93.3487 35.3048 94.5859 36.447C95.9265 37.6513 97.5393 38.2534 99.4232 38.2534C100.836 38.2534 102.014 37.9431 102.957 37.3229C103.878 36.7038 104.575 35.9234 105.047 34.9801C105.1 34.874 105.207 34.8051 105.326 34.8051H111.79C111.994 34.8051 112.14 35.0003 112.075 35.1934C111.559 36.7574 110.748 38.1972 109.643 39.5118C108.483 40.8986 107.033 41.9936 105.294 42.7957C103.591 43.5989 101.652 44 99.4778 44ZM99.5319 21.2312C97.829 21.2312 96.325 21.7236 95.0204 22.7087C93.7965 23.5995 92.9869 24.9396 92.5922 26.7301C92.583 26.7735 92.5836 26.8184 92.5941 26.8615C92.6046 26.9046 92.6246 26.9449 92.6528 26.9792C92.6809 27.0135 92.7164 27.0411 92.7566 27.0599C92.7968 27.0786 92.8407 27.0881 92.8851 27.0876H105.623C105.798 27.0876 105.938 26.9396 105.92 26.7656C105.756 25.1279 105.112 23.8122 103.989 22.8186C102.794 21.7602 101.308 21.2312 99.5319 21.2312Z" fill="#01090F"/>
<path d="M131.846 43.2288C134.433 43.2288 136.531 41.1168 136.531 38.5119C136.531 35.9071 134.433 33.7951 131.846 33.7951C129.259 33.7951 127.162 35.9066 127.162 38.5114C127.162 41.1162 129.259 43.2282 131.846 43.2282V43.2288Z" fill="#2C71F0"/>
</svg>
