<svg width="160" height="48" viewBox="0 0 160 48" fill="none" xmlns="http://www.w3.org/2000/svg">
<path d="M36.681 12.5182H40.4118V22.3634L50.3607 12.5182H55.3351L46.4226 21.1198L55.7497 35.6286H50.7752L43.5209 23.9179L40.3082 27.0269V35.7322H36.5774L36.681 12.5182ZM57.8223 12.5182H61.5532V16.5599C61.8641 15.8345 62.5895 14.7981 63.7295 13.7618C64.8694 12.6218 66.2167 12.1037 67.7712 12.1037H68.1857C68.393 12.1037 68.7039 12.1037 69.1184 12.2073V16.3527C68.9112 16.3527 68.7039 16.249 68.4966 16.249H67.8748C65.9058 16.249 64.4549 16.8708 63.4186 18.1144C62.3822 19.358 61.8641 20.8089 61.8641 22.4671V35.7322H57.926L57.8223 12.5182ZM83.5235 21.638C84.4563 21.5344 84.9744 21.1198 85.2853 20.498C85.4926 20.1871 85.4926 19.6689 85.4926 19.0471C85.4926 17.6999 84.9744 16.7672 84.0417 16.1454C83.109 15.5236 81.7618 15.2127 80 15.2127C77.9273 15.2127 76.5801 15.7309 75.6474 16.8708C75.1292 17.4926 74.8183 18.4253 74.7147 19.5653H71.0875C71.1911 16.6636 72.1238 14.6945 73.8856 13.6582C75.751 12.5182 77.7201 12 80.1036 12C82.7981 12 84.9744 12.5182 86.7362 13.5545C88.3944 14.5909 89.2234 16.249 89.2234 18.4253V31.6905C89.2234 32.105 89.3271 32.4159 89.4307 32.6232C89.638 32.8304 89.9489 33.0377 90.467 33.0377H91.0888C91.0888 33.0377 91.5034 32.9341 91.8143 32.9341V35.8358C91.1925 36.0431 90.7779 36.1467 90.467 36.1467C90.1561 36.1467 89.7416 36.2504 89.2234 36.2504C87.8762 36.2504 86.9435 35.7322 86.3217 34.7995C86.0108 34.2813 85.8035 33.5559 85.6999 32.6232C84.8708 33.6595 83.7308 34.5922 82.2799 35.3177C80.8291 36.0431 79.1709 36.4576 77.4092 36.4576C75.2328 36.4576 73.4711 35.8358 72.1238 34.4886C70.7766 33.1414 70.0511 31.5868 70.0511 29.6178C70.0511 27.4415 70.6729 25.7833 72.0202 24.6434C73.3674 23.5034 75.1292 22.778 77.3055 22.4671L83.5235 21.638ZM75.3365 32.105C76.1655 32.7268 77.0982 33.0377 78.2382 33.0377C79.5855 33.0377 80.9327 32.7268 82.1763 32.105C84.3526 31.0687 85.389 29.3069 85.389 26.9233V23.8143C84.8708 24.1252 84.3526 24.3325 83.5235 24.5397C82.6945 24.747 82.0727 24.8506 81.3472 24.9543L79.0673 25.4724C77.6164 25.6797 76.5801 25.9906 75.8546 26.4051C74.611 27.1306 74.0929 28.1669 74.0929 29.6178C74.0929 30.6541 74.5074 31.4832 75.3365 32.105ZM94.4051 12.5182H98.1359V22.3634L108.085 12.5182H113.059L104.147 21.1198L113.474 35.6286H108.499L101.245 23.9179L98.0323 27.0269V35.7322H94.3015L94.4051 12.5182ZM129.33 13.2436C130.884 13.9691 132.024 15.0054 132.853 16.249C133.579 17.389 134.097 18.7362 134.408 20.2907C134.615 21.3271 134.719 23.0889 134.719 25.3688H117.93C118.034 27.7524 118.552 29.6178 119.588 31.0687C120.624 32.5195 122.179 33.245 124.355 33.245C126.324 33.245 127.982 32.6232 129.122 31.2759C129.744 30.4469 130.262 29.6178 130.573 28.5815H134.408C134.304 29.4105 133.993 30.3432 133.371 31.3796C132.853 32.4159 132.128 33.245 131.506 33.9704C130.366 35.1104 128.915 35.9395 127.153 36.2504C126.221 36.4576 125.184 36.5613 124.044 36.5613C121.143 36.5613 118.759 35.5249 116.79 33.4523C114.821 31.3796 113.785 28.4778 113.785 24.747C113.785 21.0162 114.821 18.0108 116.79 15.7309C118.759 13.4509 121.454 12.2073 124.666 12.2073C126.221 12 127.775 12.4146 129.33 13.2436ZM130.781 22.2598C130.573 20.6016 130.262 19.2544 129.641 18.2181C128.604 16.3527 126.843 15.4199 124.355 15.4199C122.594 15.4199 121.143 16.0418 119.899 17.389C118.655 18.6326 118.034 20.2907 118.034 22.2598H130.781ZM138.139 12.5182H141.869V15.8345C143.009 14.4872 144.149 13.5545 145.393 12.9327C146.637 12.3109 147.984 12 149.435 12C152.751 12 154.927 13.14 156.067 15.4199C156.689 16.6636 157 18.4253 157 20.8089V35.6286H153.062V21.1198C153.062 19.6689 152.855 18.529 152.44 17.6999C151.715 16.249 150.471 15.5236 148.709 15.5236C147.777 15.5236 147.051 15.6272 146.429 15.8345C145.393 16.1454 144.46 16.7672 143.631 17.6999C143.009 18.4253 142.595 19.2544 142.388 20.0835C142.18 20.9125 142.077 22.0525 142.077 23.607V35.7322H138.242L138.139 12.5182ZM17.716 12.5182C9.63257 12.5182 3 19.0471 3 27.2342V33.5559C3 34.6959 3.93271 35.6286 5.07268 35.6286C6.21265 35.6286 7.14536 34.6959 7.14536 33.5559V27.2342C7.14536 26.0942 8.07806 25.1615 9.21803 25.1615C10.358 25.1615 11.2907 26.0942 11.2907 27.2342V33.5559C11.2907 34.6959 12.2234 35.6286 13.3634 35.6286C14.5034 35.6286 15.4361 34.6959 15.4361 33.5559V27.2342C15.4361 26.0942 16.3688 25.1615 17.5087 25.1615C18.6487 25.1615 19.5814 26.0942 19.5814 27.2342V33.5559C19.5814 34.6959 20.5141 35.6286 21.6541 35.6286C22.7941 35.6286 23.7268 34.6959 23.7268 33.5559V27.2342C23.7268 26.0942 24.6595 25.1615 25.7995 25.1615C26.9394 25.1615 27.8721 26.0942 27.8721 27.2342V33.5559C27.8721 34.6959 28.8048 35.6286 29.9448 35.6286C31.0848 35.6286 32.0175 34.6959 32.0175 33.5559V27.2342C32.5357 19.0471 25.9031 12.5182 17.716 12.5182Z" fill="#5841D8"/>
</svg>
