<svg width="160" height="48" viewBox="0 0 160 48" fill="none" xmlns="http://www.w3.org/2000/svg">
<path d="M107.828 15.6875C105.391 15.6875 102.484 16.5625 99.6875 19.5937C96.8906 16.5625 93.9531 15.6875 91.5469 15.6875C89.1406 15.6875 82.2188 14.9844 82.2188 25.9219V43.6094H88.8281V26.9062C88.8281 22.0156 92.1094 21.9219 92.75 22.0625C92.75 22.0625 93.9375 22.125 95.0156 23.25C95.0156 23.25 92.8594 26.0625 92.6875 29.6094C92.6875 29.6094 92.2187 38.7969 99.5781 38.7969C106.937 38.7969 106.484 29.6094 106.484 29.6094C106.312 26.0625 104.156 23.25 104.156 23.25C105.234 22.125 106.422 22.0625 106.422 22.0625C107.031 21.9219 110.344 22.0156 110.344 26.9062V43.6094H117.156V25.9219C117.141 14.9844 107.828 15.6875 107.828 15.6875ZM99.6094 33.75C98.1562 33.75 97.6875 31.9375 97.6562 30.1875C97.625 27.1562 99.5781 24.9844 99.6094 24.9375C99.6406 24.8906 101.594 27.1562 101.547 30.1875C101.547 31.9375 101.047 33.75 99.6094 33.75ZM71.4531 16.0312H78.2812V43.6094H71.4531V16.0312ZM74.9687 4.1875C74.1565 4.18132 73.3607 4.41695 72.6827 4.86439C72.0047 5.31183 71.4752 5.95086 71.1615 6.70015C70.8478 7.44945 70.7641 8.27514 70.921 9.07215C71.078 9.86916 71.4685 10.6015 72.0429 11.1759C72.6173 11.7502 73.3496 12.1408 74.1466 12.2977C74.9436 12.4547 75.7693 12.371 76.5186 12.0573C77.2679 11.7436 77.9069 11.214 78.3544 10.536C78.8018 9.85806 79.0374 9.0623 79.0312 8.25C79.0191 7.17634 78.5871 6.15009 77.8279 5.39084C77.0687 4.6316 76.0424 4.19968 74.9687 4.1875ZM50.1562 17.9687V4H43.5469V43.6094H50.1562V23.7969C61.3281 18.3906 60.9062 26.9531 60.9062 26.9531V43.6094H67.5313V26.9531C67.5156 10.8594 53.5156 16.1719 50.1562 17.9687ZM126.297 31.1719C129.906 32.4219 134.469 32.3281 134.469 32.3281C145.312 32.2656 145 24.3594 145 24.3594C144.734 15.4687 134.312 15.6406 134.312 15.6406C125.687 15.6406 119.641 21.5625 119.641 30.0469C119.641 38.5313 125.562 44 134.703 44C138.594 44 142.297 42.9219 144.875 41.0312V34.5C142.172 36.8438 138.922 38.0938 135.484 38.0938C135.5 38.0938 126.125 38.5625 126.297 31.1719ZM127.219 25.375C128.344 22.5 130.703 20.9844 134.062 20.9844C136.813 20.9844 138.406 22.1406 138.406 23.9844C138.406 26.5781 135.484 26.8125 132.75 26.8125C130.016 26.8125 128.406 26.5156 127.672 26.3281L126.938 26.1719L127.219 25.375ZM29.5937 44C34.3594 44 37.7344 42.2031 39.6094 40.6875V34.1094C36.7812 36.4531 33.2969 37.7969 30.2187 37.7969C25.2969 37.7969 21.8438 34.4063 21.8438 29.5C21.8438 24.8594 24.9844 21.625 29.4688 21.625C30.9375 21.625 32.2031 22 33.5469 22.375C34.8906 22.75 36.3906 23.2031 38.0938 23.2031C38.6687 23.197 39.2427 23.1553 39.8125 23.0781V16.8125C39.2656 16.8594 38.8281 16.8906 38.375 16.8906C36.8125 16.8906 35.4062 16.6094 33.9375 16.2969C32.4687 15.9844 30.7969 15.6406 28.9219 15.6406C25.1719 15.6406 21.7031 16.9531 19.1562 19.4063C16.6094 21.8594 15 25.6094 15 29.8125C15 38.1719 21 44 29.5937 44Z" fill="#1EC677"/>
</svg>
