<svg width="160" height="48" viewBox="0 0 160 48" fill="none" xmlns="http://www.w3.org/2000/svg">
<path d="M5.9602 19.1011C5.9602 16.671 4.74516 14.6804 2.44434 13H7.76983C9.63117 14.4477 10.7945 16.6451 10.7945 19.1011C10.7945 21.557 9.65703 23.7544 7.76983 25.2021C9.50191 25.926 10.4843 27.6839 10.4843 30.1915V35H5.67583V30.1915C5.67583 27.7873 4.53834 26.1069 2.47019 25.2021C4.74516 23.4959 5.9602 21.5053 5.9602 19.1011ZM16.4044 19.1011C16.4044 16.671 15.1893 14.6804 12.8885 13H18.214C20.0754 14.4477 21.2387 16.6451 21.2387 19.1011C21.2387 21.557 20.1012 23.7544 18.214 25.2021C19.9461 25.926 20.9285 27.6839 20.9285 30.1915V35H16.12V30.1915C16.12 27.7873 14.9825 26.1069 12.9144 25.2021C15.1893 23.4959 16.4044 21.5053 16.4044 19.1011ZM26.8486 19.1011C26.8486 16.671 25.6335 14.6804 23.3327 13H28.6582C30.5195 14.4477 31.6829 16.6451 31.6829 19.1011C31.6829 21.557 30.5454 23.7544 28.6582 25.2021C30.3903 25.926 31.3727 27.6839 31.3727 30.1915V35H26.5642V30.1915C26.5642 27.7873 25.4267 26.1069 23.3586 25.2021C25.6335 23.4959 26.8486 21.5053 26.8486 19.1011ZM46.3668 30.993H42.6958V17.0071H51.6664C55.9837 17.0071 58.1036 18.6099 58.1036 21.2209C58.1036 23.0047 57.0695 24.349 55.1047 25.0212C57.1212 25.3314 58.026 26.3913 58.026 28.2785V30.993H54.355V28.4336C54.355 26.8308 53.5536 26.1845 51.4338 26.1845H46.3668V30.993ZM51.4855 19.0235H46.3668V24.1422H51.4338C53.2692 24.1422 54.4326 23.134 54.4326 21.5311C54.4326 19.9542 53.3727 19.0235 51.4855 19.0235ZM64.4631 16.9812H60.818V30.9671H64.4631V16.9812ZM75.6829 26.4172H71.2363V30.9671H67.5912V16.9812H75.7863C80.1036 16.9812 82.3785 18.7908 82.3785 21.6604C82.3527 24.6592 80.0519 26.4172 75.6829 26.4172ZM75.6053 19.0235H71.2363V24.3749H75.5795C77.4667 24.3749 78.63 23.4183 78.63 21.6863C78.6041 19.98 77.4408 19.0235 75.6053 19.0235ZM92.6417 26.4172H88.1952V30.9671H84.5242V16.9812H92.7193C97.0366 16.9812 99.3116 18.7908 99.3116 21.6604C99.3116 24.6592 96.9849 26.4172 92.6417 26.4172ZM92.5642 19.0235H88.1952V24.3749H92.5383C94.4255 24.3749 95.5889 23.4183 95.5889 21.6863C95.563 19.98 94.3997 19.0235 92.5642 19.0235ZM105.128 16.9812V28.8989H114.254V30.9671H101.483V16.9812H105.128ZM120.2 16.9812H116.555V30.9671H120.2V16.9812ZM125.706 21.6604V30.9671H123.302V16.9812H126.042L135.995 26.2879V16.9812H138.4V30.9671H135.659L125.706 21.6604ZM150.317 18.6357C146.853 18.6357 144.578 20.8331 144.578 24.1163C144.578 27.3478 146.75 29.3643 150.111 29.3643H150.343C151.481 29.3643 152.773 29.1316 153.963 28.7438V24.9694H148.068V22.953H157.556V29.5194C155.591 30.5276 152.618 31.329 150.214 31.329H149.904C144.371 31.329 140.778 28.4078 140.778 24.168C140.778 19.98 144.449 16.6193 150.111 16.6193H150.421C152.773 16.6193 155.462 17.369 157.453 18.5065L156.418 20.2127C154.635 19.2303 152.489 18.6099 150.602 18.6099H150.317V18.6357Z" fill="black"/>
</svg>
