<svg width="160" height="48" viewBox="0 0 160 48" fill="none" xmlns="http://www.w3.org/2000/svg">
<path d="M156.842 16.0542V31.6186H151.65V28.7868C151.211 29.8533 150.545 30.6657 149.648 31.2201C148.753 31.7726 147.644 32.0518 146.331 32.0518C145.156 32.0518 144.132 31.7611 143.256 31.1778C142.382 30.5945 141.707 29.7936 141.231 28.7772C140.76 27.7607 140.521 26.6134 140.521 25.3274C140.505 24.0029 140.758 22.8132 141.274 21.7602C141.789 20.7072 142.519 19.8871 143.457 19.2961C144.396 18.707 145.468 18.4105 146.67 18.4105C149.143 18.4105 150.803 19.5059 151.65 21.6967V16.0542H156.842ZM150.874 27.2217C151.405 26.6962 151.667 26.0127 151.667 25.1792C151.667 24.3745 151.411 23.7161 150.895 23.2117C150.381 22.7093 149.675 22.4552 148.789 22.4552C147.913 22.4552 147.214 22.7112 146.691 23.2252C146.167 23.7373 145.907 24.4014 145.907 25.2235C145.907 26.0455 146.167 26.7154 146.691 27.2333C147.214 27.753 147.905 28.011 148.768 28.011C149.642 28.0091 150.345 27.7453 150.874 27.2217ZM139.591 19.2094V23.8797C139.052 23.5178 138.355 23.3388 137.493 23.3388C136.363 23.3388 135.492 23.6872 134.886 24.386C134.278 25.0848 133.975 26.1706 133.975 27.6414V31.6186H128.784V18.9727H133.87V22.9923C134.151 21.5234 134.609 20.4396 135.238 19.7388C135.864 19.04 136.674 18.6916 137.662 18.6916C138.411 18.6916 139.052 18.8649 139.591 19.2094ZM114.447 31.1431C113.225 30.5386 112.293 29.7109 111.65 28.6578C111.009 27.6048 110.686 26.4305 110.686 25.133C110.686 23.8355 111.005 22.6785 111.65 21.662C112.295 20.6456 113.221 19.8486 114.44 19.2711C115.652 18.6935 117.102 18.4067 118.783 18.4067C120.463 18.4067 121.913 18.6935 123.128 19.2711C124.342 19.8486 125.268 20.6398 125.904 21.6505C126.541 22.6592 126.858 23.8181 126.858 25.131C126.858 26.4266 126.541 27.6009 125.904 28.654C125.268 29.707 124.338 30.5348 123.116 31.1412C121.892 31.7457 120.448 32.0479 118.781 32.0479C117.112 32.0479 115.668 31.7495 114.447 31.1431ZM120.887 27.3083C121.403 26.7828 121.663 26.0878 121.663 25.2235C121.663 24.3591 121.405 23.6699 120.887 23.1597C120.373 22.6477 119.67 22.3916 118.781 22.3916C117.874 22.3916 117.166 22.6477 116.65 23.1597C116.134 23.6718 115.878 24.3591 115.878 25.2235C115.878 26.0878 116.134 26.7828 116.65 27.3083C117.164 27.832 117.874 28.0976 118.781 28.0976C119.67 28.0957 120.373 27.832 120.887 27.3083ZM99.3892 31.1431C98.1744 30.5386 97.2581 29.7166 96.6459 28.679C96.0337 27.6414 95.7257 26.4728 95.7257 25.1772C95.7257 23.8797 96.0434 22.7189 96.6787 21.6967C97.3159 20.6744 98.2476 19.8698 99.4777 19.2865C100.706 18.7031 102.175 18.4125 103.884 18.4125C106.004 18.4125 107.763 18.8668 109.161 19.7754V23.7315C108.668 23.385 108.093 23.1039 107.436 22.8883C106.78 22.6727 106.077 22.563 105.326 22.563C104.011 22.563 102.985 22.8075 102.244 23.2984C101.503 23.7893 101.129 24.4284 101.129 25.2235C101.129 26.0012 101.489 26.6365 102.211 27.137C102.931 27.6356 103.975 27.8859 105.347 27.8859C106.052 27.8859 106.749 27.78 107.436 27.574C108.12 27.3622 108.711 27.1062 109.203 26.804V30.6311C107.652 31.582 105.85 32.0575 103.8 32.0575C102.075 32.0518 100.604 31.7495 99.3892 31.1431ZM84.385 31.5974C83.2395 31.2952 82.2077 30.8563 81.2894 30.2788V26.6904C81.9844 27.2371 82.9123 27.6876 84.0789 28.0418C85.2436 28.3941 86.3698 28.5712 87.4594 28.5712C87.9695 28.5712 88.3526 28.5019 88.6125 28.3671C88.8743 28.2305 89.0052 28.0668 89.0052 27.8782C89.0052 27.6626 88.934 27.4835 88.7915 27.3391C88.6491 27.1928 88.3738 27.0735 87.9657 26.9714L85.4226 26.3881C83.9672 26.0416 82.9335 25.5623 82.3194 24.9482C81.7052 24.336 81.3992 23.5332 81.3992 22.5399C81.3992 21.7024 81.6648 20.9767 82.2038 20.3549C82.7409 19.735 83.5033 19.2556 84.4928 18.9188C85.4842 18.5799 86.6393 18.4105 87.9695 18.4105C89.1554 18.4105 90.243 18.5395 91.2325 18.7994C92.222 19.0593 93.0402 19.3885 93.6909 19.7928V23.1886C93.0248 22.7824 92.2606 22.4648 91.3904 22.2241C90.5203 21.9854 89.6289 21.8699 88.7068 21.8699C87.3785 21.8699 86.7163 22.1009 86.7163 22.561C86.7163 22.7767 86.8183 22.9384 87.0243 23.0462C87.2303 23.154 87.6076 23.2656 88.1562 23.3831L90.2758 23.7719C91.6599 24.0145 92.6918 24.4438 93.3694 25.056C94.049 25.6681 94.3878 26.5729 94.3878 27.7704C94.3878 29.0833 93.8276 30.1247 92.7033 30.8967C91.581 31.6687 89.987 32.0537 87.9233 32.0537C86.7086 32.0518 85.5285 31.8997 84.385 31.5974ZM73.795 21.9527C75.3813 22.6496 77.3487 22.6804 78.9716 21.9527V31.686H73.795V21.9527ZM76.3862 20.3183C77.8146 20.3183 78.9735 19.2556 78.9735 17.9466C78.9735 16.6375 77.8146 15.5749 76.3862 15.5749C74.9559 15.5749 73.7969 16.6375 73.7969 17.9466C73.7969 19.2556 74.9559 20.3183 76.3862 20.3183ZM54.5671 16.4854H62.8316C64.8241 16.4854 66.5066 16.8031 67.8869 17.4364C69.2653 18.0698 70.2971 18.9534 70.9824 20.0834C71.6659 21.2135 72.0105 22.5091 72.0105 23.9664C72.0105 25.3929 71.6524 26.6865 70.9382 27.8454C70.224 29.0063 69.1382 29.9226 67.6751 30.6002C66.214 31.276 64.4025 31.6167 62.2387 31.6167H54.5671V16.4854ZM62.154 27.7704C63.4938 27.7704 64.5276 27.4277 65.2476 26.7462C65.9676 26.0589 66.3276 25.1272 66.3276 23.9452C66.3276 22.8479 66.0061 21.9739 65.365 21.3194C64.724 20.6648 63.7518 20.3337 62.4523 20.3337H59.8669V27.7704H62.154ZM41.1704 33.665C37.8361 36.1561 34.6039 37.6654 31.4236 38.6529C30.6363 37.5768 29.9413 36.4275 29.3387 35.2224C30.4812 34.7889 31.5823 34.2535 32.6287 33.6227C32.3573 33.4186 32.0878 33.2049 31.824 32.9874C25.5656 35.9443 18.6853 35.9443 12.3517 32.9874C12.0887 33.2065 11.8197 33.4184 11.5451 33.6227C12.5846 34.2464 13.6839 34.7835 14.8312 35.2186C14.2287 36.4275 13.5279 37.5729 12.7444 38.651C9.56799 37.6615 6.33768 36.1522 3.00534 33.665C2.32385 26.3747 3.68682 18.9784 8.71133 11.3916C11.2043 10.225 13.8706 9.37605 16.6601 8.89478C17.0046 9.51081 17.4128 10.3424 17.6881 11.0028C20.595 10.5581 23.5288 10.5581 26.4896 11.0028C26.7649 10.3424 27.1653 9.51081 27.506 8.89478C30.2917 9.37605 32.956 10.2212 35.4471 11.3859C39.8036 17.885 41.9693 25.2138 41.1704 33.665ZM19.1531 25.2504C19.1877 23.0885 17.6284 21.3155 15.6937 21.3155C13.7589 21.3155 12.2323 23.0904 12.2323 25.2504C12.2323 27.4084 13.7917 29.1815 15.6937 29.1815C17.6284 29.1815 19.1569 27.4084 19.1531 25.2504ZM31.9415 25.2504C31.9761 23.0885 30.4168 21.3155 28.4821 21.3155C26.5474 21.3155 25.0208 23.0904 25.0208 25.2504C25.0208 27.4084 26.5801 29.1815 28.4821 29.1815C30.4168 29.1815 31.9415 27.4084 31.9415 25.2504Z" fill="#5865F2"/>
</svg>
