<svg width="160" height="48" viewBox="0 0 160 48" fill="none" xmlns="http://www.w3.org/2000/svg">
<path d="M41.1624 13.4893H44.5112V22.3265L53.4414 13.4893H57.9065L49.9065 21.2102L58.2786 34.2334H53.8135L47.3019 23.7218L44.4182 26.5125V34.3265H41.0693L41.1624 13.4893Z" fill="#5841D8"/>
<path d="M60.1396 13.4893H63.4885V17.1172C63.7676 16.466 64.4187 15.5358 65.442 14.6056C66.4652 13.5823 67.6745 13.1172 69.0699 13.1172C69.1629 13.1172 69.2559 13.1172 69.442 13.1172C69.628 13.1172 69.9071 13.1172 70.2792 13.2102V16.9311C70.0931 16.9311 69.9071 16.8381 69.721 16.8381C69.535 16.8381 69.3489 16.8381 69.1629 16.8381C67.3955 16.8381 66.0931 17.3963 65.1629 18.5125C64.2327 19.6288 63.7676 20.9311 63.7676 22.4195V34.3265H60.2327L60.1396 13.4893Z" fill="#5841D8"/>
<path d="M83.2092 21.6756C84.0464 21.5826 84.5116 21.2105 84.7906 20.6523C84.9767 20.3733 84.9767 19.9081 84.9767 19.35C84.9767 18.1407 84.5116 17.3035 83.6744 16.7453C82.8371 16.1872 81.6278 15.9081 80.0464 15.9081C78.186 15.9081 76.9767 16.3733 76.1395 17.3965C75.6744 17.9546 75.3953 18.7919 75.3023 19.8151H72.0464C72.1395 17.2105 72.9767 15.443 74.5581 14.5128C76.2325 13.4895 77.9999 13.0244 80.1395 13.0244C82.5581 13.0244 84.5116 13.4895 86.093 14.4198C87.5813 15.35 88.3255 16.8384 88.3255 18.7919V30.6988C88.3255 31.0709 88.4185 31.35 88.5116 31.536C88.6976 31.7221 88.9767 31.9081 89.4418 31.9081C89.6278 31.9081 89.8139 31.9081 89.9999 31.9081C90.186 31.9081 90.372 31.8151 90.6511 31.8151V34.4198C90.093 34.6058 89.7209 34.6988 89.4418 34.6988C89.1627 34.6988 88.7906 34.7919 88.3255 34.7919C87.1162 34.7919 86.279 34.3267 85.7209 33.4895C85.4418 33.0244 85.2558 32.3733 85.1627 31.536C84.4185 32.4663 83.3953 33.3035 82.093 33.9546C80.7906 34.6058 79.3023 34.9779 77.7209 34.9779C75.7674 34.9779 74.186 34.4198 72.9767 33.2105C71.7674 32.0012 71.1162 30.6058 71.1162 28.8384C71.1162 26.8849 71.6744 25.3965 72.8837 24.3733C74.093 23.35 75.6744 22.6988 77.6278 22.4198L83.2092 21.6756ZM75.8604 31.0709C76.6046 31.6291 77.4418 31.9081 78.465 31.9081C79.6744 31.9081 80.8837 31.6291 81.9999 31.0709C83.9534 30.1407 84.8837 28.5593 84.8837 26.4198V23.6291C84.4185 23.9081 83.9534 24.0942 83.2092 24.2802C82.465 24.4663 81.9069 24.5593 81.2557 24.6523L79.2092 25.1174C77.9069 25.3035 76.9767 25.5826 76.3255 25.9546C75.2092 26.6058 74.7441 27.536 74.7441 28.8384C74.7441 29.7686 75.1162 30.5128 75.8604 31.0709Z" fill="#5841D8"/>
<path d="M92.9758 13.4893H96.3247V22.3265L105.255 13.4893H109.72L101.72 21.2102L110.092 34.2334H105.627L99.1154 23.7218L96.2316 26.5125V34.3265H92.8828L92.9758 13.4893Z" fill="#5841D8"/>
<path d="M124.326 14.1407C125.721 14.7919 126.744 15.7221 127.488 16.8384C128.14 17.8617 128.605 19.071 128.884 20.4663C129.07 21.3965 129.163 22.9779 129.163 25.0244H114.093C114.186 27.164 114.651 28.8384 115.581 30.1407C116.512 31.4431 117.907 32.0942 119.86 32.0942C121.628 32.0942 123.116 31.5361 124.14 30.3268C124.698 29.5826 125.163 28.8384 125.442 27.9082H128.884C128.791 28.6524 128.512 29.4896 127.953 30.4198C127.488 31.35 126.837 32.0942 126.279 32.7454C125.256 33.7686 123.953 34.5128 122.372 34.7919C121.535 34.9779 120.605 35.071 119.581 35.071C116.977 35.071 114.837 34.1407 113.07 32.2803C111.302 30.4198 110.372 27.8151 110.372 24.4663C110.372 21.1175 111.302 18.4198 113.07 16.3733C114.837 14.3268 117.256 13.2105 120.14 13.2105C121.535 13.0245 122.93 13.3965 124.326 14.1407ZM125.628 22.2338C125.442 20.7454 125.163 19.5361 124.605 18.6058C123.674 16.9314 122.093 16.0942 119.86 16.0942C118.279 16.0942 116.977 16.6524 115.86 17.8617C114.744 18.9779 114.186 20.4663 114.186 22.2338H125.628Z" fill="#5841D8"/>
<path d="M132.232 13.4895H135.581V16.4663C136.605 15.257 137.628 14.4198 138.744 13.8616C139.86 13.3035 141.07 13.0244 142.372 13.0244C145.349 13.0244 147.302 14.0477 148.325 16.0942C148.884 17.2105 149.163 18.7919 149.163 20.9314V34.2337H145.628V21.2105C145.628 19.9081 145.442 18.8849 145.07 18.1407C144.418 16.8384 143.302 16.1872 141.721 16.1872C140.884 16.1872 140.232 16.2802 139.674 16.4663C138.744 16.7453 137.907 17.3035 137.163 18.1407C136.605 18.7919 136.232 19.536 136.046 20.2802C135.86 21.0244 135.767 22.0477 135.767 23.443V34.3267H132.325L132.232 13.4895Z" fill="#5841D8"/>
<path d="M24.139 13.4893C16.8832 13.4893 10.9297 19.3497 10.9297 26.6986V32.373C10.9297 33.3962 11.7669 34.2334 12.7902 34.2334C13.8134 34.2334 14.6506 33.3962 14.6506 32.373V26.6986C14.6506 25.6753 15.4878 24.8381 16.5111 24.8381C17.5343 24.8381 18.3715 25.6753 18.3715 26.6986V32.373C18.3715 33.3962 19.2088 34.2334 20.232 34.2334C21.2553 34.2334 22.0925 33.3962 22.0925 32.373V26.6986C22.0925 25.6753 22.9297 24.8381 23.9529 24.8381C24.9762 24.8381 25.8134 25.6753 25.8134 26.6986V32.373C25.8134 33.3962 26.6506 34.2334 27.6739 34.2334C28.6971 34.2334 29.5343 33.3962 29.5343 32.373V26.6986C29.5343 25.6753 30.3715 24.8381 31.3948 24.8381C32.4181 24.8381 33.2553 25.6753 33.2553 26.6986V32.373C33.2553 33.3962 34.0925 34.2334 35.1157 34.2334C36.139 34.2334 36.9762 33.3962 36.9762 32.373V26.6986C37.4413 19.3497 31.4878 13.4893 24.139 13.4893Z" fill="#5841D8"/>
</svg>
