<svg width="160" height="48" viewBox="0 0 160 48" fill="none" xmlns="http://www.w3.org/2000/svg">
<path fill-rule="evenodd" clip-rule="evenodd" d="M18.9052 10.1123L26.8382 17.4213V17.4196V10.1292H28.3824V17.454L36.3509 10.1123V18.4457H39.6224V30.4657H36.3609V37.8862L28.3824 30.8765V37.9667H26.8382V30.9921L18.9142 37.9712V30.4657H15.6426V18.4457H18.9052V10.1123ZM25.674 19.971H17.1868V28.9404H18.9123V26.1111L25.674 19.971ZM20.4584 26.7879V34.5675L26.8382 28.9484V20.9932L20.4584 26.7879ZM28.4268 28.8741V20.9858L34.8085 26.7808V30.4657H34.8167V34.4881L28.4268 28.8741ZM36.3609 28.9404H38.0782V19.971H29.6542L36.3609 26.0475V28.9404ZM34.8066 18.4457V13.621L29.57 18.4457H34.8066ZM25.686 18.4457H20.4495V13.621L25.686 18.4457Z" fill="black"/>
<path d="M77.775 18.263H78.7555V20.2835H77.4863C76.4917 20.2835 75.7499 20.5227 75.2582 21.0027C74.7694 21.4811 74.5236 22.2681 74.5236 23.3619V29.987H72.5199V18.3091H74.5236V20.1726C74.5236 20.2777 74.5765 20.3297 74.6794 20.3297C74.738 20.3297 74.7823 20.3152 74.8138 20.285C74.8452 20.2546 74.8723 20.1956 74.9038 20.1048C75.2897 18.8784 76.2487 18.2644 77.7764 18.2644H77.775V18.263ZM91.1036 20.7663C91.6296 21.7016 91.8939 22.8287 91.8939 24.1459C91.8939 25.4631 91.631 26.5902 91.1036 27.5255C90.5762 28.4609 89.893 29.1612 89.0541 29.6253C88.2152 30.0894 87.3134 30.3214 86.3487 30.3214C84.4478 30.3214 83.1116 29.5576 82.3398 28.0299C82.2812 27.9103 82.2055 27.8497 82.1169 27.8497C82.0283 27.8497 81.9825 27.8944 81.9825 27.9852V34.2515H79.9788V18.3076H81.9825V20.3066C81.9825 20.3959 82.0269 20.4421 82.1169 20.4421C82.2069 20.4421 82.2798 20.3829 82.3398 20.2619C83.1116 18.7342 84.4478 17.9704 86.3487 17.9704C87.3134 17.9704 88.2152 18.2024 89.0541 18.6665C89.893 19.1306 90.5748 19.8309 91.1036 20.7663ZM89.8916 24.1459C89.8916 22.7681 89.5243 21.6944 88.7897 20.9234C88.0551 20.1524 87.0876 19.7675 85.8828 19.7675C84.678 19.7675 83.7104 20.1538 82.9758 20.9234C82.2398 21.6944 81.9711 22.7695 81.9711 24.1459C81.9711 25.5223 82.2412 26.5974 82.9758 27.3684C83.7104 28.1409 84.6794 28.5242 85.8828 28.5242C87.0862 28.5242 88.0551 28.138 88.7897 27.3684C89.5243 26.5988 89.8916 25.5223 89.8916 24.1459ZM57.3577 20.7836C57.8836 21.7189 58.148 22.846 58.148 24.1632C58.148 25.4805 57.8851 26.6074 57.3577 27.5427C56.8303 28.4781 56.1472 29.1786 55.3083 29.6426C54.4693 30.1067 53.5675 30.3387 52.6028 30.3387C50.702 30.3387 49.3657 29.5749 48.5939 28.0472C48.5354 27.9276 48.4597 27.8671 48.371 27.8671C48.2824 27.8671 48.2367 27.9117 48.2367 28.0025V34.2688H46.2344V18.325H48.2381V20.3238C48.2381 20.4132 48.2824 20.4593 48.3725 20.4593C48.4625 20.4593 48.5354 20.4003 48.5954 20.2791C49.3672 18.7515 50.7034 17.9877 52.6043 17.9877C53.5689 17.9877 54.4707 18.2197 55.3097 18.6838C56.1486 19.1479 56.8304 19.8483 57.3592 20.7836H57.3577ZM56.1443 24.1632C56.1443 22.7854 55.777 21.7118 55.0425 20.9407C54.3078 20.1711 53.3388 19.7848 52.1354 19.7848C50.9321 19.7848 49.9632 20.1711 49.2285 20.9407C48.4939 21.7132 48.2238 22.7869 48.2238 24.1632C48.2238 25.5395 48.4939 26.6147 49.2285 27.3857C49.9632 28.1582 50.9306 28.5415 52.1354 28.5415C53.3403 28.5415 54.3078 28.1553 55.0425 27.3857C55.777 26.6161 56.1443 25.5395 56.1443 24.1632ZM68.9784 26.2775H71.0936C70.812 27.3713 70.2361 28.3181 69.3686 29.118C68.4996 29.9193 67.2562 30.3185 65.637 30.3185C64.4193 30.3185 63.3474 30.0678 62.4199 29.5662C61.4923 29.0647 60.7763 28.3513 60.2703 27.4217C59.7645 26.4936 59.513 25.4011 59.513 24.143C59.513 22.8848 59.7587 21.7924 60.2475 20.8643C60.7363 19.9362 61.4238 19.2213 62.307 18.7198C63.1902 18.2183 64.2249 17.9675 65.4126 17.9675C66.6002 17.9675 67.5849 18.2154 68.4082 18.7083C69.2328 19.2026 69.8473 19.8584 70.2561 20.6726C70.6648 21.4898 70.8678 22.3833 70.8678 23.3561V24.7036H61.6267C61.6995 25.871 62.0911 26.8006 62.7957 27.488C63.5003 28.1769 64.4479 28.5213 65.6356 28.5213C66.6002 28.5213 67.3405 28.3239 67.8522 27.9262C68.3638 27.5284 68.7383 26.9793 68.977 26.2745L68.9784 26.2775ZM61.5853 23.0218H68.5782C68.5782 22.0043 68.3181 21.2059 67.7979 20.6294C67.2777 20.0543 66.4616 19.7646 65.3483 19.7646C64.3093 19.7646 63.4589 20.0457 62.7986 20.6078C62.1383 21.1684 61.7339 21.974 61.5853 23.0218ZM93.5103 29.9842H95.5154V13.8154H93.5103V29.9856V29.9842ZM121.691 17.0322H124.032V14.5043H121.691V17.0322ZM130.336 28.2447C129.972 28.2822 129.751 28.3008 129.679 28.3008C129.576 28.3008 129.491 28.2706 129.433 28.21C129.374 28.151 129.343 28.0688 129.343 27.9621C129.343 27.8887 129.362 27.6667 129.4 27.2992C129.436 26.9332 129.456 26.3668 129.456 25.6043V20.0169H132.314L131.751 18.3062H129.457V15.1615H127.454V18.3048H125.274V20.0155H127.454V26.1636C127.454 27.452 127.767 28.4103 128.389 29.0388C129.012 29.6671 129.963 29.9827 131.241 29.9827H132.8V28.187H132.02C131.262 28.187 130.702 28.2057 130.338 28.2432L130.336 28.2447ZM142.448 18.3062L139.13 28.1049C139.086 28.2259 139.015 28.383 138.789 28.383C138.561 28.383 138.49 28.2259 138.445 28.1049L135.126 18.3062H133.083L136.926 29.9842H138.285C138.373 29.9842 138.441 29.9928 138.487 30.0072C138.531 30.0217 138.568 30.0591 138.598 30.1196C138.656 30.209 138.649 30.3444 138.575 30.5232L137.952 32.2296C137.862 32.4544 137.692 32.5668 137.441 32.5668C137.351 32.5668 137.144 32.548 136.817 32.5105C136.49 32.4731 136.069 32.4544 135.549 32.4544H133.922V34.2501H136.06C137.308 34.2501 138.058 34.0368 138.704 33.6102C139.35 33.1837 139.85 32.4313 140.207 31.3533L144.358 18.7544V18.3062H142.451H142.448ZM114.908 22.6629L111.768 18.3062H109.563V18.7544L113.326 23.8072L108.738 29.5345V29.9827H110.988L114.64 25.2887L118.048 29.9827H120.209V29.5345L116.221 24.1445L120.544 18.7775V18.3062H118.294L114.909 22.6629H114.908ZM121.904 29.9842H123.909V18.3076H121.904V29.9856V29.9842ZM108.711 26.2775C108.428 27.3713 107.854 28.3181 106.986 29.118C106.117 29.9193 104.874 30.3185 103.254 30.3185C102.037 30.3185 100.965 30.0678 100.037 29.5662C99.1082 29.0647 98.3941 28.3513 97.8879 27.4217C97.3834 26.4936 97.1319 25.4011 97.1319 24.143C97.1319 22.8848 97.3777 21.7924 97.8665 20.8643C98.357 19.9362 99.0429 19.2213 99.9263 18.7198C100.809 18.2183 101.844 17.9675 103.033 17.9675C104.222 17.9675 105.205 18.2154 106.03 18.7083C106.853 19.2026 107.469 19.8584 107.878 20.6726C108.287 21.4898 108.489 22.3833 108.489 23.3561V24.7036H99.2475C99.3215 25.871 99.7112 26.8006 100.416 27.488C101.121 28.1769 102.069 28.5213 103.256 28.5213C104.221 28.5213 104.961 28.3239 105.473 27.9262C105.984 27.5284 106.359 26.9793 106.596 26.2745H108.712L108.711 26.2775ZM99.2528 23.0218H106.246C106.246 22.0043 105.986 21.2059 105.467 20.6294C104.946 20.0543 104.131 19.7646 103.017 19.7646C101.978 19.7646 101.128 20.0457 100.468 20.6078C99.8073 21.1684 99.4018 21.974 99.2545 23.0218H99.2528Z" fill="black"/>
</svg>
