<svg width="160" height="48" viewBox="0 0 160 48" fill="none" xmlns="http://www.w3.org/2000/svg">
<path fill-rule="evenodd" clip-rule="evenodd" d="M26.556 40.6896C27.349 40.6896 27.991 40.0396 27.991 39.2406C27.991 38.4416 27.349 37.7926 26.556 37.7926C25.762 37.7926 25.12 38.4416 25.12 39.2406C25.12 40.0406 25.762 40.6896 26.556 40.6896ZM31.476 32.8296C31.6704 32.8305 31.8626 32.8697 32.0419 32.9449C32.2211 33.0201 32.3837 33.1299 32.5205 33.268C32.6573 33.4061 32.7655 33.5697 32.839 33.7497C32.9126 33.9296 32.9499 34.1222 32.949 34.3166C32.9498 34.5109 32.9123 34.7035 32.8386 34.8834C32.765 35.0633 32.6566 35.2269 32.5198 35.3648C32.3829 35.5028 32.2202 35.6125 32.0409 35.6876C31.8617 35.7627 31.6694 35.8018 31.475 35.8026C31.2807 35.8019 31.0884 35.7629 30.9091 35.6879C30.7298 35.6128 30.5671 35.5031 30.4303 35.3651C30.2935 35.2271 30.1852 35.0634 30.1117 34.8835C30.0382 34.7036 30.001 34.5109 30.002 34.3166C30.002 33.4946 30.662 32.8306 31.475 32.8306L31.476 32.8296ZM36.395 35.0876C37.413 35.0876 37.413 33.5466 36.395 33.5466C35.376 33.5466 35.376 35.0876 36.395 35.0876ZM41.314 27.7326C42.224 27.7326 42.961 28.4766 42.961 29.3956C42.961 30.3156 42.223 31.0556 41.314 31.0556C40.404 31.0556 39.667 30.3136 39.667 29.3956C39.667 28.4776 40.405 27.7326 41.314 27.7326ZM39.605 24.4726C39.605 25.4256 40.37 26.1966 41.314 26.1966C42.258 26.1966 43.023 25.4236 43.023 24.4726C43.023 23.5206 42.258 22.7486 41.314 22.7486C40.37 22.7486 39.605 23.5196 39.605 24.4726ZM40.187 19.5506C40.187 18.9206 40.692 18.4126 41.315 18.4126C41.939 18.4126 42.443 18.9216 42.443 19.5506C42.443 20.1796 41.938 20.6886 41.315 20.6886C40.692 20.6886 40.187 20.1786 40.187 19.5506ZM41.315 13.6556C40.03 13.6556 40.03 15.5986 41.315 15.5986C42.6 15.5986 42.6 13.6556 41.315 13.6556ZM36.395 10.7146C36.949 10.7146 37.398 10.2616 37.398 9.70457C37.398 9.14557 36.948 8.69357 36.396 8.69357C35.843 8.69357 35.394 9.14557 35.394 9.70357C35.394 10.2616 35.841 10.7146 36.395 10.7146ZM36.395 13.7616C35.251 13.7616 35.251 15.4926 36.395 15.4926C37.54 15.4926 37.539 13.7616 36.395 13.7616ZM34.629 19.5506C34.629 20.5346 35.42 21.3306 36.396 21.3306C37.371 21.3306 38.163 20.5336 38.163 19.5506C38.163 18.5676 37.373 17.7686 36.396 17.7686C35.419 17.7686 34.629 18.5666 34.629 19.5506ZM37.816 24.4736C37.816 25.2646 37.179 25.9056 36.395 25.9056C36.2077 25.9049 36.0224 25.8673 35.8496 25.795C35.6768 25.7227 35.52 25.617 35.3881 25.484C35.2562 25.351 35.1519 25.1933 35.081 25.0199C35.0101 24.8465 34.9741 24.6609 34.975 24.4736C34.975 23.6836 35.61 23.0416 36.395 23.0416C37.179 23.0416 37.816 23.6836 37.816 24.4736ZM36.395 30.0806C37.299 30.0806 37.299 28.7106 36.395 28.7106C35.49 28.7106 35.49 30.0806 36.395 30.0806ZM31.475 9.00357C30.548 9.00357 30.548 10.4046 31.475 10.4046C32.402 10.4046 32.402 9.00357 31.475 9.00357ZM31.475 16.4956C31.2305 16.4945 30.9886 16.4453 30.7631 16.3508C30.5376 16.2562 30.3329 16.1182 30.1607 15.9446C29.9886 15.7709 29.8523 15.5651 29.7597 15.3387C29.6671 15.1124 29.62 14.8701 29.621 14.6256C29.621 13.5906 30.451 12.7546 31.475 12.7546C32.499 12.7546 33.33 13.5926 33.33 14.6246C33.33 15.6576 32.5 16.4946 31.475 16.4946V16.4956ZM33.238 19.5496C33.2389 19.3171 33.1941 19.0868 33.106 18.8717C33.0179 18.6566 32.8883 18.4609 32.7245 18.2959C32.5608 18.1309 32.3662 17.9998 32.1518 17.91C31.9374 17.8202 31.7075 17.7735 31.475 17.7726C30.502 17.7726 29.715 18.5686 29.715 19.5496C29.715 20.5296 30.505 21.3256 31.475 21.3256C32.445 21.3256 33.238 20.5306 33.238 19.5496ZM31.475 23.6626C30.405 23.6626 30.405 25.2836 31.475 25.2836C32.545 25.2836 32.545 23.6626 31.475 23.6626ZM33.044 29.3946C33.044 28.5206 32.341 27.8126 31.475 27.8126C30.609 27.8126 29.909 28.5206 29.909 29.3946C29.909 30.2686 30.611 30.9766 31.475 30.9766C32.339 30.9766 33.044 30.2686 33.044 29.3946ZM28.434 9.70457C28.4361 9.20428 28.2395 8.72362 27.8873 8.36826C27.5352 8.01291 27.0563 7.81195 26.556 7.80957C26.0558 7.81222 25.577 8.01306 25.2246 8.36808C24.8722 8.7231 24.6749 9.20335 24.676 9.70357C24.676 10.7506 25.518 11.5986 26.556 11.5986C27.593 11.5986 28.436 10.7506 28.436 9.70357L28.434 9.70457ZM26.556 13.0116C27.438 13.0116 28.154 13.7346 28.154 14.6256C28.154 15.5176 27.438 16.2396 26.556 16.2396C25.673 16.2396 24.956 15.5176 24.956 14.6256C24.956 13.7356 25.672 13.0116 26.556 13.0116ZM28.338 19.5506C28.3392 19.3154 28.294 19.0823 28.2051 18.8646C28.1162 18.647 27.9852 18.4489 27.8197 18.2819C27.6543 18.1148 27.4575 17.982 27.2406 17.891C27.0238 17.8 26.7912 17.7526 26.556 17.7516C26.3208 17.7525 26.088 17.7998 25.8711 17.8907C25.6541 17.9816 25.4572 18.1144 25.2916 18.2815C25.126 18.4486 24.995 18.6467 24.906 18.8644C24.817 19.0822 24.7718 19.3153 24.773 19.5506C24.772 19.7857 24.8172 20.0188 24.9063 20.2364C24.9953 20.4541 25.1264 20.652 25.292 20.819C25.4576 20.986 25.6544 21.1187 25.8713 21.2095C26.0882 21.3004 26.3209 21.3477 26.556 21.3486C26.7911 21.3475 27.0236 21.3002 27.2404 21.2093C27.4572 21.1183 27.6539 20.9856 27.8194 20.8186C27.9849 20.6517 28.1158 20.4538 28.2048 20.2362C28.2938 20.0186 28.3391 19.7856 28.338 19.5506ZM26.556 22.5266C27.62 22.5266 28.486 23.3966 28.486 24.4726C28.4872 24.7271 28.4382 24.9794 28.3418 25.215C28.2454 25.4506 28.1036 25.6649 27.9243 25.8456C27.7451 26.0263 27.532 26.1699 27.2972 26.2683C27.0624 26.3666 26.8105 26.4177 26.556 26.4186C26.3015 26.4177 26.0496 26.3666 25.8148 26.2683C25.58 26.1699 25.3669 26.0263 25.1877 25.8456C25.0084 25.6649 24.8666 25.4506 24.7702 25.215C24.6738 24.9794 24.6248 24.7271 24.626 24.4726C24.626 23.3976 25.491 22.5266 26.556 22.5266ZM27.726 29.3966C27.726 28.7436 27.203 28.2136 26.556 28.2136C25.908 28.2136 25.385 28.7436 25.385 29.3956C25.385 30.0476 25.908 30.5756 26.555 30.5756C27.203 30.5756 27.727 30.0476 27.727 29.3956L27.726 29.3966ZM26.556 33.1436C26.7098 33.1442 26.862 33.1752 27.0038 33.2347C27.1457 33.2943 27.2744 33.3812 27.3826 33.4905C27.4908 33.5998 27.5764 33.7294 27.6344 33.8718C27.6925 34.0143 27.7219 34.1668 27.721 34.3206C27.7218 34.4743 27.6923 34.6267 27.6342 34.769C27.576 34.9113 27.4904 35.0408 27.3822 35.15C27.274 35.2592 27.1454 35.346 27.0036 35.4055C26.8618 35.465 26.7097 35.4959 26.556 35.4966C26.4021 35.496 26.2498 35.4652 26.1079 35.4057C25.9659 35.3462 25.8371 35.2593 25.7288 35.15C25.6205 35.0407 25.5348 34.911 25.4767 34.7685C25.4185 34.626 25.3891 34.4735 25.39 34.3196C25.39 33.6696 25.912 33.1436 26.556 33.1436ZM21.637 11.5316C20.637 11.5316 19.826 10.7136 19.826 9.70557C19.8239 9.22305 20.0135 8.75943 20.3531 8.41664C20.6927 8.07385 21.1545 7.87995 21.637 7.87757C22.1194 7.87969 22.5811 8.0732 22.9209 8.41558C23.2607 8.75796 23.4506 9.22122 23.449 9.70357C23.4509 10.1861 23.261 10.6496 22.9213 10.9922C22.5815 11.3348 22.1195 11.5295 21.637 11.5316ZM21.637 15.4966C22.785 15.4966 22.785 13.7596 21.637 13.7596C20.489 13.7596 20.489 15.4966 21.637 15.4966ZM21.637 21.0516C20.814 21.0516 20.147 20.3786 20.147 19.5496C20.147 18.7196 20.814 18.0466 21.637 18.0466C22.461 18.0466 23.128 18.7196 23.128 19.5496C23.128 20.3796 22.46 21.0516 21.637 21.0516ZM21.637 25.9846C22.467 25.9846 23.137 25.3066 23.137 24.4716C23.137 23.6356 22.467 22.9596 21.637 22.9596C20.808 22.9596 20.137 23.6366 20.137 24.4716C20.137 25.3056 20.808 25.9846 21.637 25.9846ZM21.637 28.2366C22.271 28.2366 22.785 28.7556 22.785 29.3946C22.785 30.0346 22.271 30.5526 21.637 30.5526C21.4856 30.5519 21.3358 30.5214 21.1962 30.4629C21.0565 30.4043 20.9298 30.3189 20.8232 30.2113C20.7166 30.1038 20.6322 29.9763 20.5749 29.8362C20.5175 29.696 20.4884 29.546 20.489 29.3946C20.489 28.7546 21.004 28.2366 21.637 28.2366ZM23.327 34.3186C23.327 33.3786 22.571 32.6146 21.637 32.6146C20.704 32.6146 19.949 33.3766 19.949 34.3186C19.949 35.2616 20.704 36.0236 21.637 36.0236C22.571 36.0236 23.327 35.2616 23.327 34.3186ZM21.637 38.4226C20.554 38.4226 20.554 40.0606 21.637 40.0606C22.72 40.0606 22.72 38.4226 21.637 38.4226ZM15.182 14.6296C15.181 14.832 15.2198 15.0326 15.2964 15.22C15.3729 15.4073 15.4856 15.5778 15.6281 15.7216C15.7706 15.8653 15.94 15.9796 16.1267 16.0579C16.3133 16.1361 16.5136 16.1768 16.716 16.1776C17.562 16.1776 18.25 15.4846 18.25 14.6296C18.2511 14.4272 18.2122 14.2265 18.1357 14.0392C18.0591 13.8518 17.9464 13.6813 17.8039 13.5376C17.6614 13.3938 17.492 13.2795 17.3054 13.2013C17.1187 13.123 16.9184 13.0824 16.716 13.0816C16.5136 13.0824 16.3133 13.123 16.1267 13.2013C15.94 13.2795 15.7706 13.3938 15.6281 13.5376C15.4856 13.6813 15.3729 13.8518 15.2964 14.0392C15.2198 14.2265 15.181 14.4272 15.182 14.6296ZM16.716 20.3596C17.784 20.3596 17.784 18.7436 16.716 18.7436C15.648 18.7436 15.648 20.3606 16.716 20.3606V20.3596ZM17.691 24.4736C17.6918 24.2141 17.5896 23.9649 17.4067 23.7808C17.2239 23.5967 16.9755 23.4926 16.716 23.4916C16.5875 23.492 16.4603 23.5177 16.3417 23.5673C16.2232 23.6168 16.1155 23.6893 16.025 23.7805C15.9344 23.8717 15.8627 23.9798 15.814 24.0988C15.7653 24.2177 15.7405 24.3451 15.741 24.4736C15.7399 24.7333 15.842 24.9828 16.0249 25.1674C16.2077 25.3519 16.4563 25.4562 16.716 25.4576C16.9757 25.4562 17.2243 25.3519 17.4072 25.1674C17.59 24.9828 17.6921 24.7333 17.691 24.4736ZM16.716 28.3136C17.308 28.3136 17.788 28.7996 17.788 29.3966C17.788 29.9946 17.308 30.4776 16.716 30.4776C16.5747 30.4772 16.4348 30.4489 16.3044 30.3944C16.174 30.3399 16.0556 30.2602 15.956 30.1599C15.8565 30.0596 15.7777 29.9406 15.7241 29.8098C15.6706 29.679 15.6434 29.5389 15.644 29.3976C15.644 28.7976 16.124 28.3146 16.716 28.3146V28.3136ZM15.082 34.3186C15.082 35.2286 15.813 35.9656 16.716 35.9656C16.9314 35.9647 17.1445 35.9213 17.3431 35.8381C17.5417 35.7548 17.722 35.6332 17.8736 35.4803C18.0253 35.3273 18.1453 35.146 18.2269 34.9467C18.3084 34.7474 18.3499 34.5339 18.349 34.3186C18.349 33.4086 17.618 32.6726 16.716 32.6726C16.5006 32.6734 16.2875 32.7166 16.0889 32.7997C15.8902 32.8828 15.7098 33.0043 15.5581 33.1572C15.4064 33.31 15.2862 33.4912 15.2045 33.6905C15.1229 33.8898 15.0812 34.1032 15.082 34.3186ZM11.797 20.8586C11.4516 20.857 11.121 20.7183 10.8778 20.473C10.6346 20.2278 10.4987 19.896 10.5 19.5506C10.5 18.8286 11.08 18.2426 11.797 18.2426C12.514 18.2426 13.095 18.8286 13.095 19.5506C13.095 20.2726 12.515 20.8586 11.797 20.8586ZM11.797 23.6366C10.69 23.6366 10.69 25.3126 11.797 25.3126C12.905 25.3126 12.905 23.6366 11.797 23.6366ZM11.797 28.5646C10.697 28.5646 10.697 30.2296 11.797 30.2296C12.897 30.2296 12.897 28.5646 11.797 28.5646Z" fill="black"/>
<path d="M53.875 32.1443H56.465V25.8003H61.39C65.063 25.8003 67.016 23.8223 67.016 20.8233C67.016 17.8253 65.063 16.0303 61.39 16.0303H53.875V32.1443ZM56.465 23.4143V18.3963H60.796C63.174 18.3963 64.342 19.3353 64.342 20.9053C64.342 22.4753 63.217 23.4133 60.902 23.4133L56.465 23.4143ZM69.043 32.1433H71.463V26.2503C71.463 24.3333 73.352 23.6803 75.837 23.6803V21.4163C73.672 21.4163 72.185 22.1303 71.463 23.5583V21.5393H69.043V32.1463V32.1433ZM82.31 32.4703C84.944 32.4703 86.917 30.9603 87.257 28.9413H84.773C84.583 29.7573 83.669 30.5123 82.311 30.5123C80.421 30.5123 79.359 29.3283 79.211 27.5753H87.341V26.6983C87.341 23.2313 85.091 21.2113 82.31 21.2113C78.998 21.2113 76.64 23.5363 76.64 26.8203C76.64 30.1043 78.997 32.4703 82.31 32.4703ZM79.211 25.9223C79.466 24.3313 80.463 23.2703 82.226 23.2703C83.756 23.2703 84.773 24.3723 84.859 25.9223H79.211ZM95.169 32.2603C97.823 32.2603 99.796 30.5883 100.137 28.3243H97.653C97.483 29.4053 96.486 30.2003 95.084 30.2003C93.302 30.2003 92.028 28.7313 92.028 26.6103C92.028 24.4903 93.302 23.0603 95.084 23.0603C96.443 23.0603 97.462 23.8763 97.654 24.9783H100.137C99.797 22.6933 97.802 21.0003 95.169 21.0003C91.835 21.0003 89.5 23.3253 89.5 26.6093C89.5 29.8933 91.835 32.2603 95.169 32.2603ZM102.652 32.1443H105.136V21.5373H102.652V32.1443ZM112.796 32.4703C115.811 32.4703 117.658 31.1853 117.658 29.1653C117.658 24.6163 110.504 26.9013 110.504 24.4953C110.504 23.5963 111.31 22.9653 112.712 22.9653C114.241 22.9653 115.174 23.7003 115.238 24.9243H117.637C117.467 22.6393 115.663 21.2123 112.903 21.2123C109.867 21.2123 108.02 22.5793 108.02 24.5983C108.02 29.0243 115.176 26.6993 115.176 29.2283C115.176 30.0643 114.326 30.7163 112.883 30.7163C111.27 30.7163 110.187 30.0223 110.123 28.8193H107.703C107.767 31.0833 109.699 32.4713 112.799 32.4713L112.796 32.4703ZM120.254 32.1443H122.737V21.5373H120.254V32.1443ZM131.011 32.4703C134.345 32.4703 136.722 30.1233 136.722 26.8203C136.722 23.5173 134.344 21.2103 131.011 21.2103C127.679 21.2103 125.301 23.5363 125.301 26.8203C125.301 30.1043 127.679 32.4703 131.011 32.4703ZM131.011 30.4093C129.143 30.4093 127.827 28.9203 127.827 26.8193C127.827 24.7173 129.143 23.2693 131.011 23.2693C132.88 23.2693 134.218 24.7393 134.218 26.8193C134.218 28.8993 132.88 30.4093 131.011 30.4093ZM139.098 32.1443H141.603V26.8403C141.603 24.7383 142.771 23.2703 144.596 23.2703C146.125 23.2703 146.974 24.3313 146.974 26.0243V32.1443H149.501V25.9223C149.501 22.8223 148.142 21.2103 145.424 21.2103C143.62 21.2103 142.368 22.0263 141.603 23.2503V21.5363H139.098V32.1443Z" fill="black"/>
<path fill-rule="evenodd" clip-rule="evenodd" d="M123.126 18.3472C123.128 17.9124 122.957 17.4948 122.651 17.1861C122.344 16.8775 121.928 16.703 121.493 16.7012C121.278 16.702 121.065 16.7452 120.866 16.8283C120.668 16.9114 120.487 17.0329 120.336 17.1858C120.184 17.3386 120.064 17.5198 119.982 17.7191C119.9 17.9184 119.859 18.1318 119.859 18.3472C119.859 19.2572 120.59 19.9942 121.493 19.9942C121.709 19.9933 121.922 19.9499 122.121 19.8667C122.319 19.7834 122.499 19.6618 122.651 19.5089C122.803 19.3559 122.923 19.1746 123.004 18.9753C123.086 18.776 123.127 18.5625 123.126 18.3472ZM105.54 18.3472C105.54 17.4372 104.809 16.7012 103.907 16.7012C103.692 16.702 103.479 16.7452 103.28 16.8283C103.082 16.9114 102.901 17.0329 102.75 17.1858C102.598 17.3386 102.478 17.5198 102.396 17.7191C102.314 17.9184 102.273 18.1318 102.273 18.3472C102.273 19.2572 103.004 19.9942 103.907 19.9942C104.123 19.9933 104.336 19.9499 104.535 19.8667C104.733 19.7834 104.913 19.6618 105.065 19.5089C105.217 19.3559 105.337 19.1746 105.418 18.9753C105.5 18.776 105.541 18.5625 105.54 18.3472Z" fill="black"/>
</svg>
