<svg width="160" height="48" viewBox="0 0 160 48" fill="none" xmlns="http://www.w3.org/2000/svg">
<path d="M36.021 27.9346C34.9092 27.2505 33.6263 27.0794 32.3435 27.0794C31.3172 27.0794 29.6923 26.3952 29.6923 24.4282C29.6923 23.744 29.9489 23.0599 30.462 22.5467C30.9752 22.0336 31.6593 21.777 32.3435 21.777C33.6263 21.6915 34.9092 21.5205 36.021 20.9218C37.0472 20.3231 37.9025 19.4679 38.5011 18.4417C39.0998 17.4154 39.3563 16.3036 39.3563 15.1063C39.3563 13.909 39.0143 12.7972 38.5011 11.7709C37.9025 10.7446 37.0472 9.88943 36.021 9.29077C34.9947 8.69211 33.8829 8.43555 32.6856 8.43555C31.4883 8.43555 30.3765 8.77764 29.3502 9.29077C28.324 9.88943 27.4687 10.7446 26.8701 11.7709C26.2714 12.7972 26.0149 13.909 25.9293 15.1063C25.9293 16.3891 26.357 17.5864 26.9556 18.6982C27.4687 19.639 27.7253 21.3494 26.0149 22.3757C25.4162 22.7178 24.6465 22.8033 23.9623 22.6322C23.2781 22.4612 22.6795 22.0336 22.3374 21.4349C21.6532 20.4087 20.8835 19.3824 19.7717 18.6982C18.7455 18.0996 17.6337 17.843 16.4364 17.843C15.2391 17.843 14.1273 18.1851 13.101 18.6982C12.0747 19.2969 11.2195 20.1521 10.6208 21.1784C10.0222 22.2046 9.76562 23.3164 9.76562 24.5137C9.76562 25.7111 10.1077 26.8228 10.6208 27.8491C11.2195 28.8754 12.0747 29.7306 13.101 30.3293C14.1273 30.9279 15.2391 31.1845 16.4364 31.1845C17.6337 31.1845 18.7455 30.8424 19.7717 30.3293C20.8835 29.6451 21.7387 28.7043 22.3374 27.5925C22.8505 26.7373 24.2189 25.6255 25.9293 26.5663C26.528 26.9084 26.9556 27.507 27.1267 28.1912C27.2977 28.8754 27.2122 29.5596 26.8701 30.2437C26.2714 31.3555 25.8438 32.5528 25.8438 33.8357C25.8438 35.033 26.1859 36.1448 26.699 37.171C27.2977 38.1973 28.1529 39.0525 29.1792 39.6512C30.2055 40.2498 31.3172 40.5064 32.5146 40.5064C33.7119 40.5064 34.8237 40.1643 35.8499 39.6512C36.8762 39.0525 37.7314 38.1973 38.3301 37.171C38.9287 36.1448 39.1853 35.033 39.1853 33.8357C39.1853 32.6384 38.8432 31.5266 38.3301 30.5003C37.9025 29.3885 37.0472 28.5333 36.021 27.9346Z" fill="#008CFF"/>
<path d="M48.5924 14.2512H53.2106V16.4747C53.8092 15.705 54.5789 15.1064 55.5197 14.6788C56.3749 14.2512 57.4012 14.0801 58.3419 14.0801C59.0261 14.0801 59.7103 14.1656 60.3089 14.3367V19.6391C60.3089 19.6391 59.6247 19.3825 58.0853 19.3825C55.4341 19.3825 53.6382 21.1785 53.6382 23.8297V34.691H48.5068V14.2512H48.5924ZM73.6504 14.2512H78.2686V16.2182C79.8935 14.8498 81.9461 13.9946 83.9986 13.9946C89.1299 13.9946 93.5771 18.4417 93.5771 24.4283C93.5771 30.4149 89.1299 34.862 83.9986 34.862C82.0316 34.862 80.1501 34.1779 78.6962 32.895V41.9604H73.5649V14.2512H73.6504ZM88.4458 24.4283C88.4458 21.0929 86.2222 18.8694 83.3999 18.8694C80.4922 18.8694 78.2686 21.0929 78.2686 24.4283C78.2686 27.7637 80.4922 29.9873 83.3999 29.9873C86.3077 29.9873 88.4458 27.7637 88.4458 24.4283ZM97.3401 14.2512H101.958V16.2182C103.583 14.8498 105.636 13.9946 107.688 13.9946C112.82 13.9946 117.267 18.4417 117.267 24.4283C117.267 30.4149 112.82 34.862 107.688 34.862C105.721 34.862 103.84 34.1779 102.386 32.895V41.9604H97.2545V14.2512H97.3401ZM112.135 24.4283C112.135 21.0929 109.912 18.8694 107.09 18.8694C104.182 18.8694 101.958 21.0929 101.958 24.4283C101.958 27.7637 104.182 29.9873 107.09 29.9873C109.997 29.9873 112.135 27.7637 112.135 24.4283ZM121.03 6.72519H126.161V34.6055H121.03V6.72519ZM129.924 24.4283C129.924 18.6983 134.542 13.9946 140.101 13.9946C145.404 13.9946 149.851 18.1852 149.851 24.4283C149.851 25.1125 149.765 25.7967 149.594 26.3953H135.397C135.825 28.3623 137.45 29.9017 140.016 29.9017C142.41 29.9017 143.351 28.7899 143.351 28.7899H148.91C147.884 31.4411 144.719 34.7765 140.016 34.7765C134.542 34.862 129.924 30.2438 129.924 24.4283ZM144.976 22.8889C144.719 21.7771 144.121 20.7509 143.266 20.0667C142.41 19.3825 141.299 18.9549 140.101 18.9549C138.989 18.9549 137.878 19.3825 136.937 20.0667C136.082 20.7509 135.398 21.7771 135.226 22.8889H144.976ZM63.3022 8.94877C63.3022 8.17907 63.6443 7.40937 64.1574 6.89624C64.6706 6.3831 65.4403 6.04102 66.21 6.04102C66.9797 6.04102 67.7494 6.3831 68.2625 6.89624C68.7756 7.40937 69.1177 8.17907 69.1177 8.94877C69.1177 9.71847 68.7756 10.4882 68.2625 11.0013C67.7494 11.5144 66.9797 11.8565 66.21 11.8565C65.4403 11.8565 64.6706 11.5144 64.1574 11.0013C63.6443 10.4027 63.3022 9.71847 63.3022 8.94877ZM63.6443 14.2512H68.7756V34.6055H63.6443V14.2512Z" fill="#141A1F"/>
</svg>
