<svg width="160" height="48" viewBox="0 0 160 48" fill="none" xmlns="http://www.w3.org/2000/svg">
<path d="M104.168 42.4317C103.94 42.4317 103.714 42.3867 103.503 42.2994C103.292 42.212 103.101 42.084 102.939 41.9225C102.778 41.7611 102.65 41.5694 102.562 41.3585C102.475 41.1475 102.43 40.9214 102.43 40.6931V8.23855C102.43 8.01023 102.475 7.78414 102.562 7.5732C102.65 7.36225 102.778 7.17059 102.939 7.00914C103.101 6.8477 103.292 6.71964 103.503 6.63228C103.714 6.54492 103.94 6.49997 104.168 6.5C104.397 6.49994 104.623 6.54487 104.834 6.63221C105.045 6.71956 105.237 6.84761 105.398 7.00906C105.56 7.17051 105.688 7.36219 105.775 7.57315C105.862 7.7841 105.907 8.01021 105.907 8.23855V40.6931C105.907 40.9215 105.862 41.1476 105.775 41.3585C105.688 41.5695 105.56 41.7612 105.398 41.9226C105.237 42.0841 105.045 42.2121 104.834 42.2995C104.623 42.3868 104.397 42.4317 104.168 42.4317ZM133.903 37.8776C134.05 37.7035 134.163 37.5021 134.233 37.2848C134.302 37.0675 134.329 36.8385 134.31 36.6109C134.292 36.3834 134.229 36.1617 134.124 35.9585C134.02 35.7554 133.877 35.5748 133.703 35.427C133.529 35.2792 133.328 35.1671 133.11 35.0972C132.893 35.0272 132.664 35.0007 132.436 35.0193C132.209 35.0378 131.987 35.101 131.784 35.2053C131.581 35.3095 131.4 35.4527 131.252 35.6268C129.456 37.7416 126.767 38.9546 123.873 38.9546C119.08 38.9546 115.18 35.0549 115.18 30.2616C115.18 25.4683 119.08 21.5689 123.873 21.5689C127.768 21.5689 131.022 24.3672 131.728 28.0594H121.091C120.862 28.0594 120.636 28.1043 120.425 28.1917C120.214 28.2791 120.023 28.4072 119.861 28.5686C119.7 28.7301 119.572 28.9218 119.484 29.1328C119.397 29.3437 119.352 29.5699 119.352 29.7982C119.352 30.0265 119.397 30.2526 119.485 30.4635C119.572 30.6745 119.7 30.8662 119.861 31.0276C120.023 31.189 120.214 31.3171 120.425 31.4045C120.636 31.4918 120.862 31.5368 121.091 31.5367H133.609C133.837 31.5368 134.063 31.4919 134.274 31.4045C134.485 31.3172 134.677 31.1891 134.838 31.0277C135 30.8662 135.128 30.6745 135.215 30.4636C135.303 30.2526 135.348 30.0265 135.347 29.7982V29.5661C135.347 23.2386 130.2 18.0911 123.872 18.0911C117.161 18.0911 111.702 23.5507 111.702 30.2616C111.702 36.9725 117.162 42.4317 123.873 42.4317C127.789 42.4317 131.444 40.7715 133.903 37.8776ZM96.6346 40.6931V29.5655C96.6346 23.2379 91.4873 18.0906 85.1598 18.0906C78.4487 18.0906 72.989 23.5502 72.989 30.2611C72.989 36.972 78.4487 42.4317 85.1598 42.4317C85.3881 42.4317 85.6142 42.3867 85.8251 42.2994C86.0361 42.212 86.2277 42.084 86.3892 41.9225C86.5506 41.7611 86.6787 41.5694 86.7661 41.3585C86.8534 41.1475 86.8984 40.9214 86.8983 40.6931C86.8984 40.4648 86.8535 40.2387 86.7661 40.0277C86.6788 39.8168 86.5507 39.6251 86.3893 39.4636C86.2278 39.3022 86.0361 39.1741 85.8252 39.0868C85.6142 38.9994 85.3881 38.9545 85.1598 38.9546C80.3665 38.9546 76.4668 35.0549 76.4668 30.2616C76.4668 25.4683 80.3665 21.5689 85.1598 21.5689C89.5694 21.5689 93.1575 25.1563 93.1575 29.5666V40.6936C93.1575 40.9219 93.2024 41.148 93.2897 41.359C93.3771 41.5699 93.5051 41.7616 93.6666 41.9231C93.8281 42.0845 94.0197 42.2126 94.2307 42.2999C94.4416 42.3873 94.6677 42.4322 94.8961 42.4321C95.3572 42.4319 95.7994 42.2487 96.1254 41.9226C96.4514 41.5965 96.6346 41.1542 96.6346 40.6931ZM44.0067 35.4772C44.0067 33.7804 43.3835 31.4659 40.4141 30.0752C38.6324 29.2405 36.3968 28.8977 34.2347 28.5662C29.1695 27.7895 27.3708 27.1406 27.3708 25.0453C27.3708 22.7626 30.5363 21.5682 33.6635 21.5682C35.6341 21.5682 38.466 21.9656 40.7686 23.8591C40.945 24.0042 41.1482 24.1131 41.3667 24.1796C41.5851 24.2461 41.8146 24.269 42.0419 24.2468C42.2692 24.2247 42.4899 24.158 42.6914 24.0505C42.8929 23.9431 43.0713 23.797 43.2164 23.6206C43.3614 23.4443 43.4703 23.241 43.5368 23.0226C43.6034 22.8041 43.6262 22.5747 43.6041 22.3474C43.5819 22.1201 43.5152 21.8994 43.4078 21.6978C43.3003 21.4963 43.1543 21.3179 42.9779 21.1729C39.88 18.6249 36.2028 18.0899 33.664 18.0899C26.9515 18.0899 23.8942 21.695 23.8942 25.0444C23.8942 26.7526 24.52 29.0825 27.5006 30.4833C29.2921 31.3251 31.5374 31.669 33.7087 32.0022C38.7427 32.7743 40.5301 33.4149 40.5301 35.4763C40.5301 37.5563 38.047 38.9534 34.3523 38.9534C30.5698 38.9534 27.6871 37.4196 26.3058 36.505C25.9212 36.2505 25.4513 36.1593 24.9995 36.2512C24.5477 36.3431 24.1508 36.6108 23.8963 36.9952C23.7702 37.1856 23.6829 37.399 23.6394 37.6231C23.5958 37.8472 23.5968 38.0777 23.6423 38.3015C23.6879 38.5252 23.777 38.7378 23.9047 38.9271C24.0324 39.1164 24.1961 39.2787 24.3865 39.4047C27.3339 41.3567 30.8732 42.4317 34.3512 42.4317C41.0213 42.4317 44.0067 38.9385 44.0067 35.4772ZM69.2157 37.3002C69.4709 36.9161 69.5631 36.4464 69.4721 35.9944C69.381 35.5423 69.1142 35.1449 68.7303 34.8896C68.3462 34.6343 67.8764 34.5421 67.4244 34.6332C66.9723 34.7243 66.5749 34.9912 66.3196 35.3752C64.8306 37.6164 62.3385 38.9539 59.6544 38.9539C54.8611 38.9539 50.9614 35.0544 50.9614 30.2611C50.9614 25.4679 54.8611 21.5684 59.6544 21.5684C62.339 21.5684 64.8306 22.9059 66.3196 25.1471C66.446 25.3373 66.6086 25.5007 66.7982 25.628C66.9878 25.7553 67.2005 25.8441 67.4244 25.8891C67.6483 25.9342 67.8788 25.9348 68.1029 25.8907C68.3269 25.8467 68.5401 25.759 68.7303 25.6325C68.9204 25.5061 69.0839 25.3435 69.2112 25.154C69.3385 24.9645 69.4272 24.7517 69.4723 24.5279C69.5174 24.304 69.5179 24.0735 69.4739 23.8495C69.4299 23.6254 69.3421 23.4122 69.2157 23.2221C67.0805 20.0087 63.5057 18.0904 59.6544 18.0904C52.9435 18.0904 47.4838 23.55 47.4838 30.2611C47.4838 36.972 52.9435 42.4317 59.6544 42.4317C63.5061 42.4317 67.0805 40.5133 69.2157 37.3002Z" fill="black"/>
</svg>
