<svg width="160" height="48" viewBox="0 0 160 48" fill="none" xmlns="http://www.w3.org/2000/svg">
<path fill-rule="evenodd" clip-rule="evenodd" d="M82.6809 6.70117H85.3416V16.0994H85.5458C85.5458 16.0994 86.774 13.6461 90.2514 13.6461H92.9122C95.9809 13.6461 98.233 15.8951 98.233 18.9642V34.3221H95.573V19.1813C95.573 17.3405 94.5487 16.3165 92.7078 16.3165H89.6388C86.9782 16.3165 85.3416 17.9563 85.3416 20.6137V34.3221H82.6809V6.70117ZM46.4222 14.0676H48.263L48.8884 16.0996H49.0926C49.0926 16.0996 50.3176 13.6463 53.7981 13.6463H56.8671C59.9361 13.6463 62.1852 15.8954 62.1852 18.9644V34.3223H59.5278V19.1815C59.5278 17.3408 58.5037 16.3167 56.663 16.3167H53.3898C50.7291 16.3167 49.0926 17.9565 49.0926 20.614V34.3223H46.4319L46.4222 14.0676ZM19.207 31.655H10V34.3222H19.395C22.6714 34.3222 24.7163 32.2772 24.7163 29.0041V28.3916C24.7163 25.9351 22.8755 24.0944 20.0106 23.4786L15.3051 22.4578C13.257 22.0074 12.6445 21.2134 12.6445 19.593C12.6445 17.7489 13.6653 16.7281 15.5093 16.7281H23.287L24.12 15.9083V14.0675H15.3213C12.0449 14.0675 10 16.0994 10 19.3888V19.9883C10 22.4578 11.6366 24.2985 14.5014 24.9111L19.207 25.9254C21.2551 26.3758 22.0718 27.1698 22.0718 28.7902C22.0718 30.631 21.0477 31.655 19.207 31.655ZM30.6645 38.6194H28.8237V41.2866H30.6645C33.7335 41.2866 35.3862 39.6499 37.0066 34.9444L43.7604 15.4999V14.0675H41.3038L35.9858 30.4365H35.7816L29.2321 14.0675H26.7755V15.5517L34.5533 33.9235V34.3222L34.3492 34.9379C33.4061 37.8027 32.5895 38.6194 30.6645 38.6194ZM65.3711 19.3888V29.0041C65.3711 32.0731 67.6201 34.3222 70.6892 34.3222H79.4878V31.6648H70.8933C69.0526 31.6648 68.0285 30.6407 68.0285 28.7999V19.593C68.0285 17.7489 69.0526 16.7281 70.8933 16.7281H78.6711L79.4878 15.9083V14.0675H70.6892C67.6201 14.0675 65.3711 16.3166 65.3711 19.3888ZM103.267 14.0676H101.426V34.3093H104.086V20.601C104.074 20.0338 104.178 19.4701 104.39 18.9438C104.601 18.4175 104.918 17.9393 105.318 17.5381C105.719 17.1367 106.197 16.8205 106.723 16.6084C107.249 16.3963 107.813 16.2927 108.381 16.3037H112.065V13.6463H108.792C105.311 13.6463 104.086 16.0996 104.086 16.0996H103.879L103.267 14.0676ZM114.478 29.4126V18.9774C114.478 15.9083 116.73 13.6593 119.799 13.6593H125.733C128.802 13.6593 131.051 15.9083 131.051 18.9774V29.4126C131.051 32.4816 128.802 34.7339 125.733 34.7339H119.799C119.094 34.756 118.392 34.6333 117.736 34.3737C117.081 34.1141 116.486 33.7229 115.987 33.2243C115.488 32.7257 115.097 32.1303 114.837 31.4747C114.578 30.8192 114.455 30.1174 114.478 29.4126ZM125.529 32.0733C127.369 32.0733 128.39 31.0492 128.39 29.2084V19.1815C128.39 17.3408 127.369 16.3167 125.529 16.3167H120.003C118.162 16.3167 117.139 17.3408 117.139 19.1815V29.2084C117.139 31.0492 118.162 32.0733 120.003 32.0733H125.529ZM136.089 14.0676H134.244L134.257 34.3223H136.918V20.614C136.918 17.9565 138.555 16.3167 141.215 16.3167H144.488C146.333 16.3167 147.353 17.3408 147.353 19.1815V34.3223H150.014V18.9644C150.014 15.8954 147.765 13.6463 144.693 13.6463H141.623C138.146 13.6463 136.918 16.0996 136.918 16.0996H136.714L136.089 14.0676Z" fill="#0C321D"/>
</svg>
