<svg width="160" height="48" viewBox="0 0 160 48" fill="none" xmlns="http://www.w3.org/2000/svg">
<path d="M147.789 13.356C147.581 13.3608 147.375 13.4074 147.186 13.4928C146.996 13.5782 146.825 13.7007 146.683 13.8532C146.387 14.1452 146.216 14.5419 146.208 14.9582C146.194 15.1752 146.224 15.3928 146.296 15.5978C146.369 15.8029 146.482 15.9913 146.628 16.1517C146.919 16.4495 147.317 16.6203 147.733 16.6268C147.941 16.624 148.145 16.5795 148.335 16.496C148.525 16.4124 148.696 16.2916 148.838 16.1406C149.006 16.0078 149.146 15.8425 149.248 15.6545C149.351 15.4665 149.414 15.2598 149.435 15.0466C149.423 14.629 149.248 14.2325 148.949 13.9416C148.809 13.7662 148.633 13.6231 148.433 13.522C148.232 13.421 148.013 13.3643 147.789 13.356ZM149.777 15.0466C149.783 15.3145 149.733 15.5806 149.631 15.8279C149.528 16.0753 149.375 16.2985 149.181 16.4832C148.807 16.8438 148.307 17.0424 147.789 17.0357C147.525 17.0416 147.265 16.9936 147.022 16.8948C146.778 16.796 146.558 16.6484 146.374 16.4611C146.187 16.2767 146.04 16.0561 145.941 15.813C145.842 15.5698 145.794 15.3091 145.799 15.0466C145.794 14.7754 145.847 14.5061 145.954 14.2566C146.06 14.0071 146.219 13.783 146.418 13.5991C146.791 13.2548 147.281 13.0652 147.789 13.0687C148.051 13.0641 148.311 13.1126 148.554 13.2114C148.798 13.3101 149.018 13.457 149.203 13.6433C149.389 13.826 149.536 14.0447 149.634 14.2859C149.733 14.5272 149.781 14.786 149.777 15.0466ZM148.153 14.6378C148.152 14.5826 148.135 14.5289 148.103 14.4836C148.072 14.4383 148.028 14.4035 147.976 14.3836C147.862 14.3684 147.747 14.3684 147.634 14.3836H147.501V14.9361H147.722C147.831 14.945 147.939 14.9179 148.031 14.8588C148.072 14.828 148.104 14.7877 148.126 14.7414C148.146 14.6952 148.156 14.6444 148.153 14.5936V14.6378ZM146.916 16.1517V13.9416H148.02C148.171 13.9438 148.318 13.9817 148.451 14.0521C148.546 14.0997 148.626 14.1744 148.679 14.2668C148.732 14.3592 148.756 14.4652 148.749 14.5715C148.755 14.6468 148.744 14.7224 148.717 14.793C148.691 14.8636 148.649 14.9275 148.595 14.9803C148.484 15.0656 148.349 15.1156 148.208 15.124C148.323 15.1463 148.432 15.1914 148.529 15.2566C148.594 15.3182 148.646 15.3939 148.678 15.4781C148.711 15.5623 148.724 15.6528 148.717 15.7428V15.9417C148.712 15.9635 148.712 15.9862 148.717 16.008C148.712 16.0298 148.712 16.0525 148.717 16.0743V16.1406H148.164C148.149 16.038 148.149 15.9338 148.164 15.8312C148.17 15.7429 148.17 15.6543 148.164 15.566C148.145 15.519 148.115 15.4773 148.077 15.4446C148.038 15.4118 147.992 15.389 147.943 15.3782C147.878 15.3638 147.809 15.3638 147.744 15.3782H147.501V16.1517H146.916Z" fill="black"/>
<path fill-rule="evenodd" clip-rule="evenodd" d="M82.0173 12.8374C79.0726 12.7901 76.2295 13.9132 74.1121 15.9601C71.9947 18.007 70.7761 20.8105 70.7239 23.755C70.8525 26.6637 72.0986 29.4107 74.2024 31.4235C76.3062 33.4362 79.1056 34.5597 82.0173 34.5597C84.9291 34.5597 87.7279 33.4362 89.8317 31.4235C91.9355 29.4107 93.1817 26.6637 93.3108 23.755C93.255 20.8114 92.036 18.0097 89.9189 15.9634C87.8025 13.9171 84.9612 12.793 82.0173 12.8374ZM82.0173 32.098C79.7671 32.1334 77.5949 31.275 75.977 29.7109C74.3591 28.1469 73.4276 26.005 73.3869 23.755C73.3869 21.4661 74.2962 19.271 75.9147 17.6525C77.5332 16.034 79.7283 15.1248 82.0173 15.1248C84.306 15.1248 86.5012 16.034 88.1193 17.6525C89.7382 19.271 90.6474 21.4661 90.6474 23.755C90.6069 26.005 89.6754 28.1469 88.0572 29.7109C86.4398 31.275 84.2669 32.1334 82.0173 32.098ZM46.2807 12.8374H49.0322V34.6726H46.2807V12.8374ZM51.8058 22.429H59.7288V25.0921H51.8058V22.429ZM65.254 12.8374H62.5024V34.6726H65.254V12.8374ZM126.561 12.8374H129.323V34.6726H126.561V12.8374ZM132.086 12.8374H135.787C136.784 12.8183 137.775 12.9959 138.704 13.3599C139.632 13.7239 140.48 14.2673 141.198 14.9589C141.917 15.6505 142.492 16.4769 142.89 17.3908C143.289 18.3047 143.504 19.2883 143.523 20.2852C143.504 21.2822 143.289 22.2658 142.89 23.1797C142.492 24.0935 141.917 24.9199 141.198 25.6116C140.48 26.3032 139.632 26.8466 138.704 27.2106C137.775 27.5745 136.784 27.7521 135.787 27.7331H132.097V25.1473H135.787C137.098 25.1681 138.364 24.6677 139.307 23.7562C140.25 22.8446 140.793 21.5963 140.816 20.2852C140.789 18.9761 140.245 17.7306 139.303 16.8215C138.361 15.9123 137.097 15.4135 135.787 15.4342H132.097L132.086 12.8374ZM98.1506 23.755C98.279 20.8463 99.5252 18.0993 101.629 16.0865C103.733 14.0738 106.532 12.9503 109.444 12.9503C112.355 12.9503 115.155 14.0738 117.259 16.0865C119.362 18.0993 120.609 20.8463 120.737 23.755C120.609 26.6637 119.362 29.4107 117.259 31.4235C115.155 33.4362 112.355 34.5597 109.444 34.5597C106.532 34.5597 103.733 33.4362 101.629 31.4235C99.5252 29.4107 98.279 26.6637 98.1506 23.755ZM100.813 23.755C100.813 26.0483 101.725 28.2476 103.346 29.8693C104.968 31.4908 107.167 32.4019 109.46 32.4019C111.754 32.4019 113.953 31.4908 115.575 29.8693C117.196 28.2476 118.107 26.0483 118.107 23.755C118.107 21.4661 117.198 19.271 115.58 17.6525C113.961 16.034 111.766 15.1248 109.477 15.1248C107.188 15.1248 104.993 16.034 103.375 17.6525C101.756 19.271 100.847 21.4661 100.847 23.755H100.813ZM27.2632 21.0919L31.5397 34.6726H34.2139L41.0871 12.8374H38.4129L32.8878 30.4183L29.9374 21.0919H27.2632ZM10.9199 12.8374L15.1964 26.4181H17.8705L13.5941 12.8374H10.9199ZM17.7932 34.6726L24.6664 12.8374H27.3406L20.4673 34.6726H17.7932Z" fill="black"/>
</svg>
