<?xml version="1.0" standalone="no"?>
<!DOCTYPE svg PUBLIC "-//W3C//DTD SVG 20010904//EN"
 "http://www.w3.org/TR/2001/REC-SVG-20010904/DTD/svg10.dtd">
<svg version="1.0" xmlns="http://www.w3.org/2000/svg"
 width="54.000000pt" height="54.000000pt" viewBox="0 0 54.000000 54.000000"
 preserveAspectRatio="xMidYMid meet">

<g transform="translate(0.000000,54.000000) scale(0.100000,-0.100000)"
fill="#000000" stroke="none">
<path d="M172 283 l3 -88 35 -3 c19 -2 41 -8 47 -14 9 -7 17 -7 26 0 6 6 28
12 47 14 l35 3 3 88 3 87 -101 0 -101 0 3 -87z m86 -7 c3 -69 1 -78 -13 -72
-9 3 -28 6 -41 6 -23 0 -24 2 -24 76 l0 75 38 -3 37 -3 3 -79z m102 9 c0 -73
-1 -75 -24 -75 -13 0 -31 -3 -40 -6 -14 -5 -16 5 -16 68 0 41 3 78 7 81 3 4
21 7 40 7 l33 0 0 -75z"/>
</g>
</svg>
