<svg width="24" height="24" viewBox="0 0 24 24" fill="none" xmlns="http://www.w3.org/2000/svg">
<path fill-rule="evenodd" clip-rule="evenodd" d="M10.6048 21.1047C5.5826 21.1047 1.5 17.0221 1.5 11.9999C1.5 6.97767 5.5826 2.89502 10.6048 2.89502C12.9078 2.89502 15.069 3.73147 16.7527 5.27492C16.1927 5.60608 15.6522 5.9729 15.1324 6.36995C13.8566 5.34071 12.2702 4.77403 10.6048 4.77403C6.62463 4.77403 3.37901 8.0197 3.37901 11.9999C3.37901 15.98 6.62463 19.2257 10.6048 19.2257C16.1429 19.2257 19.4308 13.306 17.0488 8.70329C17.4098 8.36757 17.7814 8.04218 18.1628 7.72764C18.2754 7.63476 18.389 7.54275 18.5034 7.45166C19.3002 8.8279 19.7098 10.3883 19.7098 11.9998C19.7097 17.0221 15.6271 21.1047 10.6048 21.1047Z" fill="#7B49E1"/>
<path fill-rule="evenodd" clip-rule="evenodd" d="M10.8472 16.6805C10.7448 16.6805 10.6594 16.6122 10.6252 16.5268C10.6081 16.4926 9.13902 12.7003 6.86707 11.2654C6.42292 10.9921 6.08135 10.7017 6.21798 10.0525C6.35461 9.42049 6.7817 9.06176 7.55037 8.89092C8.91692 8.60051 10.386 10.7187 10.9327 11.59C12.8458 8.80555 16.6723 4.43244 22.2411 3.91998C22.5098 3.88849 22.6091 4.2867 22.3607 4.39829C22.2753 4.43244 14.3149 8.07104 11.0863 16.5439C11.0351 16.6292 10.9497 16.6805 10.8472 16.6805Z" fill="#7B49E1"/>
</svg>
