<svg width="40" height="40" viewBox="0 0 40 40" fill="none" xmlns="http://www.w3.org/2000/svg">
<path fillRule="evenodd" clipRule="evenodd" d="M28.3829 26.5312H17.6496C15.0162 26.5312 12.8662 28.6812 12.8662 31.3146C12.8662 33.9646 15.0162 36.0979 17.6496 36.0979H28.5329C27.1663 34.9312 26.2996 33.1979 26.2996 31.2479C26.2996 29.3812 27.0996 27.6979 28.3829 26.5312Z" fill="#7B49E1"/>
<path fillRule="evenodd" clipRule="evenodd" d="M32.6835 26.5312C32.0668 26.5312 31.4835 26.6479 30.9501 26.8646C29.2001 27.5479 27.9668 29.2646 27.9668 31.2479C27.9668 33.3146 29.2835 35.0646 31.1335 35.6979C31.6168 35.8813 32.1335 35.9646 32.6835 35.9646C35.2835 35.9646 37.4001 33.8646 37.4001 31.2479C37.4001 28.6479 35.2835 26.5312 32.6835 26.5312Z" fill="#7B49E1"/>
<path fillRule="evenodd" clipRule="evenodd" d="M15.9997 19.9144C15.9997 17.9811 16.8663 16.2311 18.233 15.0645H7.34974C4.71641 15.0645 2.56641 17.2144 2.56641 19.8478C2.56641 22.4978 4.71641 24.6311 7.34974 24.6311H18.083C16.7997 23.4644 15.9997 21.7811 15.9997 19.9144Z" fill="#7B49E1"/>
<path fillRule="evenodd" clipRule="evenodd" d="M20.8337 15.4639C18.9837 16.0972 17.667 17.864 17.667 19.9138C17.667 21.9138 18.9003 23.614 20.6503 24.2973C21.1837 24.514 21.767 24.6305 22.3837 24.6305C24.9837 24.6305 27.1003 22.5305 27.1003 19.9138C27.1003 17.314 24.9837 15.1973 22.3837 15.1973C21.8337 15.1973 21.317 15.2973 20.8337 15.4639Z" fill="#7B49E1"/>
<path fillRule="evenodd" clipRule="evenodd" d="M17.6837 13.1643H28.5671C27.2004 11.9977 26.3337 10.2643 26.3337 8.31432C26.3337 6.44766 27.1337 4.76432 28.4171 3.59766H17.6837C15.0504 3.59766 12.9004 5.74766 12.9004 8.38099C12.9004 11.031 15.0504 13.1643 17.6837 13.1643Z" fill="#7B49E1"/>
<path fillRule="evenodd" clipRule="evenodd" d="M31.1667 12.7643C31.65 12.9477 32.1667 13.031 32.7167 13.031C35.3167 13.031 37.4333 10.931 37.4333 8.31432C37.4333 5.71432 35.3167 3.59766 32.7167 3.59766C32.1 3.59766 31.5167 3.71432 30.9833 3.93099C29.2335 4.61432 28 6.33099 28 8.31432C28 10.381 29.3167 12.131 31.1667 12.7643Z" fill="#7B49E1"/>
</svg>
