<svg width="41" height="40" viewBox="0 0 41 40" fill="none" xmlns="http://www.w3.org/2000/svg">
<path d="M11.8426 4.63573C7.37078 4.63573 6.68728 4.67297 2.76648 4.67839C2.22341 4.67914 1.78076 5.11929 1.78076 5.66236V9.17567C1.78076 9.71874 2.22101 10.159 2.76408 10.159H11.8426C19.2065 10.159 19.2513 21.0308 11.8426 21.0308H2.76408C2.22101 21.0308 1.78076 21.471 1.78076 22.0141V34.3808C1.78076 34.9238 2.22101 35.3641 2.76408 35.3641H6.58368C7.12675 35.3641 7.567 34.9238 7.567 34.3808V27.3177C7.567 26.7747 8.00724 26.3344 8.55031 26.3344H11.8426C26.8781 26.3344 26.8348 4.63573 11.8426 4.63573Z" fill="#7B49E1"/>
<path d="M39.2802 5.66312C39.2802 5.12005 38.84 4.67981 38.2969 4.67981H23.5067C22.5931 4.67981 22.1184 5.88197 22.681 6.60179C23.4175 7.54402 24.0206 8.57395 24.4875 9.65881C24.6496 10.0352 25.0134 10.2908 25.4232 10.2908H38.2969C38.84 10.2908 39.2802 9.85055 39.2802 9.30748V5.66312Z" fill="#7B49E1"/>
<path d="M37.6834 22.7398C38.2265 22.7398 38.6667 22.2996 38.6667 21.7565V18.3315C38.6667 17.7884 38.2265 17.3482 37.6834 17.3482H26.4375C25.9407 17.3482 25.5256 17.7195 25.4363 18.2081C25.2456 19.2516 24.9449 20.2604 24.5404 21.2184C24.2463 21.9149 24.7291 22.7398 25.4852 22.7398H37.6834Z" fill="#7B49E1"/>
<path d="M16.9772 28.5884C16.5827 28.742 16.3103 29.1146 16.3103 29.5379C16.3103 31.1524 16.3103 32.768 16.3103 34.381C16.3103 34.9241 16.7505 35.3643 17.2936 35.3643H38.297C38.8401 35.3643 39.2803 34.9241 39.2803 34.381V30.649C39.2803 30.106 38.8401 29.6657 38.297 29.6657H23.0362C22.4931 29.6657 22.0528 29.2255 22.0528 28.6824V25.207C22.0528 25.176 22.0161 25.1624 21.995 25.1852C20.8959 26.3757 19.2648 27.6976 16.9772 28.5884Z" fill="#7B49E1"/>
</svg>
