<svg width="66" height="28" viewBox="0 0 66 28" fill="none" xmlns="http://www.w3.org/2000/svg">
<circle cx="14.5376" cy="14.1333" r="13.8462" fill="#171717"/>
<path d="M15.7474 7.56396L15.7413 10.4719L15.7353 13.3799L15.4577 12.7048V12.7031L15.0977 19.1767C15.4517 20.0352 15.6407 20.4939 15.6428 20.4957C15.6448 20.4974 15.8459 20.5078 16.0893 20.5182C16.8255 20.5493 17.7387 20.6168 18.4326 20.6913C18.5935 20.7086 18.7303 20.7172 18.7404 20.7103C18.7504 20.7034 18.7525 17.7435 18.7504 14.1311L18.7444 7.56396H15.7474V7.56396Z" fill="url(#paint0_linear_10116_7716)"/>
<path d="M10.3262 7.5552V14.1292C10.3262 17.7451 10.3302 20.7068 10.3362 20.712C10.3423 20.7171 10.6017 20.6946 10.9155 20.6652C11.2293 20.6358 11.6618 20.5977 11.877 20.5821C12.2069 20.5579 13.1965 20.5042 13.3092 20.5025C13.3433 20.5025 13.3454 20.3554 13.3494 17.7175L13.3554 14.9324L13.5948 15.514C13.631 15.604 13.6431 15.6317 13.6793 15.72L14.0393 9.24804C13.9629 9.06283 14.0031 9.15976 13.9166 8.94859C13.6229 8.23372 13.3735 7.62963 13.3635 7.60193L13.3433 7.55347H10.3262V7.5552Z" fill="url(#paint1_linear_10116_7716)"/>
<path d="M10.3262 7.5552L13.3534 14.9375V14.9341L13.5928 15.5157C14.9224 18.7542 15.6364 20.492 15.6405 20.4955C15.6425 20.4972 15.8436 20.5076 16.087 20.518C16.8232 20.5492 17.7364 20.6167 18.4303 20.6911C18.5893 20.7084 18.728 20.7171 18.7361 20.7101L15.735 13.378V13.3797L15.4574 12.7047C15.1859 12.0452 15.0048 11.6038 13.9126 8.94858C13.6189 8.23372 13.3695 7.62963 13.3595 7.60193L13.3393 7.55347H11.8328L10.3262 7.5552Z" fill="#E30A17"/>
<rect x="19.1523" y="0.287109" width="27.6923" height="27.6923" rx="13.8462" fill="#E82127"/>
<g clip-path="url(#clip0_10116_7716)">
<path d="M32.9988 22.3729L35.3141 9.35134C37.5211 9.35134 38.2172 9.59334 38.3177 10.5811C38.3177 10.5811 39.7981 10.0291 40.5448 8.908C37.631 7.5578 34.7033 7.49691 34.7033 7.49691L32.9949 9.57768L32.9988 9.57742L31.2904 7.49658C31.2904 7.49658 28.3626 7.55754 25.4492 8.90774C26.1953 10.0289 27.6763 10.5809 27.6763 10.5809C27.7774 9.59302 28.4727 9.35102 30.6648 9.34945L32.9988 22.3729Z" fill="white"/>
<path d="M32.9997 6.89602C35.3551 6.87801 38.0511 7.2604 40.811 8.46329C41.1799 7.79935 41.2747 7.50592 41.2747 7.50592C38.2577 6.31229 35.4323 5.9038 32.9993 5.89355C30.5665 5.9038 27.7412 6.31236 24.7246 7.50592C24.7246 7.50592 24.8592 7.86736 25.188 8.46329C27.9474 7.2604 30.6439 6.87801 32.9993 6.89602H32.9997Z" fill="white"/>
</g>
<rect x="37.6152" y="0.287109" width="27.6923" height="27.6923" rx="13.8462" fill="#141920"/>
<rect width="22.1538" height="22.1538" transform="translate(40.3848 3.05615)" fill="#141920"/>
<path d="M55.9256 18.2561C50.8965 20.6495 47.7754 18.647 45.7775 17.4307C45.6539 17.3541 45.4437 17.4487 45.626 17.6581C46.2917 18.4651 48.473 20.4104 51.3203 20.4104C54.1695 20.4104 55.8646 18.8557 56.0766 18.5845C56.2872 18.3156 56.1384 18.1673 55.9256 18.2561H55.9256ZM57.3381 17.4761C57.203 17.3002 56.5168 17.2674 56.085 17.3205C55.6525 17.372 55.0034 17.6363 55.0598 17.795C55.0888 17.8545 55.1479 17.8278 55.445 17.8011C55.7429 17.7714 56.5775 17.666 56.7514 17.8934C56.9261 18.1223 56.4852 19.2127 56.4047 19.3886C56.3269 19.5645 56.4344 19.6098 56.5805 19.4927C56.7247 19.3756 56.9856 19.0724 57.1607 18.6433C57.3346 18.2118 57.4407 17.61 57.338 17.4761H57.3381Z" fill="#FF9900"/>
<path fill-rule="evenodd" clip-rule="evenodd" d="M52.5447 13.3719C52.5447 13.9999 52.5606 14.5236 52.2432 15.0813C51.987 15.5348 51.5811 15.8136 51.1277 15.8136C50.5087 15.8136 50.1483 15.342 50.1483 14.646C50.1483 13.2721 51.3793 13.0227 52.5447 13.0227V13.3719ZM54.1703 17.3009C54.0637 17.3961 53.9095 17.4029 53.7894 17.3394C53.2543 16.8951 53.1591 16.6888 52.8644 16.2648C51.9802 17.1672 51.3544 17.4369 50.2072 17.4369C48.8514 17.4369 47.7949 16.6003 47.7949 14.9249C47.7949 13.6167 48.5046 12.7257 49.5134 12.2904C50.3886 11.905 51.6106 11.837 52.5447 11.7304V11.5218C52.5447 11.1387 52.5741 10.6852 52.3497 10.3543C52.1524 10.0572 51.7761 9.93481 51.4451 9.93481C50.8307 9.93481 50.282 10.2499 50.1483 10.9029C50.121 11.048 50.0145 11.1909 49.8694 11.1976L48.305 11.0299C48.1736 11.0004 48.0285 10.8938 48.0647 10.692C48.4252 8.79671 50.1369 8.22534 51.6695 8.22534C52.4539 8.22534 53.4787 8.43394 54.0977 9.02796C54.8821 9.76024 54.8073 10.7374 54.8073 11.8007V14.3127C54.8073 15.0677 55.1202 15.3987 55.4149 15.8068C55.5192 15.9519 55.5419 16.1265 55.4103 16.2353C55.0816 16.5096 54.4967 17.0198 54.1747 17.3055L54.1702 17.3009" fill="white"/>
<defs>
<linearGradient id="paint0_linear_10116_7716" x1="20.1022" y1="17.3953" x2="15.3053" y2="19.5019" gradientUnits="userSpaceOnUse">
<stop stop-color="#B20610"/>
<stop offset="0.255959" stop-color="#B20610"/>
<stop offset="1" stop-color="#590004"/>
</linearGradient>
<linearGradient id="paint1_linear_10116_7716" x1="8.87153" y1="10.4378" x2="14.0592" y2="8.18591" gradientUnits="userSpaceOnUse">
<stop stop-color="#B20610"/>
<stop offset="0.255959" stop-color="#B20610"/>
<stop offset="1" stop-color="#590004"/>
</linearGradient>
<clipPath id="clip0_10116_7716">
<rect width="16.6154" height="16.5448" fill="white" transform="translate(24.6934 5.86084)"/>
</clipPath>
</defs>
</svg>
