<svg width="25" height="24" viewBox="0 0 25 24" fill="none" xmlns="http://www.w3.org/2000/svg">
<path fill-rule="evenodd" clip-rule="evenodd" d="M7.1414 1H14.4967L20.7306 7.49776V20.1359C20.7306 21.7191 19.4497 23 17.872 23H7.1414C5.5582 23 4.27734 21.7191 4.27734 20.1359V3.86406C4.27732 2.28086 5.55817 1 7.1414 1Z" fill="#E5252A"/>
<path opacity="0.302" fill-rule="evenodd" clip-rule="evenodd" d="M14.4883 1V7.44828H20.7277L14.4883 1Z" fill="white"/>
<path d="M7.45703 17.4148V13.3963H9.16668C9.58997 13.3963 9.92532 13.5117 10.1782 13.7481C10.4311 13.979 10.5575 14.2924 10.5575 14.6827C10.5575 15.073 10.4311 15.3863 10.1782 15.6172C9.92532 15.8536 9.58997 15.969 9.16668 15.969H8.48502V17.4148H7.45703ZM8.48502 15.095H9.05124C9.20515 15.095 9.3261 15.062 9.40857 14.985C9.49102 14.9136 9.53502 14.8146 9.53502 14.6827C9.53502 14.5508 9.49104 14.4518 9.40857 14.3803C9.32612 14.3034 9.20518 14.2704 9.05124 14.2704H8.48502V15.095ZM10.9808 17.4148V13.3963H12.4046C12.6849 13.3963 12.9488 13.4348 13.1962 13.5172C13.4435 13.5997 13.6689 13.7152 13.8668 13.8746C14.0647 14.0285 14.2241 14.2374 14.3396 14.5013C14.4495 14.7651 14.51 15.0675 14.51 15.4083C14.51 15.7436 14.4495 16.046 14.3396 16.3098C14.2241 16.5737 14.0647 16.7826 13.8668 16.9365C13.6689 17.0959 13.4435 17.2114 13.1962 17.2938C12.9488 17.3763 12.6849 17.4148 12.4046 17.4148H10.9808ZM11.9868 16.5407H12.2836C12.443 16.5407 12.5915 16.5243 12.7289 16.4858C12.8608 16.4473 12.9873 16.3868 13.1082 16.3044C13.2236 16.2219 13.3171 16.1064 13.3831 15.9525C13.449 15.7986 13.482 15.6172 13.482 15.4083C13.482 15.1939 13.449 15.0125 13.3831 14.8586C13.3171 14.7047 13.2236 14.5892 13.1082 14.5068C12.9873 14.4243 12.8608 14.3638 12.7289 14.3254C12.5915 14.2869 12.443 14.2704 12.2836 14.2704H11.9868V16.5407ZM15.0268 17.4148V13.3963H17.8853V14.2704H16.0547V14.9135H17.517V15.7821H16.0547V17.4148H15.0268Z" fill="white"/>
</svg>
