<svg width="24" height="24" viewBox="0 0 24 24" fill="none" xmlns="http://www.w3.org/2000/svg">
<path fill-rule="evenodd" clip-rule="evenodd" d="M10.6048 21.1042C5.5826 21.1042 1.5 17.0216 1.5 11.9994C1.5 6.97718 5.5826 2.89453 10.6048 2.89453C12.9078 2.89453 15.069 3.73098 16.7527 5.27443C16.1927 5.60559 15.6522 5.97241 15.1324 6.36946C13.8566 5.34022 12.2702 4.77355 10.6048 4.77355C6.62463 4.77355 3.37901 8.01921 3.37901 11.9994C3.37901 15.9796 6.62463 19.2252 10.6048 19.2252C16.1429 19.2252 19.4308 13.3055 17.0488 8.7028C17.4098 8.36708 17.7814 8.04169 18.1628 7.72715C18.2754 7.63427 18.389 7.54226 18.5034 7.45117C19.3002 8.82741 19.7098 10.3878 19.7098 11.9993C19.7097 17.0216 15.6271 21.1042 10.6048 21.1042Z" fill="#7B49E1"/>
<path fill-rule="evenodd" clip-rule="evenodd" d="M10.8433 16.6802C10.7409 16.6802 10.6554 16.6119 10.6213 16.5265C10.6042 16.4924 9.13511 12.7001 6.86316 11.2652C6.41902 10.9918 6.07744 10.7014 6.21407 10.0523C6.3507 9.42025 6.77779 9.06152 7.54646 8.89068C8.91302 8.60027 10.3821 10.7185 10.9288 11.5897C12.8419 8.80531 16.6684 4.4322 22.2372 3.91974C22.5059 3.88824 22.6052 4.28646 22.3568 4.39804C22.2714 4.4322 14.311 8.0708 11.0824 16.5436C11.0312 16.629 10.9458 16.6802 10.8433 16.6802Z" fill="#7B49E1"/>
</svg>
