<svg width="54" height="54" viewBox="0 0 54 54" fill="none" xmlns="http://www.w3.org/2000/svg">
<rect width="54" height="54" rx="27" fill="white"/>
<path fillRule="evenodd" clipRule="evenodd" d="M32.7289 31.7178C32.8367 34.1605 30.8652 36.2262 28.3258 36.33C28.1388 36.3378 19.0201 36.3195 19.0201 36.3195C16.493 36.5113 14.2812 34.6953 14.0819 32.2618C14.0669 32.0804 14.071 22.2963 14.071 22.2963C13.959 19.8509 15.9277 17.78 18.4685 17.6723C18.6583 17.6631 27.7647 17.6801 27.7647 17.6801C30.3041 17.4909 32.5227 19.32 32.7193 21.7654C32.7329 21.9415 32.7289 31.7178 32.7289 31.7178Z" stroke="#7B49E1" strokeWidth="2" strokeLinecap="round" strokeLinejoin="round"/>
<path d="M32.7329 24.3064L37.1236 20.7131C38.2116 19.8224 39.8436 20.5984 39.8422 22.0024L39.8262 31.8011C39.8249 33.2051 38.1916 33.9744 37.1062 33.0838L32.7329 29.4904" stroke="#7B49E1" strokeWidth="2" strokeLinecap="round" strokeLinejoin="round"/>
</svg>
