<svg width="40" height="40" viewBox="0 0 40 40" fill="none" xmlns="http://www.w3.org/2000/svg">
<path d="M37.5 23.75V27.5C37.5 28.1631 37.2366 28.7989 36.7678 29.2678C36.2989 29.7366 35.663 30 35 30H18.1141C17.9988 30.0001 17.8857 29.9683 17.7874 29.9081C17.689 29.848 17.6093 29.7618 17.5569 29.6591C17.5045 29.5564 17.4815 29.4412 17.4905 29.3263C17.4995 29.2113 17.5401 29.1011 17.6078 29.0078L27.2297 15.7813C27.4291 15.5163 27.5182 15.1845 27.4783 14.8553C27.4384 14.5262 27.2726 14.2252 27.0156 14.0156C26.8834 13.9131 26.732 13.8381 26.5702 13.7951C26.4085 13.7522 26.2398 13.7421 26.0741 13.7656C25.9084 13.789 25.7492 13.8455 25.6057 13.9317C25.4623 14.0179 25.3376 14.1319 25.2391 14.2672L13.9891 29.7453C13.9301 29.8255 13.8528 29.8905 13.7637 29.9348C13.6745 29.9791 13.5761 30.0014 13.4766 30H5C4.33696 30 3.70107 29.7366 3.23223 29.2678C2.76339 28.7989 2.5 28.1631 2.5 27.5V23.9266C2.5 23.6469 2.5 23.3688 2.52031 23.0938C2.52834 22.9335 2.59771 22.7824 2.71406 22.6719C2.83041 22.5614 2.98483 22.4998 3.14531 22.5H7.5C7.67136 22.5004 7.84097 22.4655 7.99829 22.3976C8.15561 22.3297 8.29728 22.2301 8.4145 22.1051C8.53173 21.9801 8.622 21.8324 8.67971 21.671C8.73743 21.5097 8.76135 21.3382 8.75 21.1672C8.72235 20.8452 8.57362 20.5457 8.3338 20.3291C8.09398 20.1125 7.78094 19.9949 7.45781 20H3.7375C3.64215 19.9999 3.54809 19.9781 3.4625 19.936C3.37691 19.894 3.30208 19.833 3.24372 19.7576C3.18536 19.6822 3.14502 19.5944 3.1258 19.501C3.10658 19.4076 3.10898 19.3111 3.13281 19.2188C5.00781 12.3688 10.8922 7.1672 18.0578 6.36251C18.1454 6.35304 18.2339 6.36218 18.3177 6.38932C18.4014 6.41646 18.4785 6.461 18.5439 6.52001C18.6092 6.57901 18.6614 6.65117 18.6969 6.73173C18.7324 6.8123 18.7505 6.89946 18.75 6.98751V11.25C18.7496 11.4214 18.7845 11.591 18.8524 11.7483C18.9203 11.9056 19.0199 12.0473 19.1449 12.1645C19.2699 12.2817 19.4176 12.372 19.579 12.4297C19.7403 12.4874 19.9118 12.5114 20.0828 12.5C20.4048 12.4724 20.7043 12.3236 20.9209 12.0838C21.1375 11.844 21.2551 11.5309 21.25 11.2078V6.9797C21.2495 6.89165 21.2676 6.80449 21.3031 6.72392C21.3386 6.64335 21.3908 6.5712 21.4561 6.51219C21.5215 6.45318 21.5986 6.40865 21.6823 6.38151C21.7661 6.35437 21.8546 6.34523 21.9422 6.3547C25.4405 6.74781 28.7394 8.18519 31.4093 10.4797C34.0791 12.7741 35.9962 15.8193 36.9109 19.2188C36.9348 19.3112 36.9372 19.4079 36.9179 19.5014C36.8986 19.5949 36.8581 19.6827 36.7996 19.7582C36.741 19.8336 36.666 19.8946 36.5802 19.9365C36.4944 19.9785 36.4002 20.0002 36.3047 20H32.5422C32.2196 19.9957 31.9073 20.1136 31.6682 20.3302C31.429 20.5467 31.2807 20.8458 31.2531 21.1672C31.2418 21.3382 31.2657 21.5097 31.3234 21.671C31.3811 21.8324 31.4714 21.9801 31.5886 22.1051C31.7058 22.2301 31.8475 22.3297 32.0048 22.3976C32.1622 22.4655 32.3318 22.5004 32.5031 22.5H36.8656C37.0277 22.4999 37.1834 22.5627 37.3 22.6753C37.4166 22.7878 37.485 22.9412 37.4906 23.1031C37.5 23.3172 37.5 23.5328 37.5 23.75Z" fill="#6A34CD"/>
</svg>
