<svg width="200" height="200" viewBox="0 0 200 200" fill="none" xmlns="http://www.w3.org/2000/svg">
<path fill-rule="evenodd" clip-rule="evenodd" d="M45.9766 43.678C45.9766 30.6362 56.8752 20.6895 69.5319 20.6895H128.168C140.825 20.6895 151.724 30.6362 151.724 43.678V145.977H133.333V43.678C133.333 41.4842 131.373 39.0803 128.168 39.0803H69.5319C66.3271 39.0803 64.3674 41.4842 64.3674 43.678V145.977H45.9766V43.678Z" fill="url(#paint0_linear_1_24551)" fill-opacity="0.6"/>
<circle cx="114.945" cy="90.8046" r="40.2299" fill="url(#paint1_radial_1_24551)"/>
<circle cx="114.945" cy="90.8046" r="39.2299" stroke="white" stroke-opacity="0.2" stroke-width="2"/>
<path d="M103.449 90.6243L110.898 98.9701C111.011 99.0973 111.215 99.0988 111.33 98.9732L126.438 82.5435" stroke="white" stroke-width="4.5" stroke-linecap="round"/>
<path fill-rule="evenodd" clip-rule="evenodd" d="M200 152.874H0V145.977H200V152.874Z" fill="url(#paint2_linear_1_24551)" fill-opacity="0.6"/>
<path fill-rule="evenodd" clip-rule="evenodd" d="M152.872 166.667H47.125V159.77H152.872V166.667Z" fill="url(#paint3_linear_1_24551)" fill-opacity="0.6"/>
<path fill-rule="evenodd" clip-rule="evenodd" d="M127.586 180.46H72.4141V173.563H127.586V180.46Z" fill="url(#paint4_linear_1_24551)" fill-opacity="0.6"/>
<path d="M26.5889 44.3854L30.9785 48.8513L37.226 48.426L32.7601 52.8156L33.1854 59.0631L28.7958 54.5972L22.5482 55.0225L27.0141 50.6329L26.5889 44.3854Z" fill="#C2ABF1"/>
<path d="M170.113 57.4712L171.355 60.8271L174.711 62.0689L171.355 63.3107L170.113 66.6666L168.872 63.3107L165.516 62.0689L168.872 60.8271L170.113 57.4712Z" fill="#C2ABF1"/>
<path d="M110.348 16.0918L111.589 19.4477L114.945 20.6895L111.589 21.9313L110.348 25.2872L109.106 21.9313L105.75 20.6895L109.106 19.4477L110.348 16.0918Z" fill="#C2ABF1"/>
<path d="M46.2535 140.457L46.3926 144.033L49.1975 146.255L45.6219 146.394L43.4 149.198L43.2609 145.623L40.456 143.401L44.0316 143.262L46.2535 140.457Z" fill="#C2ABF1"/>
<path d="M26.3333 174.006L26.4306 176.506L28.3918 178.059L25.8917 178.157L24.3382 180.118L24.2409 177.618L22.2798 176.064L24.7798 175.967L26.3333 174.006Z" fill="#C2ABF1"/>
<path d="M178.261 150.02L177.189 156.19L181.174 161.02L175.005 159.947L170.175 163.933L171.247 157.763L167.261 152.933L173.431 154.006L178.261 150.02Z" fill="#C2ABF1"/>
<defs>
<linearGradient id="paint0_linear_1_24551" x1="99.4485" y1="-8.62089" x2="99.4485" y2="213.218" gradientUnits="userSpaceOnUse">
<stop stop-color="#DCE5EE"/>
<stop offset="1" stop-color="#DCE5EE" stop-opacity="0"/>
</linearGradient>
<radialGradient id="paint1_radial_1_24551" cx="0" cy="0" r="1" gradientUnits="userSpaceOnUse" gradientTransform="translate(114.945 131.034) rotate(-90) scale(80.4598)">
<stop stop-color="#0BBC08"/>
<stop offset="1" stop-color="#9CFF9A"/>
</radialGradient>
<linearGradient id="paint2_linear_1_24551" x1="0" y1="149.425" x2="200" y2="149.425" gradientUnits="userSpaceOnUse">
<stop stop-color="#DCE5EE" stop-opacity="0"/>
<stop offset="0.510417" stop-color="#DCE5EE"/>
<stop offset="1" stop-color="#DCE5EE" stop-opacity="0"/>
</linearGradient>
<linearGradient id="paint3_linear_1_24551" x1="47.125" y1="163.218" x2="152.872" y2="163.218" gradientUnits="userSpaceOnUse">
<stop stop-color="#DCE5EE" stop-opacity="0"/>
<stop offset="0.510417" stop-color="#DCE5EE"/>
<stop offset="1" stop-color="#DCE5EE" stop-opacity="0"/>
</linearGradient>
<linearGradient id="paint4_linear_1_24551" x1="72.4141" y1="177.011" x2="127.586" y2="177.011" gradientUnits="userSpaceOnUse">
<stop stop-color="#DCE5EE" stop-opacity="0"/>
<stop offset="0.510417" stop-color="#DCE5EE"/>
<stop offset="1" stop-color="#DCE5EE" stop-opacity="0"/>
</linearGradient>
</defs>
</svg>
